<?xml version="1.0" standalone="no"?>
<!DOCTYPE svg PUBLIC "-//W3C//DTD SVG 1.1//EN" 
  "http://www.w3.org/Graphics/SVG/1.1/DTD/svg11.dtd">
<svg width="2048" height="2048" viewBox="0 0 2048 2048"
     xmlns="http://www.w3.org/2000/svg" version="1.1">
<desc>test.blend, (Blender 3.5.0)</desc>
<polygon stroke="black" stroke-width="1" fill="rgb(204, 204, 204)" fill-opacity="0.25" points="1824.676,839.551 1783.034,840.399 1761.446,900.885 1852.561,902.341 " />
<polygon stroke="black" stroke-width="1" fill="rgb(204, 204, 204)" fill-opacity="0.25" points="1753.551,306.080 1777.801,365.547 1819.439,364.546 1844.511,300.581 " />
<polygon stroke="black" stroke-width="1" fill="rgb(204, 204, 204)" fill-opacity="0.25" points="1852.561,902.341 1761.446,900.885 1746.981,979.841 1884.500,973.730 " />
<polygon stroke="black" stroke-width="1" fill="rgb(204, 204, 204)" fill-opacity="0.25" points="1735.594,227.844 1753.551,306.080 1844.511,300.581 1873.248,227.844 " />
<polygon stroke="black" stroke-width="1" fill="rgb(204, 204, 204)" fill-opacity="0.25" points="1761.446,900.885 1697.587,838.101 1635.289,881.592 1746.981,979.841 " />
<polygon stroke="black" stroke-width="1" fill="rgb(204, 204, 204)" fill-opacity="0.25" points="1628.373,330.953 1692.541,371.636 1753.551,306.080 1735.594,227.844 " />
<polygon stroke="black" stroke-width="1" fill="rgb(204, 204, 204)" fill-opacity="0.25" points="1783.034,840.399 1749.815,809.464 1697.587,838.101 1761.446,900.885 " />
<polygon stroke="black" stroke-width="1" fill="rgb(204, 204, 204)" fill-opacity="0.25" points="1692.541,371.636 1745.990,397.926 1777.801,365.547 1753.551,306.080 " />
<polygon stroke="black" stroke-width="1" fill="rgb(204, 204, 204)" fill-opacity="0.25" points="1749.815,809.464 1749.211,767.060 1696.094,750.891 1697.587,838.101 " />
<polygon stroke="black" stroke-width="1" fill="rgb(204, 204, 204)" fill-opacity="0.25" points="1694.921,458.826 1747.266,440.316 1745.990,397.926 1692.541,371.636 " />
<polygon stroke="black" stroke-width="1" fill="rgb(204, 204, 204)" fill-opacity="0.25" points="1697.587,838.101 1696.094,750.891 1620.005,726.133 1635.289,881.592 " />
<polygon stroke="black" stroke-width="1" fill="rgb(204, 204, 204)" fill-opacity="0.25" points="1620.005,486.937 1694.921,458.826 1692.541,371.636 1628.373,330.953 " />
<polygon stroke="black" stroke-width="1" fill="rgb(204, 204, 204)" fill-opacity="0.25" points="1696.094,750.891 1751.411,678.857 1725.149,609.298 1620.005,726.133 " />
<polygon stroke="black" stroke-width="1" fill="rgb(204, 204, 204)" fill-opacity="0.25" points="1730.230,598.989 1753.379,528.333 1694.921,458.826 1620.005,486.937 " />
<polygon stroke="black" stroke-width="1" fill="rgb(204, 204, 204)" fill-opacity="0.25" points="1749.211,767.060 1776.656,732.588 1751.411,678.857 1696.094,750.891 " />
<polygon stroke="black" stroke-width="1" fill="rgb(204, 204, 204)" fill-opacity="0.25" points="1753.379,528.333 1776.216,473.534 1747.266,440.316 1694.921,458.826 " />
<polygon stroke="black" stroke-width="1" fill="rgb(204, 204, 204)" fill-opacity="0.25" points="1776.656,732.588 1823.691,733.370 1843.968,682.058 1751.411,678.857 " />
<polygon stroke="black" stroke-width="1" fill="rgb(204, 204, 204)" fill-opacity="0.25" points="1845.705,521.028 1823.168,470.665 1776.216,473.534 1753.379,528.333 " />
<polygon stroke="black" stroke-width="1" fill="rgb(204, 204, 204)" fill-opacity="0.25" points="1751.411,678.857 1843.968,682.058 1881.903,615.021 1725.149,609.298 " />
<polygon stroke="black" stroke-width="1" fill="rgb(204, 204, 204)" fill-opacity="0.25" points="1886.577,586.316 1845.705,521.028 1753.379,528.333 1730.230,598.989 " />
<polygon stroke="black" stroke-width="1" fill="rgb(204, 204, 204)" fill-opacity="0.25" points="1843.968,682.058 1908.509,743.768 1983.267,726.358 1881.903,615.021 " />
<polygon stroke="black" stroke-width="1" fill="rgb(204, 204, 204)" fill-opacity="0.25" points="1982.900,470.589 1907.442,456.514 1845.705,521.028 1886.577,586.316 " />
<polygon stroke="black" stroke-width="1" fill="rgb(204, 204, 204)" fill-opacity="0.25" points="1823.691,733.370 1855.246,762.057 1908.509,743.768 1843.968,682.058 " />
<polygon stroke="black" stroke-width="1" fill="rgb(204, 204, 204)" fill-opacity="0.25" points="1907.442,456.514 1853.420,440.607 1823.168,470.665 1845.705,521.028 " />
<polygon stroke="black" stroke-width="1" fill="rgb(204, 204, 204)" fill-opacity="0.25" points="1855.246,762.057 1855.963,807.440 1912.252,833.460 1908.509,743.768 " />
<polygon stroke="black" stroke-width="1" fill="rgb(204, 204, 204)" fill-opacity="0.25" points="1907.200,366.744 1852.123,395.237 1853.420,440.607 1907.442,456.514 " />
<polygon stroke="black" stroke-width="1" fill="rgb(204, 204, 204)" fill-opacity="0.25" points="1908.509,743.768 1912.252,833.460 1983.267,872.833 1983.267,726.358 " />
<polygon stroke="black" stroke-width="1" fill="rgb(204, 204, 204)" fill-opacity="0.25" points="1976.398,324.258 1907.200,366.744 1907.442,456.514 1982.900,470.589 " />
<polygon stroke="black" stroke-width="1" fill="rgb(204, 204, 204)" fill-opacity="0.25" points="1912.252,833.460 1852.561,902.341 1884.500,973.730 1983.267,872.833 " />
<polygon stroke="black" stroke-width="1" fill="rgb(204, 204, 204)" fill-opacity="0.25" points="1873.248,227.844 1844.511,300.581 1907.200,366.744 1976.398,324.258 " />
<polygon stroke="black" stroke-width="1" fill="rgb(204, 204, 204)" fill-opacity="0.25" points="1855.963,807.440 1824.676,839.551 1852.561,902.341 1912.252,833.460 " />
<polygon stroke="black" stroke-width="1" fill="rgb(204, 204, 204)" fill-opacity="0.25" points="1844.511,300.581 1819.439,364.546 1852.123,395.237 1907.200,366.744 " />
<polygon stroke="black" stroke-width="1" fill="rgb(204, 204, 204)" fill-opacity="0.25" points="1824.676,839.551 1855.963,807.440 1848.031,803.002 1821.882,832.973 " />
<polygon stroke="black" stroke-width="1" fill="rgb(204, 204, 204)" fill-opacity="0.25" points="1844.394,400.021 1852.123,395.237 1819.439,364.546 1816.941,371.243 " />
<polygon stroke="black" stroke-width="1" fill="rgb(204, 204, 204)" fill-opacity="0.25" points="1855.963,807.440 1855.246,762.057 1842.751,765.426 1848.031,803.002 " />
<polygon stroke="black" stroke-width="1" fill="rgb(204, 204, 204)" fill-opacity="0.25" points="1840.787,437.795 1853.420,440.607 1852.123,395.237 1844.394,400.021 " />
<polygon stroke="black" stroke-width="1" fill="rgb(204, 204, 204)" fill-opacity="0.25" points="1855.246,762.057 1823.691,733.370 1818.300,744.393 1842.751,765.426 " />
<polygon stroke="black" stroke-width="1" fill="rgb(204, 204, 204)" fill-opacity="0.25" points="1817.295,459.895 1823.168,470.665 1853.420,440.607 1840.787,437.795 " />
<polygon stroke="black" stroke-width="1" fill="rgb(204, 204, 204)" fill-opacity="0.25" points="1823.691,733.370 1776.656,732.588 1783.620,747.018 1818.300,744.393 " />
<polygon stroke="black" stroke-width="1" fill="rgb(204, 204, 204)" fill-opacity="0.25" points="1782.530,458.809 1776.216,473.534 1823.168,470.665 1817.295,459.895 " />
<polygon stroke="black" stroke-width="1" fill="rgb(204, 204, 204)" fill-opacity="0.25" points="1776.656,732.588 1749.211,767.060 1761.036,770.167 1783.620,747.018 " />
<polygon stroke="black" stroke-width="1" fill="rgb(204, 204, 204)" fill-opacity="0.25" points="1758.943,436.687 1747.266,440.316 1776.216,473.534 1782.530,458.809 " />
<polygon stroke="black" stroke-width="1" fill="rgb(204, 204, 204)" fill-opacity="0.25" points="1749.211,767.060 1749.815,809.464 1760.592,802.435 1761.036,770.167 " />
<polygon stroke="black" stroke-width="1" fill="rgb(204, 204, 204)" fill-opacity="0.25" points="1757.065,404.470 1745.990,397.926 1747.266,440.316 1758.943,436.687 " />
<polygon stroke="black" stroke-width="1" fill="rgb(204, 204, 204)" fill-opacity="0.25" points="1749.815,809.464 1783.034,840.399 1785.168,831.568 1760.592,802.435 " />
<polygon stroke="black" stroke-width="1" fill="rgb(204, 204, 204)" fill-opacity="0.25" points="1780.324,374.274 1777.801,365.547 1745.990,397.926 1757.065,404.470 " />
<polygon stroke="black" stroke-width="1" fill="rgb(204, 204, 204)" fill-opacity="0.25" points="1783.034,840.399 1824.676,839.551 1821.882,832.973 1785.168,831.568 " />
<polygon stroke="black" stroke-width="1" fill="rgb(204, 204, 204)" fill-opacity="0.25" points="1816.941,371.243 1819.439,364.546 1777.801,365.547 1780.324,374.274 " />
<polygon stroke="black" stroke-width="1" fill="rgb(204, 204, 204)" fill-opacity="0.25" points="1801.011,785.383 1785.168,831.568 1821.882,832.973 " />
<polygon stroke="black" stroke-width="1" fill="rgb(204, 204, 204)" fill-opacity="0.25" points="1816.941,371.243 1780.324,374.274 1798.203,419.711 " />
<polygon stroke="black" stroke-width="1" fill="rgb(204, 204, 204)" fill-opacity="0.25" points="1760.592,802.435 1785.168,831.568 1801.011,785.383 " />
<polygon stroke="black" stroke-width="1" fill="rgb(204, 204, 204)" fill-opacity="0.25" points="1798.203,419.711 1780.324,374.274 1757.065,404.470 " />
<polygon stroke="black" stroke-width="1" fill="rgb(204, 204, 204)" fill-opacity="0.25" points="1801.011,785.383 1761.036,770.167 1760.592,802.435 " />
<polygon stroke="black" stroke-width="1" fill="rgb(204, 204, 204)" fill-opacity="0.25" points="1757.065,404.470 1758.943,436.687 1798.203,419.711 " />
<polygon stroke="black" stroke-width="1" fill="rgb(204, 204, 204)" fill-opacity="0.25" points="1801.011,785.383 1783.620,747.018 1761.036,770.167 " />
<polygon stroke="black" stroke-width="1" fill="rgb(204, 204, 204)" fill-opacity="0.25" points="1758.943,436.687 1782.530,458.809 1798.203,419.711 " />
<polygon stroke="black" stroke-width="1" fill="rgb(204, 204, 204)" fill-opacity="0.25" points="1801.011,785.383 1818.300,744.393 1783.620,747.018 " />
<polygon stroke="black" stroke-width="1" fill="rgb(204, 204, 204)" fill-opacity="0.25" points="1782.530,458.809 1817.295,459.895 1798.203,419.711 " />
<polygon stroke="black" stroke-width="1" fill="rgb(204, 204, 204)" fill-opacity="0.25" points="1801.011,785.383 1842.751,765.426 1818.300,744.393 " />
<polygon stroke="black" stroke-width="1" fill="rgb(204, 204, 204)" fill-opacity="0.25" points="1817.295,459.895 1840.787,437.795 1798.203,419.711 " />
<polygon stroke="black" stroke-width="1" fill="rgb(204, 204, 204)" fill-opacity="0.25" points="1801.011,785.383 1848.031,803.002 1842.751,765.426 " />
<polygon stroke="black" stroke-width="1" fill="rgb(204, 204, 204)" fill-opacity="0.25" points="1840.787,437.795 1844.394,400.021 1798.203,419.711 " />
<polygon stroke="black" stroke-width="1" fill="rgb(204, 204, 204)" fill-opacity="0.25" points="1801.011,785.383 1821.882,832.973 1848.031,803.002 " />
<polygon stroke="black" stroke-width="1" fill="rgb(204, 204, 204)" fill-opacity="0.25" points="1844.394,400.021 1816.941,371.243 1798.203,419.711 " />
<polygon stroke="black" stroke-width="1" fill="rgb(204, 204, 204)" fill-opacity="0.25" points="1106.453,1937.807 1098.586,1920.877 1062.758,1925.773 1062.740,1944.998 " />
<polygon stroke="black" stroke-width="1" fill="rgb(204, 204, 204)" fill-opacity="0.25" points="1062.758,1925.773 1026.974,1920.936 1019.138,1937.879 1062.740,1944.998 " />
<polygon stroke="black" stroke-width="1" fill="rgb(204, 204, 204)" fill-opacity="0.25" points="1130.353,1928.524 1111.630,1916.746 1098.586,1920.877 1106.453,1937.807 " />
<polygon stroke="black" stroke-width="1" fill="rgb(204, 204, 204)" fill-opacity="0.25" points="1026.974,1920.936 1013.930,1916.832 995.236,1928.657 1019.138,1937.879 " />
<polygon stroke="black" stroke-width="1" fill="rgb(204, 204, 204)" fill-opacity="0.25" points="1136.790,1921.229 1118.802,1899.174 1111.630,1916.746 1130.353,1928.524 " />
<polygon stroke="black" stroke-width="1" fill="rgb(204, 204, 204)" fill-opacity="0.25" points="1013.930,1916.832 1006.725,1899.264 988.785,1921.374 995.236,1928.657 " />
<polygon stroke="black" stroke-width="1" fill="rgb(204, 204, 204)" fill-opacity="0.25" points="1154.687,1891.152 1122.986,1874.139 1118.802,1899.174 1136.790,1921.229 " />
<polygon stroke="black" stroke-width="1" fill="rgb(204, 204, 204)" fill-opacity="0.25" points="1006.725,1899.264 1002.510,1874.211 970.781,1891.305 988.785,1921.374 " />
<polygon stroke="black" stroke-width="1" fill="rgb(204, 204, 204)" fill-opacity="0.25" points="1194.260,1825.802 1137.912,1798.658 1122.986,1874.139 1154.687,1891.152 " />
<polygon stroke="black" stroke-width="1" fill="rgb(204, 204, 204)" fill-opacity="0.25" points="1002.510,1874.211 987.498,1798.593 930.871,1825.831 970.781,1891.305 " />
<polygon stroke="black" stroke-width="1" fill="rgb(204, 204, 204)" fill-opacity="0.25" points="1240.089,1709.806 1325.865,1637.372 1272.859,1581.429 1132.786,1618.741 " />
<polygon stroke="black" stroke-width="1" fill="rgb(204, 204, 204)" fill-opacity="0.25" points="853.021,1578.004 798.058,1634.529 884.785,1708.761 993.974,1617.811 " />
<polygon stroke="black" stroke-width="1" fill="rgb(204, 204, 204)" fill-opacity="0.25" points="1325.865,1637.372 1385.224,1570.322 1361.431,1529.395 1272.859,1581.429 " />
<polygon stroke="black" stroke-width="1" fill="rgb(204, 204, 204)" fill-opacity="0.25" points="763.386,1522.981 737.911,1564.879 798.058,1634.529 853.021,1578.004 " />
<polygon stroke="black" stroke-width="1" fill="rgb(204, 204, 204)" fill-opacity="0.25" points="1385.224,1570.322 1465.020,1504.477 1400.644,1474.570 1361.431,1529.395 " />
<polygon stroke="black" stroke-width="1" fill="rgb(204, 204, 204)" fill-opacity="0.25" points="724.369,1465.127 656.286,1494.419 737.911,1564.879 763.386,1522.981 " />
<polygon stroke="black" stroke-width="1" fill="rgb(204, 204, 204)" fill-opacity="0.25" points="1465.020,1504.477 1448.456,1413.009 1408.031,1409.968 1400.644,1474.570 " />
<polygon stroke="black" stroke-width="1" fill="rgb(204, 204, 204)" fill-opacity="0.25" points="719.231,1397.883 677.317,1399.085 656.286,1494.419 724.369,1465.127 " />
<polygon stroke="black" stroke-width="1" fill="rgb(204, 204, 204)" fill-opacity="0.25" points="1448.456,1413.009 1428.369,1366.686 1386.135,1384.577 1408.031,1409.968 " />
<polygon stroke="black" stroke-width="1" fill="rgb(204, 204, 204)" fill-opacity="0.25" points="742.857,1372.729 700.342,1352.362 677.317,1399.085 719.231,1397.883 " />
<polygon stroke="black" stroke-width="1" fill="rgb(204, 204, 204)" fill-opacity="0.25" points="1428.369,1366.686 1357.449,1285.077 1308.774,1316.188 1386.135,1384.577 " />
<polygon stroke="black" stroke-width="1" fill="rgb(204, 204, 204)" fill-opacity="0.25" points="824.877,1306.356 776.800,1272.451 700.342,1352.362 742.857,1372.729 " />
<polygon stroke="black" stroke-width="1" fill="rgb(204, 204, 204)" fill-opacity="0.25" points="1357.449,1285.077 1283.772,1237.418 1266.311,1279.691 1308.774,1316.188 " />
<polygon stroke="black" stroke-width="1" fill="rgb(204, 204, 204)" fill-opacity="0.25" points="869.546,1271.261 853.842,1227.669 776.800,1272.451 824.877,1306.356 " />
<polygon stroke="black" stroke-width="1" fill="rgb(204, 204, 204)" fill-opacity="0.25" points="1283.772,1237.418 1238.684,1233.297 1230.455,1274.149 1266.311,1279.691 " />
<polygon stroke="black" stroke-width="1" fill="rgb(204, 204, 204)" fill-opacity="0.25" points="906.027,1267.257 899.588,1225.646 853.842,1227.669 869.546,1271.261 " />
<polygon stroke="black" stroke-width="1" fill="rgb(204, 204, 204)" fill-opacity="0.25" points="1238.684,1233.297 1132.739,1248.231 1146.212,1316.841 1230.455,1274.149 " />
<polygon stroke="black" stroke-width="1" fill="rgb(204, 204, 204)" fill-opacity="0.25" points="989.057,1313.798 1005.433,1245.467 899.588,1225.646 906.027,1267.257 " />
<polygon stroke="black" stroke-width="1" fill="rgb(204, 204, 204)" fill-opacity="0.25" points="1132.739,1248.231 1068.898,1257.454 1067.184,1343.758 1146.212,1316.841 " />
<polygon stroke="black" stroke-width="1" fill="rgb(204, 204, 204)" fill-opacity="0.25" points="1067.184,1343.758 1068.898,1257.454 1005.433,1245.467 989.057,1313.798 " />
<polygon stroke="black" stroke-width="1" fill="rgb(204, 204, 204)" fill-opacity="0.25" points="1182.267,1351.361 1228.483,1341.819 1230.455,1274.149 1146.212,1316.841 " />
<polygon stroke="black" stroke-width="1" fill="rgb(204, 204, 204)" fill-opacity="0.25" points="906.027,1267.257 905.169,1335.675 951.458,1347.113 989.057,1313.798 " />
<polygon stroke="black" stroke-width="1" fill="rgb(204, 204, 204)" fill-opacity="0.25" points="1228.483,1341.819 1260.638,1347.574 1266.311,1279.691 1230.455,1274.149 " />
<polygon stroke="black" stroke-width="1" fill="rgb(204, 204, 204)" fill-opacity="0.25" points="869.546,1271.261 872.391,1340.248 905.169,1335.675 906.027,1267.257 " />
<polygon stroke="black" stroke-width="1" fill="rgb(204, 204, 204)" fill-opacity="0.25" points="1299.399,1367.427 1308.774,1316.188 1266.311,1279.691 1260.638,1347.574 " />
<polygon stroke="black" stroke-width="1" fill="rgb(204, 204, 204)" fill-opacity="0.25" points="869.546,1271.261 824.877,1306.356 832.229,1358.889 872.391,1340.248 " />
<polygon stroke="black" stroke-width="1" fill="rgb(204, 204, 204)" fill-opacity="0.25" points="1356.608,1407.377 1386.135,1384.577 1308.774,1316.188 1299.399,1367.427 " />
<polygon stroke="black" stroke-width="1" fill="rgb(204, 204, 204)" fill-opacity="0.25" points="824.877,1306.356 742.857,1372.729 772.221,1397.381 832.229,1358.889 " />
<polygon stroke="black" stroke-width="1" fill="rgb(204, 204, 204)" fill-opacity="0.25" points="1368.965,1437.782 1408.031,1409.968 1386.135,1384.577 1356.608,1407.377 " />
<polygon stroke="black" stroke-width="1" fill="rgb(204, 204, 204)" fill-opacity="0.25" points="742.857,1372.729 719.231,1397.883 758.383,1428.185 772.221,1397.381 " />
<polygon stroke="black" stroke-width="1" fill="rgb(204, 204, 204)" fill-opacity="0.25" points="1360.079,1478.918 1400.644,1474.570 1408.031,1409.968 1368.965,1437.782 " />
<polygon stroke="black" stroke-width="1" fill="rgb(204, 204, 204)" fill-opacity="0.25" points="719.231,1397.883 724.369,1465.127 766.157,1470.919 758.383,1428.185 " />
<polygon stroke="black" stroke-width="1" fill="rgb(204, 204, 204)" fill-opacity="0.25" points="1309.155,1529.760 1361.431,1529.395 1400.644,1474.570 1360.079,1478.918 " />
<polygon stroke="black" stroke-width="1" fill="rgb(204, 204, 204)" fill-opacity="0.25" points="724.369,1465.127 763.386,1522.981 817.025,1524.464 766.157,1470.919 " />
<polygon stroke="black" stroke-width="1" fill="rgb(204, 204, 204)" fill-opacity="0.25" points="1257.456,1551.028 1272.859,1581.429 1361.431,1529.395 1309.155,1529.760 " />
<polygon stroke="black" stroke-width="1" fill="rgb(204, 204, 204)" fill-opacity="0.25" points="763.386,1522.981 853.021,1578.004 869.302,1547.319 817.025,1524.464 " />
<polygon stroke="black" stroke-width="1" fill="rgb(204, 204, 204)" fill-opacity="0.25" points="1173.383,1518.461 1132.786,1618.741 1272.859,1581.429 1257.456,1551.028 " />
<polygon stroke="black" stroke-width="1" fill="rgb(204, 204, 204)" fill-opacity="0.25" points="853.021,1578.004 993.974,1617.811 955.206,1516.116 869.302,1547.319 " />
<polygon stroke="black" stroke-width="1" fill="rgb(204, 204, 204)" fill-opacity="0.25" points="1173.383,1518.461 1154.877,1490.930 1064.469,1538.327 1132.786,1618.741 " />
<polygon stroke="black" stroke-width="1" fill="rgb(204, 204, 204)" fill-opacity="0.25" points="1064.469,1538.327 974.615,1488.736 955.206,1516.116 993.974,1617.811 " />
<polygon stroke="black" stroke-width="1" fill="rgb(204, 204, 204)" fill-opacity="0.25" points="1182.267,1351.361 1146.212,1316.841 1067.184,1343.758 1143.863,1399.615 " />
<polygon stroke="black" stroke-width="1" fill="rgb(204, 204, 204)" fill-opacity="0.25" points="1067.184,1343.758 989.057,1313.798 951.458,1347.113 988.404,1397.058 " />
<polygon stroke="black" stroke-width="1" fill="rgb(204, 204, 204)" fill-opacity="0.25" points="1143.863,1399.615 1067.184,1343.758 1065.527,1444.323 1140.578,1451.594 " />
<polygon stroke="black" stroke-width="1" fill="rgb(204, 204, 204)" fill-opacity="0.25" points="1065.527,1444.323 1067.184,1343.758 988.404,1397.058 990.071,1449.474 " />
<polygon stroke="black" stroke-width="1" fill="rgb(204, 204, 204)" fill-opacity="0.25" points="1064.469,1538.327 1154.877,1490.930 1140.578,1451.594 1065.527,1444.323 " />
<polygon stroke="black" stroke-width="1" fill="rgb(204, 204, 204)" fill-opacity="0.25" points="990.071,1449.474 974.615,1488.736 1064.469,1538.327 1065.527,1444.323 " />
<polygon stroke="black" stroke-width="1" fill="rgb(204, 204, 204)" fill-opacity="0.25" points="1076.189,1906.756 1062.765,1908.943 1062.758,1925.773 1098.586,1920.877 " />
<polygon stroke="black" stroke-width="1" fill="rgb(204, 204, 204)" fill-opacity="0.25" points="1062.758,1925.773 1062.765,1908.943 1049.344,1906.778 1026.974,1920.936 " />
<polygon stroke="black" stroke-width="1" fill="rgb(204, 204, 204)" fill-opacity="0.25" points="1087.961,1896.798 1076.189,1906.756 1098.586,1920.877 1111.630,1916.746 " />
<polygon stroke="black" stroke-width="1" fill="rgb(204, 204, 204)" fill-opacity="0.25" points="1026.974,1920.936 1049.344,1906.778 1037.570,1896.835 1013.930,1916.832 " />
<polygon stroke="black" stroke-width="1" fill="rgb(204, 204, 204)" fill-opacity="0.25" points="1087.527,1868.941 1087.961,1896.798 1111.630,1916.746 1118.802,1899.174 " />
<polygon stroke="black" stroke-width="1" fill="rgb(204, 204, 204)" fill-opacity="0.25" points="1013.930,1916.832 1037.570,1896.835 1037.982,1868.972 1006.725,1899.264 " />
<polygon stroke="black" stroke-width="1" fill="rgb(204, 204, 204)" fill-opacity="0.25" points="1137.912,1798.658 1089.622,1786.444 1090.906,1861.796 1122.986,1874.139 " />
<polygon stroke="black" stroke-width="1" fill="rgb(204, 204, 204)" fill-opacity="0.25" points="1034.603,1861.820 1035.936,1786.413 987.498,1798.593 1002.510,1874.211 " />
<polygon stroke="black" stroke-width="1" fill="rgb(204, 204, 204)" fill-opacity="0.25" points="1087.527,1868.941 1118.802,1899.174 1122.986,1874.139 1090.906,1861.796 " />
<polygon stroke="black" stroke-width="1" fill="rgb(204, 204, 204)" fill-opacity="0.25" points="1002.510,1874.211 1006.725,1899.264 1037.982,1868.972 1034.603,1861.820 " />
<polygon stroke="black" stroke-width="1" fill="rgb(204, 204, 204)" fill-opacity="0.25" points="1102.053,1723.634 1062.873,1737.218 1062.791,1785.123 1089.622,1786.444 " />
<polygon stroke="black" stroke-width="1" fill="rgb(204, 204, 204)" fill-opacity="0.25" points="1062.791,1785.123 1062.873,1737.218 1023.695,1723.527 1035.936,1786.413 " />
<polygon stroke="black" stroke-width="1" fill="rgb(204, 204, 204)" fill-opacity="0.25" points="1090.906,1861.796 1089.622,1786.444 1062.791,1785.123 1062.758,1855.586 " />
<polygon stroke="black" stroke-width="1" fill="rgb(204, 204, 204)" fill-opacity="0.25" points="1062.791,1785.123 1035.936,1786.413 1034.603,1861.820 1062.758,1855.586 " />
<polygon stroke="black" stroke-width="1" fill="rgb(204, 204, 204)" fill-opacity="0.25" points="1062.762,1873.551 1087.527,1868.941 1090.906,1861.796 1062.758,1855.586 " />
<polygon stroke="black" stroke-width="1" fill="rgb(204, 204, 204)" fill-opacity="0.25" points="1034.603,1861.820 1037.982,1868.972 1062.762,1873.551 1062.758,1855.586 " />
<polygon stroke="black" stroke-width="1" fill="rgb(204, 204, 204)" fill-opacity="0.25" points="1123.045,1692.549 1101.740,1687.622 1096.118,1706.377 1102.053,1723.634 " />
<polygon stroke="black" stroke-width="1" fill="rgb(204, 204, 204)" fill-opacity="0.25" points="1029.732,1706.277 1024.205,1687.484 1002.871,1692.277 1023.695,1723.527 " />
<polygon stroke="black" stroke-width="1" fill="rgb(204, 204, 204)" fill-opacity="0.25" points="1114.688,1651.986 1100.284,1663.842 1101.740,1687.622 1123.045,1692.549 " />
<polygon stroke="black" stroke-width="1" fill="rgb(204, 204, 204)" fill-opacity="0.25" points="1024.205,1687.484 1025.823,1663.855 1011.704,1651.859 1002.871,1692.277 " />
<polygon stroke="black" stroke-width="1" fill="rgb(204, 204, 204)" fill-opacity="0.25" points="1064.634,1636.674 1082.894,1655.224 1100.284,1663.842 1114.688,1651.986 " />
<polygon stroke="black" stroke-width="1" fill="rgb(204, 204, 204)" fill-opacity="0.25" points="1025.823,1663.855 1042.880,1655.550 1064.634,1636.674 1011.704,1651.859 " />
<polygon stroke="black" stroke-width="1" fill="rgb(204, 204, 204)" fill-opacity="0.25" points="1059.998,1657.637 1063.182,1668.338 1082.894,1655.224 1064.634,1636.674 " />
<polygon stroke="black" stroke-width="1" fill="rgb(204, 204, 204)" fill-opacity="0.25" points="1042.880,1655.550 1063.182,1668.338 1059.998,1657.637 1064.634,1636.674 " />
<polygon stroke="black" stroke-width="1" fill="rgb(204, 204, 204)" fill-opacity="0.25" points="1062.873,1737.218 1102.053,1723.634 1096.118,1706.377 1062.908,1722.311 " />
<polygon stroke="black" stroke-width="1" fill="rgb(204, 204, 204)" fill-opacity="0.25" points="1029.732,1706.277 1023.695,1723.527 1062.873,1737.218 1062.908,1722.311 " />
<polygon stroke="black" stroke-width="1" fill="rgb(204, 204, 204)" fill-opacity="0.25" points="1062.908,1722.311 1096.118,1706.377 1087.756,1696.500 1062.945,1708.853 " />
<polygon stroke="black" stroke-width="1" fill="rgb(204, 204, 204)" fill-opacity="0.25" points="1038.152,1696.426 1029.732,1706.277 1062.908,1722.311 1062.945,1708.853 " />
<polygon stroke="black" stroke-width="1" fill="rgb(204, 204, 204)" fill-opacity="0.25" points="1063.182,1668.338 1063.115,1680.472 1081.799,1666.425 1082.894,1655.224 " />
<polygon stroke="black" stroke-width="1" fill="rgb(204, 204, 204)" fill-opacity="0.25" points="1044.044,1666.540 1063.115,1680.472 1063.182,1668.338 1042.880,1655.550 " />
<polygon stroke="black" stroke-width="1" fill="rgb(204, 204, 204)" fill-opacity="0.25" points="1082.894,1655.224 1081.799,1666.425 1092.665,1670.728 1100.284,1663.842 " />
<polygon stroke="black" stroke-width="1" fill="rgb(204, 204, 204)" fill-opacity="0.25" points="1033.312,1670.746 1044.044,1666.540 1042.880,1655.550 1025.823,1663.855 " />
<polygon stroke="black" stroke-width="1" fill="rgb(204, 204, 204)" fill-opacity="0.25" points="1100.284,1663.842 1092.665,1670.728 1092.504,1686.039 1101.740,1687.622 " />
<polygon stroke="black" stroke-width="1" fill="rgb(204, 204, 204)" fill-opacity="0.25" points="1033.429,1685.932 1033.312,1670.746 1025.823,1663.855 1024.205,1687.484 " />
<polygon stroke="black" stroke-width="1" fill="rgb(204, 204, 204)" fill-opacity="0.25" points="1101.740,1687.622 1092.504,1686.039 1087.756,1696.500 1096.118,1706.377 " />
<polygon stroke="black" stroke-width="1" fill="rgb(204, 204, 204)" fill-opacity="0.25" points="1038.152,1696.426 1033.429,1685.932 1024.205,1687.484 1029.732,1706.277 " />
<polygon stroke="black" stroke-width="1" fill="rgb(204, 204, 204)" fill-opacity="0.25" points="1063.115,1680.472 1092.504,1686.039 1092.665,1670.728 1081.799,1666.425 " />
<polygon stroke="black" stroke-width="1" fill="rgb(204, 204, 204)" fill-opacity="0.25" points="1033.312,1670.746 1033.429,1685.932 1063.115,1680.472 1044.044,1666.540 " />
<polygon stroke="black" stroke-width="1" fill="rgb(204, 204, 204)" fill-opacity="0.25" points="1063.115,1680.472 1062.945,1708.853 1087.756,1696.500 1092.504,1686.039 " />
<polygon stroke="black" stroke-width="1" fill="rgb(204, 204, 204)" fill-opacity="0.25" points="1038.152,1696.426 1062.945,1708.853 1063.115,1680.472 1033.429,1685.932 " />
<polygon stroke="black" stroke-width="1" fill="rgb(204, 204, 204)" fill-opacity="0.25" points="1064.634,1636.674 1114.688,1651.986 1132.786,1618.741 1064.469,1538.327 " />
<polygon stroke="black" stroke-width="1" fill="rgb(204, 204, 204)" fill-opacity="0.25" points="993.974,1617.811 1011.704,1651.859 1064.634,1636.674 1064.469,1538.327 " />
<polygon stroke="black" stroke-width="1" fill="rgb(204, 204, 204)" fill-opacity="0.25" points="1114.688,1651.986 1123.045,1692.549 1150.099,1704.389 1132.786,1618.741 " />
<polygon stroke="black" stroke-width="1" fill="rgb(204, 204, 204)" fill-opacity="0.25" points="975.591,1703.944 1002.871,1692.277 1011.704,1651.859 993.974,1617.811 " />
<polygon stroke="black" stroke-width="1" fill="rgb(204, 204, 204)" fill-opacity="0.25" points="1123.045,1692.549 1102.053,1723.634 1145.805,1742.195 1150.099,1704.389 " />
<polygon stroke="black" stroke-width="1" fill="rgb(204, 204, 204)" fill-opacity="0.25" points="979.704,1741.933 1023.695,1723.527 1002.871,1692.277 975.591,1703.944 " />
<polygon stroke="black" stroke-width="1" fill="rgb(204, 204, 204)" fill-opacity="0.25" points="1102.053,1723.634 1089.622,1786.444 1137.912,1798.658 1145.805,1742.195 " />
<polygon stroke="black" stroke-width="1" fill="rgb(204, 204, 204)" fill-opacity="0.25" points="987.498,1798.593 1035.936,1786.413 1023.695,1723.527 979.704,1741.933 " />
<polygon stroke="black" stroke-width="1" fill="rgb(204, 204, 204)" fill-opacity="0.25" points="1194.260,1825.802 1220.891,1774.744 1145.805,1742.195 1137.912,1798.658 " />
<polygon stroke="black" stroke-width="1" fill="rgb(204, 204, 204)" fill-opacity="0.25" points="979.704,1741.933 903.977,1774.404 930.871,1825.831 987.498,1798.593 " />
<polygon stroke="black" stroke-width="1" fill="rgb(204, 204, 204)" fill-opacity="0.25" points="1220.891,1774.744 1231.194,1745.132 1150.099,1704.389 1145.805,1742.195 " />
<polygon stroke="black" stroke-width="1" fill="rgb(204, 204, 204)" fill-opacity="0.25" points="975.591,1703.944 893.618,1744.499 903.977,1774.404 979.704,1741.933 " />
<polygon stroke="black" stroke-width="1" fill="rgb(204, 204, 204)" fill-opacity="0.25" points="1240.089,1709.806 1132.786,1618.741 1150.099,1704.389 1231.194,1745.132 " />
<polygon stroke="black" stroke-width="1" fill="rgb(204, 204, 204)" fill-opacity="0.25" points="975.591,1703.944 993.974,1617.811 884.785,1708.761 893.618,1744.499 " />
<polygon stroke="black" stroke-width="1" fill="rgb(204, 204, 204)" fill-opacity="0.25" points="1087.527,1868.941 1062.762,1873.551 1062.758,1876.244 1083.255,1874.008 " />
<polygon stroke="black" stroke-width="1" fill="rgb(204, 204, 204)" fill-opacity="0.25" points="1062.758,1876.244 1062.762,1873.551 1037.982,1868.972 1042.258,1874.033 " />
<polygon stroke="black" stroke-width="1" fill="rgb(204, 204, 204)" fill-opacity="0.25" points="1087.961,1896.798 1087.527,1868.941 1083.255,1874.008 1083.466,1893.521 " />
<polygon stroke="black" stroke-width="1" fill="rgb(204, 204, 204)" fill-opacity="0.25" points="1042.258,1874.033 1037.982,1868.972 1037.570,1896.835 1042.063,1893.550 " />
<polygon stroke="black" stroke-width="1" fill="rgb(204, 204, 204)" fill-opacity="0.25" points="1076.189,1906.756 1087.961,1896.798 1083.466,1893.521 1072.642,1903.600 " />
<polygon stroke="black" stroke-width="1" fill="rgb(204, 204, 204)" fill-opacity="0.25" points="1042.063,1893.550 1037.570,1896.835 1049.344,1906.778 1052.889,1903.614 " />
<polygon stroke="black" stroke-width="1" fill="rgb(204, 204, 204)" fill-opacity="0.25" points="1062.765,1908.943 1076.189,1906.756 1072.642,1903.600 1062.767,1905.730 " />
<polygon stroke="black" stroke-width="1" fill="rgb(204, 204, 204)" fill-opacity="0.25" points="1052.889,1903.614 1049.344,1906.778 1062.765,1908.943 1062.767,1905.730 " />
<polygon stroke="black" stroke-width="1" fill="rgb(204, 204, 204)" fill-opacity="0.25" points="1062.767,1905.730 1072.642,1903.600 1068.155,1894.461 1062.765,1895.918 " />
<polygon stroke="black" stroke-width="1" fill="rgb(204, 204, 204)" fill-opacity="0.25" points="1057.376,1894.470 1052.889,1903.614 1062.767,1905.730 1062.765,1895.918 " />
<polygon stroke="black" stroke-width="1" fill="rgb(204, 204, 204)" fill-opacity="0.25" points="1072.642,1903.600 1083.466,1893.521 1073.635,1890.937 1068.155,1894.461 " />
<polygon stroke="black" stroke-width="1" fill="rgb(204, 204, 204)" fill-opacity="0.25" points="1051.892,1890.951 1042.063,1893.550 1052.889,1903.614 1057.376,1894.470 " />
<polygon stroke="black" stroke-width="1" fill="rgb(204, 204, 204)" fill-opacity="0.25" points="1083.466,1893.521 1083.255,1874.008 1074.383,1884.393 1073.635,1890.937 " />
<polygon stroke="black" stroke-width="1" fill="rgb(204, 204, 204)" fill-opacity="0.25" points="1051.140,1884.408 1042.258,1874.033 1042.063,1893.550 1051.892,1890.951 " />
<polygon stroke="black" stroke-width="1" fill="rgb(204, 204, 204)" fill-opacity="0.25" points="1083.255,1874.008 1062.758,1876.244 1062.760,1885.530 1074.383,1884.393 " />
<polygon stroke="black" stroke-width="1" fill="rgb(204, 204, 204)" fill-opacity="0.25" points="1062.760,1885.530 1062.758,1876.244 1042.258,1874.033 1051.140,1884.408 " />
<polygon stroke="black" stroke-width="1" fill="rgb(204, 204, 204)" fill-opacity="0.25" points="1062.760,1885.530 1062.765,1895.918 1068.155,1894.461 1074.383,1884.393 " />
<polygon stroke="black" stroke-width="1" fill="rgb(204, 204, 204)" fill-opacity="0.25" points="1057.376,1894.470 1062.765,1895.918 1062.760,1885.530 1051.140,1884.408 " />
<polygon stroke="black" stroke-width="1" fill="rgb(204, 204, 204)" fill-opacity="0.25" points="1074.383,1884.393 1068.155,1894.461 1073.635,1890.937 " />
<polygon stroke="black" stroke-width="1" fill="rgb(204, 204, 204)" fill-opacity="0.25" points="1051.892,1890.951 1057.376,1894.470 1051.140,1884.408 " />
<polygon stroke="black" stroke-width="1" fill="rgb(204, 204, 204)" fill-opacity="0.25" points="1140.578,1451.594 1154.877,1490.930 1171.020,1480.100 1163.983,1448.133 " />
<polygon stroke="black" stroke-width="1" fill="rgb(204, 204, 204)" fill-opacity="0.25" points="958.607,1477.392 974.615,1488.736 990.071,1449.474 966.611,1445.310 " />
<polygon stroke="black" stroke-width="1" fill="rgb(204, 204, 204)" fill-opacity="0.25" points="1143.863,1399.615 1140.578,1451.594 1163.983,1448.133 1173.678,1410.281 " />
<polygon stroke="black" stroke-width="1" fill="rgb(204, 204, 204)" fill-opacity="0.25" points="966.611,1445.310 990.071,1449.474 988.404,1397.058 958.034,1406.810 " />
<polygon stroke="black" stroke-width="1" fill="rgb(204, 204, 204)" fill-opacity="0.25" points="1182.267,1351.361 1143.863,1399.615 1173.678,1410.281 1197.783,1376.854 " />
<polygon stroke="black" stroke-width="1" fill="rgb(204, 204, 204)" fill-opacity="0.25" points="958.034,1406.810 988.404,1397.058 951.458,1347.113 934.865,1372.240 " />
<polygon stroke="black" stroke-width="1" fill="rgb(204, 204, 204)" fill-opacity="0.25" points="1154.877,1490.930 1173.383,1518.461 1189.343,1501.962 1171.020,1480.100 " />
<polygon stroke="black" stroke-width="1" fill="rgb(204, 204, 204)" fill-opacity="0.25" points="939.493,1499.036 955.206,1516.116 974.615,1488.736 958.607,1477.392 " />
<polygon stroke="black" stroke-width="1" fill="rgb(204, 204, 204)" fill-opacity="0.25" points="1173.383,1518.461 1257.456,1551.028 1252.803,1524.275 1189.343,1501.962 " />
<polygon stroke="black" stroke-width="1" fill="rgb(204, 204, 204)" fill-opacity="0.25" points="874.623,1520.173 869.302,1547.319 955.206,1516.116 939.493,1499.036 " />
<polygon stroke="black" stroke-width="1" fill="rgb(204, 204, 204)" fill-opacity="0.25" points="1257.456,1551.028 1309.155,1529.760 1295.348,1509.677 1252.803,1524.275 " />
<polygon stroke="black" stroke-width="1" fill="rgb(204, 204, 204)" fill-opacity="0.25" points="831.627,1504.240 817.025,1524.464 869.302,1547.319 874.623,1520.173 " />
<polygon stroke="black" stroke-width="1" fill="rgb(204, 204, 204)" fill-opacity="0.25" points="1309.155,1529.760 1360.079,1478.918 1338.692,1474.619 1295.348,1509.677 " />
<polygon stroke="black" stroke-width="1" fill="rgb(204, 204, 204)" fill-opacity="0.25" points="788.283,1467.118 766.157,1470.919 817.025,1524.464 831.627,1504.240 " />
<polygon stroke="black" stroke-width="1" fill="rgb(204, 204, 204)" fill-opacity="0.25" points="1360.079,1478.918 1368.965,1437.782 1343.619,1438.441 1338.692,1474.619 " />
<polygon stroke="black" stroke-width="1" fill="rgb(204, 204, 204)" fill-opacity="0.25" points="784.415,1429.783 758.383,1428.185 766.157,1470.919 788.283,1467.118 " />
<polygon stroke="black" stroke-width="1" fill="rgb(204, 204, 204)" fill-opacity="0.25" points="1368.965,1437.782 1356.608,1407.377 1336.836,1412.739 1343.619,1438.441 " />
<polygon stroke="black" stroke-width="1" fill="rgb(204, 204, 204)" fill-opacity="0.25" points="792.285,1403.668 772.221,1397.381 758.383,1428.185 784.415,1429.783 " />
<polygon stroke="black" stroke-width="1" fill="rgb(204, 204, 204)" fill-opacity="0.25" points="1356.608,1407.377 1299.399,1367.427 1288.274,1384.727 1336.836,1412.739 " />
<polygon stroke="black" stroke-width="1" fill="rgb(204, 204, 204)" fill-opacity="0.25" points="842.867,1376.926 832.229,1358.889 772.221,1397.381 792.285,1403.668 " />
<polygon stroke="black" stroke-width="1" fill="rgb(204, 204, 204)" fill-opacity="0.25" points="1299.399,1367.427 1260.638,1347.574 1258.308,1368.121 1288.274,1384.727 " />
<polygon stroke="black" stroke-width="1" fill="rgb(204, 204, 204)" fill-opacity="0.25" points="873.937,1361.181 872.391,1340.248 832.229,1358.889 842.867,1376.926 " />
<polygon stroke="black" stroke-width="1" fill="rgb(204, 204, 204)" fill-opacity="0.25" points="1260.638,1347.574 1228.483,1341.819 1230.916,1364.738 1258.308,1368.121 " />
<polygon stroke="black" stroke-width="1" fill="rgb(204, 204, 204)" fill-opacity="0.25" points="901.825,1358.772 905.169,1335.675 872.391,1340.248 873.937,1361.181 " />
<polygon stroke="black" stroke-width="1" fill="rgb(204, 204, 204)" fill-opacity="0.25" points="1228.483,1341.819 1182.267,1351.361 1197.783,1376.854 1230.916,1364.738 " />
<polygon stroke="black" stroke-width="1" fill="rgb(204, 204, 204)" fill-opacity="0.25" points="934.865,1372.240 951.458,1347.113 905.169,1335.675 901.825,1358.772 " />
<polygon stroke="black" stroke-width="1" fill="rgb(204, 204, 204)" fill-opacity="0.25" points="1230.916,1364.738 1197.783,1376.854 1209.639,1389.535 1232.484,1375.328 " />
<polygon stroke="black" stroke-width="1" fill="rgb(204, 204, 204)" fill-opacity="0.25" points="922.436,1384.614 934.865,1372.240 901.825,1358.772 899.834,1369.434 " />
<polygon stroke="black" stroke-width="1" fill="rgb(204, 204, 204)" fill-opacity="0.25" points="1258.308,1368.121 1230.916,1364.738 1232.484,1375.328 1256.110,1378.134 " />
<polygon stroke="black" stroke-width="1" fill="rgb(204, 204, 204)" fill-opacity="0.25" points="899.834,1369.434 901.825,1358.772 873.937,1361.181 875.772,1371.427 " />
<polygon stroke="black" stroke-width="1" fill="rgb(204, 204, 204)" fill-opacity="0.25" points="1288.274,1384.727 1258.308,1368.121 1256.110,1378.134 1283.791,1391.589 " />
<polygon stroke="black" stroke-width="1" fill="rgb(204, 204, 204)" fill-opacity="0.25" points="875.772,1371.427 873.937,1361.181 842.867,1376.926 847.151,1384.090 " />
<polygon stroke="black" stroke-width="1" fill="rgb(204, 204, 204)" fill-opacity="0.25" points="1336.836,1412.739 1288.274,1384.727 1283.791,1391.589 1323.516,1420.450 " />
<polygon stroke="black" stroke-width="1" fill="rgb(204, 204, 204)" fill-opacity="0.25" points="847.151,1384.090 842.867,1376.926 792.285,1403.668 805.644,1412.076 " />
<polygon stroke="black" stroke-width="1" fill="rgb(204, 204, 204)" fill-opacity="0.25" points="1343.619,1438.441 1336.836,1412.739 1323.516,1420.450 1330.260,1441.331 " />
<polygon stroke="black" stroke-width="1" fill="rgb(204, 204, 204)" fill-opacity="0.25" points="805.644,1412.076 792.285,1403.668 784.415,1429.783 798.028,1433.225 " />
<polygon stroke="black" stroke-width="1" fill="rgb(204, 204, 204)" fill-opacity="0.25" points="1338.692,1474.619 1343.619,1438.441 1330.260,1441.331 1326.664,1467.421 " />
<polygon stroke="black" stroke-width="1" fill="rgb(204, 204, 204)" fill-opacity="0.25" points="798.028,1433.225 784.415,1429.783 788.283,1467.118 800.850,1460.079 " />
<polygon stroke="black" stroke-width="1" fill="rgb(204, 204, 204)" fill-opacity="0.25" points="1295.348,1509.677 1338.692,1474.619 1326.664,1467.421 1289.890,1500.645 " />
<polygon stroke="black" stroke-width="1" fill="rgb(204, 204, 204)" fill-opacity="0.25" points="800.850,1460.079 788.283,1467.118 831.627,1504.240 837.413,1495.124 " />
<polygon stroke="black" stroke-width="1" fill="rgb(204, 204, 204)" fill-opacity="0.25" points="1252.803,1524.275 1295.348,1509.677 1289.890,1500.645 1254.689,1512.325 " />
<polygon stroke="black" stroke-width="1" fill="rgb(204, 204, 204)" fill-opacity="0.25" points="837.413,1495.124 831.627,1504.240 874.623,1520.173 872.968,1507.957 " />
<polygon stroke="black" stroke-width="1" fill="rgb(204, 204, 204)" fill-opacity="0.25" points="1189.343,1501.962 1252.803,1524.275 1254.689,1512.325 1198.420,1493.010 " />
<polygon stroke="black" stroke-width="1" fill="rgb(204, 204, 204)" fill-opacity="0.25" points="872.968,1507.957 874.623,1520.173 939.493,1499.036 930.548,1489.750 " />
<polygon stroke="black" stroke-width="1" fill="rgb(204, 204, 204)" fill-opacity="0.25" points="1171.020,1480.100 1189.343,1501.962 1198.420,1493.010 1183.998,1470.669 " />
<polygon stroke="black" stroke-width="1" fill="rgb(204, 204, 204)" fill-opacity="0.25" points="930.548,1489.750 939.493,1499.036 958.607,1477.392 945.762,1467.513 " />
<polygon stroke="black" stroke-width="1" fill="rgb(204, 204, 204)" fill-opacity="0.25" points="1197.783,1376.854 1173.678,1410.281 1186.914,1414.472 1209.639,1389.535 " />
<polygon stroke="black" stroke-width="1" fill="rgb(204, 204, 204)" fill-opacity="0.25" points="944.546,1410.595 958.034,1406.810 934.865,1372.240 922.436,1384.614 " />
<polygon stroke="black" stroke-width="1" fill="rgb(204, 204, 204)" fill-opacity="0.25" points="1173.678,1410.281 1163.983,1448.133 1182.769,1446.347 1186.914,1414.472 " />
<polygon stroke="black" stroke-width="1" fill="rgb(204, 204, 204)" fill-opacity="0.25" points="947.720,1442.955 966.611,1445.310 958.034,1406.810 944.546,1410.595 " />
<polygon stroke="black" stroke-width="1" fill="rgb(204, 204, 204)" fill-opacity="0.25" points="1163.983,1448.133 1171.020,1480.100 1183.998,1470.669 1182.769,1446.347 " />
<polygon stroke="black" stroke-width="1" fill="rgb(204, 204, 204)" fill-opacity="0.25" points="945.762,1467.513 958.607,1477.392 966.611,1445.310 947.720,1442.955 " />
<polygon stroke="black" stroke-width="1" fill="rgb(204, 204, 204)" fill-opacity="0.25" points="1068.898,1257.454 1132.739,1248.231 1132.972,1161.087 1071.167,1159.930 " />
<polygon stroke="black" stroke-width="1" fill="rgb(204, 204, 204)" fill-opacity="0.25" points="1009.273,1158.066 1005.433,1245.467 1068.898,1257.454 1071.167,1159.930 " />
<polygon stroke="black" stroke-width="1" fill="rgb(204, 204, 204)" fill-opacity="0.25" points="1132.739,1248.231 1238.684,1233.297 1248.909,1164.255 1132.972,1161.087 " />
<polygon stroke="black" stroke-width="1" fill="rgb(204, 204, 204)" fill-opacity="0.25" points="892.641,1155.604 899.588,1225.646 1005.433,1245.467 1009.273,1158.066 " />
<polygon stroke="black" stroke-width="1" fill="rgb(204, 204, 204)" fill-opacity="0.25" points="1238.684,1233.297 1283.772,1237.418 1327.460,1189.241 1248.909,1164.255 " />
<polygon stroke="black" stroke-width="1" fill="rgb(204, 204, 204)" fill-opacity="0.25" points="812.069,1176.748 853.842,1227.669 899.588,1225.646 892.641,1155.604 " />
<polygon stroke="black" stroke-width="1" fill="rgb(204, 204, 204)" fill-opacity="0.25" points="1283.772,1237.418 1357.449,1285.077 1417.433,1252.815 1327.460,1189.241 " />
<polygon stroke="black" stroke-width="1" fill="rgb(204, 204, 204)" fill-opacity="0.25" points="717.398,1236.523 776.800,1272.451 853.842,1227.669 812.069,1176.748 " />
<polygon stroke="black" stroke-width="1" fill="rgb(204, 204, 204)" fill-opacity="0.25" points="1357.449,1285.077 1428.369,1366.686 1487.528,1348.088 1417.433,1252.815 " />
<polygon stroke="black" stroke-width="1" fill="rgb(204, 204, 204)" fill-opacity="0.25" points="640.524,1329.996 700.342,1352.362 776.800,1272.451 717.398,1236.523 " />
<polygon stroke="black" stroke-width="1" fill="rgb(204, 204, 204)" fill-opacity="0.25" points="1428.369,1366.686 1448.456,1413.009 1507.080,1408.795 1487.528,1348.088 " />
<polygon stroke="black" stroke-width="1" fill="rgb(204, 204, 204)" fill-opacity="0.25" points="616.585,1391.426 677.317,1399.085 700.342,1352.362 640.524,1329.996 " />
<polygon stroke="black" stroke-width="1" fill="rgb(204, 204, 204)" fill-opacity="0.25" points="1448.456,1413.009 1465.020,1504.477 1494.835,1522.907 1507.080,1408.795 " />
<polygon stroke="black" stroke-width="1" fill="rgb(204, 204, 204)" fill-opacity="0.25" points="624.386,1513.294 656.286,1494.419 677.317,1399.085 616.585,1391.426 " />
<polygon stroke="black" stroke-width="1" fill="rgb(204, 204, 204)" fill-opacity="0.25" points="1465.020,1504.477 1385.224,1570.322 1429.856,1603.777 1494.835,1522.907 " />
<polygon stroke="black" stroke-width="1" fill="rgb(204, 204, 204)" fill-opacity="0.25" points="691.024,1599.121 737.911,1564.879 656.286,1494.419 624.386,1513.294 " />
<polygon stroke="black" stroke-width="1" fill="rgb(204, 204, 204)" fill-opacity="0.25" points="1385.224,1570.322 1325.865,1637.372 1358.035,1657.506 1429.856,1603.777 " />
<polygon stroke="black" stroke-width="1" fill="rgb(204, 204, 204)" fill-opacity="0.25" points="764.875,1655.046 798.058,1634.529 737.911,1564.879 691.024,1599.121 " />
<polygon stroke="black" stroke-width="1" fill="rgb(204, 204, 204)" fill-opacity="0.25" points="1283.908,2016.035 1330.061,2002.170 1352.604,1892.180 1272.709,1949.514 " />
<polygon stroke="black" stroke-width="1" fill="rgb(204, 204, 204)" fill-opacity="0.25" points="771.678,1893.794 796.318,2003.792 842.379,2017.012 852.826,1950.452 " />
<polygon stroke="black" stroke-width="1" fill="rgb(204, 204, 204)" fill-opacity="0.25" points="1162.158,2047.705 1283.908,2016.035 1272.709,1949.514 1182.118,1980.824 " />
<polygon stroke="black" stroke-width="1" fill="rgb(204, 204, 204)" fill-opacity="0.25" points="852.826,1950.452 842.379,2017.012 963.863,2047.705 943.682,1981.121 " />
<polygon stroke="black" stroke-width="1" fill="rgb(204, 204, 204)" fill-opacity="0.25" points="1062.752,1997.033 1162.158,2047.705 1182.118,1980.824 1121.102,1962.549 " />
<polygon stroke="black" stroke-width="1" fill="rgb(204, 204, 204)" fill-opacity="0.25" points="943.682,1981.121 963.863,2047.705 1062.752,1997.033 1004.567,1962.662 " />
<polygon stroke="black" stroke-width="1" fill="rgb(204, 204, 204)" fill-opacity="0.25" points="1106.453,1937.807 1062.740,1944.998 1062.752,1997.033 1121.102,1962.549 " />
<polygon stroke="black" stroke-width="1" fill="rgb(204, 204, 204)" fill-opacity="0.25" points="1062.752,1997.033 1062.740,1944.998 1019.138,1937.879 1004.567,1962.662 " />
<polygon stroke="black" stroke-width="1" fill="rgb(204, 204, 204)" fill-opacity="0.25" points="1130.353,1928.524 1106.453,1937.807 1121.102,1962.549 1142.905,1937.672 " />
<polygon stroke="black" stroke-width="1" fill="rgb(204, 204, 204)" fill-opacity="0.25" points="1004.567,1962.662 1019.138,1937.879 995.236,1928.657 982.716,1937.848 " />
<polygon stroke="black" stroke-width="1" fill="rgb(204, 204, 204)" fill-opacity="0.25" points="1136.790,1921.229 1130.353,1928.524 1142.905,1937.672 1181.596,1929.220 " />
<polygon stroke="black" stroke-width="1" fill="rgb(204, 204, 204)" fill-opacity="0.25" points="982.716,1937.848 995.236,1928.657 988.785,1921.374 943.964,1929.533 " />
<polygon stroke="black" stroke-width="1" fill="rgb(204, 204, 204)" fill-opacity="0.25" points="1154.687,1891.152 1136.790,1921.229 1181.596,1929.220 1252.735,1887.707 " />
<polygon stroke="black" stroke-width="1" fill="rgb(204, 204, 204)" fill-opacity="0.25" points="943.964,1929.533 988.785,1921.374 970.781,1891.305 872.309,1888.287 " />
<polygon stroke="black" stroke-width="1" fill="rgb(204, 204, 204)" fill-opacity="0.25" points="1181.596,1929.220 1182.118,1980.824 1272.709,1949.514 1252.735,1887.707 " />
<polygon stroke="black" stroke-width="1" fill="rgb(204, 204, 204)" fill-opacity="0.25" points="852.826,1950.452 943.682,1981.121 943.964,1929.533 872.309,1888.287 " />
<polygon stroke="black" stroke-width="1" fill="rgb(204, 204, 204)" fill-opacity="0.25" points="1181.596,1929.220 1142.905,1937.672 1121.102,1962.549 1182.118,1980.824 " />
<polygon stroke="black" stroke-width="1" fill="rgb(204, 204, 204)" fill-opacity="0.25" points="1004.567,1962.662 982.716,1937.848 943.964,1929.533 943.682,1981.121 " />
<polygon stroke="black" stroke-width="1" fill="rgb(204, 204, 204)" fill-opacity="0.25" points="1283.406,1819.941 1252.735,1887.707 1272.709,1949.514 1352.604,1892.180 " />
<polygon stroke="black" stroke-width="1" fill="rgb(204, 204, 204)" fill-opacity="0.25" points="852.826,1950.452 872.309,1888.287 840.946,1820.172 771.678,1893.794 " />
<polygon stroke="black" stroke-width="1" fill="rgb(204, 204, 204)" fill-opacity="0.25" points="1194.260,1825.802 1154.687,1891.152 1252.735,1887.707 1283.406,1819.941 " />
<polygon stroke="black" stroke-width="1" fill="rgb(204, 204, 204)" fill-opacity="0.25" points="872.309,1888.287 970.781,1891.305 930.871,1825.831 840.946,1820.172 " />
<polygon stroke="black" stroke-width="1" fill="rgb(204, 204, 204)" fill-opacity="0.25" points="1220.891,1774.744 1289.179,1780.826 1276.918,1747.362 1231.194,1745.132 " />
<polygon stroke="black" stroke-width="1" fill="rgb(204, 204, 204)" fill-opacity="0.25" points="847.342,1746.620 834.863,1780.543 903.977,1774.404 893.618,1744.499 " />
<polygon stroke="black" stroke-width="1" fill="rgb(204, 204, 204)" fill-opacity="0.25" points="1194.260,1825.802 1283.406,1819.941 1289.179,1780.826 1220.891,1774.744 " />
<polygon stroke="black" stroke-width="1" fill="rgb(204, 204, 204)" fill-opacity="0.25" points="834.863,1780.543 840.946,1820.172 930.871,1825.831 903.977,1774.404 " />
<polygon stroke="black" stroke-width="1" fill="rgb(204, 204, 204)" fill-opacity="0.25" points="1240.089,1709.806 1231.194,1745.132 1276.918,1747.362 1268.333,1720.646 " />
<polygon stroke="black" stroke-width="1" fill="rgb(204, 204, 204)" fill-opacity="0.25" points="847.342,1746.620 893.618,1744.499 884.785,1708.761 856.136,1719.581 " />
<polygon stroke="black" stroke-width="1" fill="rgb(204, 204, 204)" fill-opacity="0.25" points="1240.089,1709.806 1268.333,1720.646 1358.035,1657.506 1325.865,1637.372 " />
<polygon stroke="black" stroke-width="1" fill="rgb(204, 204, 204)" fill-opacity="0.25" points="764.875,1655.046 856.136,1719.581 884.785,1708.761 798.058,1634.529 " />
<polygon stroke="black" stroke-width="1" fill="rgb(204, 204, 204)" fill-opacity="0.25" points="1937.203,1885.043 1815.030,1798.601 1738.985,1843.749 1826.365,1972.396 " />
<polygon stroke="black" stroke-width="1" fill="rgb(204, 204, 204)" fill-opacity="0.25" points="375.020,1859.324 289.411,1817.637 161.712,1923.647 291.383,2004.036 " />
<polygon stroke="black" stroke-width="1" fill="rgb(204, 204, 204)" fill-opacity="0.25" points="1826.365,1972.396 1738.985,1843.749 1614.762,1882.468 1649.836,2025.910 " />
<polygon stroke="black" stroke-width="1" fill="rgb(204, 204, 204)" fill-opacity="0.25" points="504.531,1891.308 375.020,1859.324 291.383,2004.036 476.463,2040.865 " />
<polygon stroke="black" stroke-width="1" fill="rgb(204, 204, 204)" fill-opacity="0.25" points="1649.836,2025.910 1614.762,1882.468 1407.013,1889.886 1377.042,2002.532 " />
<polygon stroke="black" stroke-width="1" fill="rgb(204, 204, 204)" fill-opacity="0.25" points="716.544,1892.444 504.531,1891.308 476.463,2040.865 749.525,2005.010 " />
<polygon stroke="black" stroke-width="1" fill="rgb(204, 204, 204)" fill-opacity="0.25" points="1377.042,2002.532 1407.013,1889.886 1352.604,1892.180 1330.061,2002.170 " />
<polygon stroke="black" stroke-width="1" fill="rgb(204, 204, 204)" fill-opacity="0.25" points="771.678,1893.794 716.544,1892.444 749.525,2005.010 796.318,2003.792 " />
<polygon stroke="black" stroke-width="1" fill="rgb(204, 204, 204)" fill-opacity="0.25" points="1283.406,1819.941 1352.604,1892.180 1407.013,1889.886 1289.179,1780.826 " />
<polygon stroke="black" stroke-width="1" fill="rgb(204, 204, 204)" fill-opacity="0.25" points="716.544,1892.444 771.678,1893.794 840.946,1820.172 834.863,1780.543 " />
<polygon stroke="black" stroke-width="1" fill="rgb(204, 204, 204)" fill-opacity="0.25" points="1494.835,1522.907 1429.856,1603.777 1556.920,1652.236 1615.966,1570.155 " />
<polygon stroke="black" stroke-width="1" fill="rgb(204, 204, 204)" fill-opacity="0.25" points="556.141,1650.952 691.024,1599.121 624.386,1513.294 494.090,1562.671 " />
<polygon stroke="black" stroke-width="1" fill="rgb(204, 204, 204)" fill-opacity="0.25" points="2036.787,1704.540 1861.861,1672.681 1815.030,1798.601 1937.203,1885.043 " />
<polygon stroke="black" stroke-width="1" fill="rgb(204, 204, 204)" fill-opacity="0.25" points="289.411,1817.637 221.037,1681.238 24.226,1729.808 161.712,1923.647 " />
<polygon stroke="black" stroke-width="1" fill="rgb(204, 204, 204)" fill-opacity="0.25" points="1867.102,1223.825 1767.154,1354.637 1831.174,1429.742 1972.021,1341.948 " />
<polygon stroke="black" stroke-width="1" fill="rgb(204, 204, 204)" fill-opacity="0.25" points="253.493,1401.817 328.821,1317.231 217.907,1161.929 90.046,1296.306 " />
<polygon stroke="black" stroke-width="1" fill="rgb(204, 204, 204)" fill-opacity="0.25" points="1972.021,1341.948 1831.174,1429.742 1874.657,1515.921 2047.705,1526.497 " />
<polygon stroke="black" stroke-width="1" fill="rgb(204, 204, 204)" fill-opacity="0.25" points="202.680,1501.250 253.493,1401.817 90.046,1296.306 0.295,1517.337 " />
<polygon stroke="black" stroke-width="1" fill="rgb(204, 204, 204)" fill-opacity="0.25" points="2047.705,1526.497 1874.657,1515.921 1861.861,1672.681 2036.787,1704.540 " />
<polygon stroke="black" stroke-width="1" fill="rgb(204, 204, 204)" fill-opacity="0.25" points="221.037,1681.238 202.680,1501.250 0.295,1517.337 24.226,1729.808 " />
<polygon stroke="black" stroke-width="1" fill="rgb(204, 204, 204)" fill-opacity="0.25" points="1535.062,1362.569 1507.080,1408.795 1569.458,1431.943 1616.204,1405.487 " />
<polygon stroke="black" stroke-width="1" fill="rgb(204, 204, 204)" fill-opacity="0.25" points="547.652,1412.829 616.585,1391.426 590.199,1338.376 497.648,1381.270 " />
<polygon stroke="black" stroke-width="1" fill="rgb(204, 204, 204)" fill-opacity="0.25" points="1616.204,1405.487 1569.458,1431.943 1669.763,1481.957 1732.964,1447.123 " />
<polygon stroke="black" stroke-width="1" fill="rgb(204, 204, 204)" fill-opacity="0.25" points="436.357,1463.984 547.652,1412.829 497.648,1381.270 365.644,1423.395 " />
<polygon stroke="black" stroke-width="1" fill="rgb(204, 204, 204)" fill-opacity="0.25" points="1732.964,1447.123 1669.763,1481.957 1730.574,1522.991 1788.963,1503.392 " />
<polygon stroke="black" stroke-width="1" fill="rgb(204, 204, 204)" fill-opacity="0.25" points="367.948,1508.737 436.357,1463.984 365.644,1423.395 301.238,1486.266 " />
<polygon stroke="black" stroke-width="1" fill="rgb(204, 204, 204)" fill-opacity="0.25" points="1788.963,1503.392 1730.574,1522.991 1759.386,1580.712 1816.574,1569.241 " />
<polygon stroke="black" stroke-width="1" fill="rgb(204, 204, 204)" fill-opacity="0.25" points="333.421,1573.437 367.948,1508.737 301.238,1486.266 269.341,1561.422 " />
<polygon stroke="black" stroke-width="1" fill="rgb(204, 204, 204)" fill-opacity="0.25" points="1725.143,1648.312 1792.061,1669.724 1816.574,1569.241 1759.386,1580.712 " />
<polygon stroke="black" stroke-width="1" fill="rgb(204, 204, 204)" fill-opacity="0.25" points="269.341,1561.422 297.419,1673.730 362.062,1646.225 333.421,1573.437 " />
<polygon stroke="black" stroke-width="1" fill="rgb(204, 204, 204)" fill-opacity="0.25" points="1861.861,1672.681 1874.657,1515.921 1816.574,1569.241 1792.061,1669.724 " />
<polygon stroke="black" stroke-width="1" fill="rgb(204, 204, 204)" fill-opacity="0.25" points="269.341,1561.422 202.680,1501.250 221.037,1681.238 297.419,1673.730 " />
<polygon stroke="black" stroke-width="1" fill="rgb(204, 204, 204)" fill-opacity="0.25" points="1874.657,1515.921 1831.174,1429.742 1788.963,1503.392 1816.574,1569.241 " />
<polygon stroke="black" stroke-width="1" fill="rgb(204, 204, 204)" fill-opacity="0.25" points="301.238,1486.266 253.493,1401.817 202.680,1501.250 269.341,1561.422 " />
<polygon stroke="black" stroke-width="1" fill="rgb(204, 204, 204)" fill-opacity="0.25" points="1831.174,1429.742 1767.154,1354.637 1732.964,1447.123 1788.963,1503.392 " />
<polygon stroke="black" stroke-width="1" fill="rgb(204, 204, 204)" fill-opacity="0.25" points="365.644,1423.395 328.821,1317.231 253.493,1401.817 301.238,1486.266 " />
<polygon stroke="black" stroke-width="1" fill="rgb(204, 204, 204)" fill-opacity="0.25" points="1767.154,1354.637 1626.698,1302.401 1616.204,1405.487 1732.964,1447.123 " />
<polygon stroke="black" stroke-width="1" fill="rgb(204, 204, 204)" fill-opacity="0.25" points="497.648,1381.270 491.061,1264.452 328.821,1317.231 365.644,1423.395 " />
<polygon stroke="black" stroke-width="1" fill="rgb(204, 204, 204)" fill-opacity="0.25" points="1577.339,1270.706 1535.062,1362.569 1616.204,1405.487 1626.698,1302.401 " />
<polygon stroke="black" stroke-width="1" fill="rgb(204, 204, 204)" fill-opacity="0.25" points="497.648,1381.270 590.199,1338.376 549.114,1231.387 491.061,1264.452 " />
<polygon stroke="black" stroke-width="1" fill="rgb(204, 204, 204)" fill-opacity="0.25" points="1731.582,1126.468 1626.698,1302.401 1767.154,1354.637 1867.102,1223.825 " />
<polygon stroke="black" stroke-width="1" fill="rgb(204, 204, 204)" fill-opacity="0.25" points="328.821,1317.231 491.061,1264.452 379.455,1056.565 217.907,1161.929 " />
<polygon stroke="black" stroke-width="1" fill="rgb(204, 204, 204)" fill-opacity="0.25" points="1670.877,1135.860 1578.131,1138.153 1547.674,1190.701 1577.339,1270.706 " />
<polygon stroke="black" stroke-width="1" fill="rgb(204, 204, 204)" fill-opacity="0.25" points="587.844,1140.916 555.753,1078.649 449.044,1070.723 549.114,1231.387 " />
<polygon stroke="black" stroke-width="1" fill="rgb(204, 204, 204)" fill-opacity="0.25" points="1670.877,1135.860 1577.339,1270.706 1626.698,1302.401 1731.582,1126.468 " />
<polygon stroke="black" stroke-width="1" fill="rgb(204, 204, 204)" fill-opacity="0.25" points="491.061,1264.452 549.114,1231.387 449.044,1070.723 379.455,1056.565 " />
<polygon stroke="black" stroke-width="1" fill="rgb(204, 204, 204)" fill-opacity="0.25" points="1679.043,1089.391 1670.877,1135.860 1731.582,1126.468 " />
<polygon stroke="black" stroke-width="1" fill="rgb(204, 204, 204)" fill-opacity="0.25" points="379.455,1056.565 449.044,1070.723 442.151,1016.617 " />
<polygon stroke="black" stroke-width="1" fill="rgb(204, 204, 204)" fill-opacity="0.25" points="1507.080,1408.795 1494.835,1522.907 1615.966,1570.155 1569.458,1431.943 " />
<polygon stroke="black" stroke-width="1" fill="rgb(204, 204, 204)" fill-opacity="0.25" points="494.090,1562.671 624.386,1513.294 616.585,1391.426 547.652,1412.829 " />
<polygon stroke="black" stroke-width="1" fill="rgb(204, 204, 204)" fill-opacity="0.25" points="1615.966,1570.155 1658.124,1568.999 1669.763,1481.957 1569.458,1431.943 " />
<polygon stroke="black" stroke-width="1" fill="rgb(204, 204, 204)" fill-opacity="0.25" points="436.357,1463.984 448.856,1561.829 494.090,1562.671 547.652,1412.829 " />
<polygon stroke="black" stroke-width="1" fill="rgb(204, 204, 204)" fill-opacity="0.25" points="1658.124,1568.999 1698.380,1598.337 1730.574,1522.991 1669.763,1481.957 " />
<polygon stroke="black" stroke-width="1" fill="rgb(204, 204, 204)" fill-opacity="0.25" points="367.948,1508.737 407.689,1592.394 448.856,1561.829 436.357,1463.984 " />
<polygon stroke="black" stroke-width="1" fill="rgb(204, 204, 204)" fill-opacity="0.25" points="1725.143,1648.312 1759.386,1580.712 1730.574,1522.991 1698.380,1598.337 " />
<polygon stroke="black" stroke-width="1" fill="rgb(204, 204, 204)" fill-opacity="0.25" points="367.948,1508.737 333.421,1573.437 362.062,1646.225 407.689,1592.394 " />
<polygon stroke="black" stroke-width="1" fill="rgb(204, 204, 204)" fill-opacity="0.25" points="1407.013,1889.886 1614.762,1882.468 1610.711,1807.174 1465.307,1761.839 " />
<polygon stroke="black" stroke-width="1" fill="rgb(204, 204, 204)" fill-opacity="0.25" points="505.172,1812.787 504.531,1891.308 716.544,1892.444 654.414,1762.490 " />
<polygon stroke="black" stroke-width="1" fill="rgb(204, 204, 204)" fill-opacity="0.25" points="1556.920,1652.236 1465.307,1761.839 1610.711,1807.174 1608.675,1736.028 " />
<polygon stroke="black" stroke-width="1" fill="rgb(204, 204, 204)" fill-opacity="0.25" points="505.172,1812.787 654.414,1762.490 556.141,1650.952 503.745,1738.748 " />
<polygon stroke="black" stroke-width="1" fill="rgb(204, 204, 204)" fill-opacity="0.25" points="1429.856,1603.777 1358.035,1657.506 1465.307,1761.839 1556.920,1652.236 " />
<polygon stroke="black" stroke-width="1" fill="rgb(204, 204, 204)" fill-opacity="0.25" points="654.414,1762.490 764.875,1655.046 691.024,1599.121 556.141,1650.952 " />
<polygon stroke="black" stroke-width="1" fill="rgb(204, 204, 204)" fill-opacity="0.25" points="1358.035,1657.506 1276.918,1747.362 1289.179,1780.826 1465.307,1761.839 " />
<polygon stroke="black" stroke-width="1" fill="rgb(204, 204, 204)" fill-opacity="0.25" points="834.863,1780.543 847.342,1746.620 764.875,1655.046 654.414,1762.490 " />
<polygon stroke="black" stroke-width="1" fill="rgb(204, 204, 204)" fill-opacity="0.25" points="1289.179,1780.826 1407.013,1889.886 1465.307,1761.839 " />
<polygon stroke="black" stroke-width="1" fill="rgb(204, 204, 204)" fill-opacity="0.25" points="654.414,1762.490 716.544,1892.444 834.863,1780.543 " />
<polygon stroke="black" stroke-width="1" fill="rgb(204, 204, 204)" fill-opacity="0.25" points="1358.035,1657.506 1268.333,1720.646 1276.918,1747.362 " />
<polygon stroke="black" stroke-width="1" fill="rgb(204, 204, 204)" fill-opacity="0.25" points="847.342,1746.620 856.136,1719.581 764.875,1655.046 " />
<polygon stroke="black" stroke-width="1" fill="rgb(204, 204, 204)" fill-opacity="0.25" points="1725.143,1648.312 1714.958,1727.773 1757.534,1765.837 1792.061,1669.724 " />
<polygon stroke="black" stroke-width="1" fill="rgb(204, 204, 204)" fill-opacity="0.25" points="351.545,1777.062 402.682,1730.066 362.062,1646.225 297.419,1673.730 " />
<polygon stroke="black" stroke-width="1" fill="rgb(204, 204, 204)" fill-opacity="0.25" points="1861.861,1672.681 1792.061,1669.724 1757.534,1765.837 1815.030,1798.601 " />
<polygon stroke="black" stroke-width="1" fill="rgb(204, 204, 204)" fill-opacity="0.25" points="351.545,1777.062 297.419,1673.730 221.037,1681.238 289.411,1817.637 " />
<polygon stroke="black" stroke-width="1" fill="rgb(204, 204, 204)" fill-opacity="0.25" points="1608.675,1736.028 1610.711,1807.174 1757.534,1765.837 1714.958,1727.773 " />
<polygon stroke="black" stroke-width="1" fill="rgb(204, 204, 204)" fill-opacity="0.25" points="351.545,1777.062 505.172,1812.787 503.745,1738.748 402.682,1730.066 " />
<polygon stroke="black" stroke-width="1" fill="rgb(204, 204, 204)" fill-opacity="0.25" points="1614.762,1882.468 1738.985,1843.749 1757.534,1765.837 1610.711,1807.174 " />
<polygon stroke="black" stroke-width="1" fill="rgb(204, 204, 204)" fill-opacity="0.25" points="351.545,1777.062 375.020,1859.324 504.531,1891.308 505.172,1812.787 " />
<polygon stroke="black" stroke-width="1" fill="rgb(204, 204, 204)" fill-opacity="0.25" points="1815.030,1798.601 1757.534,1765.837 1738.985,1843.749 " />
<polygon stroke="black" stroke-width="1" fill="rgb(204, 204, 204)" fill-opacity="0.25" points="375.020,1859.324 351.545,1777.062 289.411,1817.637 " />
<polygon stroke="black" stroke-width="1" fill="rgb(204, 204, 204)" fill-opacity="0.25" points="1036.628,194.865 885.531,215.157 898.656,265.771 1005.687,242.250 " />
<polygon stroke="black" stroke-width="1" fill="rgb(204, 204, 204)" fill-opacity="0.25" points="646.896,269.908 658.713,218.675 506.280,202.426 538.690,249.199 " />
<polygon stroke="black" stroke-width="1" fill="rgb(204, 204, 204)" fill-opacity="0.25" points="1036.628,194.865 1005.687,242.250 1173.078,285.729 1238.682,245.871 " />
<polygon stroke="black" stroke-width="1" fill="rgb(204, 204, 204)" fill-opacity="0.25" points="371.683,297.589 538.690,249.199 506.280,202.426 304.597,259.381 " />
<polygon stroke="black" stroke-width="1" fill="rgb(204, 204, 204)" fill-opacity="0.25" points="1238.682,245.871 1173.078,285.729 1200.939,421.935 1269.682,426.772 " />
<polygon stroke="black" stroke-width="1" fill="rgb(204, 204, 204)" fill-opacity="0.25" points="347.638,435.253 371.683,297.589 304.597,259.381 278.657,442.177 " />
<polygon stroke="black" stroke-width="1" fill="rgb(204, 204, 204)" fill-opacity="0.25" points="1269.682,426.772 1200.939,421.935 1124.407,519.348 1154.634,534.096 " />
<polygon stroke="black" stroke-width="1" fill="rgb(204, 204, 204)" fill-opacity="0.25" points="427.327,530.680 347.638,435.253 278.657,442.177 397.488,546.322 " />
<polygon stroke="black" stroke-width="1" fill="rgb(204, 204, 204)" fill-opacity="0.25" points="1154.634,534.096 1124.407,519.348 1024.643,590.379 1040.937,619.125 " />
<polygon stroke="black" stroke-width="1" fill="rgb(204, 204, 204)" fill-opacity="0.25" points="529.201,599.046 427.327,530.680 397.488,546.322 513.661,628.226 " />
<polygon stroke="black" stroke-width="1" fill="rgb(204, 204, 204)" fill-opacity="0.25" points="1040.937,619.125 1024.643,590.379 898.337,653.961 890.477,698.610 " />
<polygon stroke="black" stroke-width="1" fill="rgb(204, 204, 204)" fill-opacity="0.25" points="657.330,659.540 529.201,599.046 513.661,628.226 666.251,704.053 " />
<polygon stroke="black" stroke-width="1" fill="rgb(204, 204, 204)" fill-opacity="0.25" points="1024.643,590.379 1035.604,551.027 927.652,614.353 898.337,653.961 " />
<polygon stroke="black" stroke-width="1" fill="rgb(204, 204, 204)" fill-opacity="0.25" points="626.967,620.593 517.169,559.940 529.201,599.046 657.330,659.540 " />
<polygon stroke="black" stroke-width="1" fill="rgb(204, 204, 204)" fill-opacity="0.25" points="1124.407,519.348 1111.757,500.218 1035.604,551.027 1024.643,590.379 " />
<polygon stroke="black" stroke-width="1" fill="rgb(204, 204, 204)" fill-opacity="0.25" points="517.169,559.940 439.450,511.152 427.327,530.680 529.201,599.046 " />
<polygon stroke="black" stroke-width="1" fill="rgb(204, 204, 204)" fill-opacity="0.25" points="1200.939,421.935 1163.567,435.472 1111.757,500.218 1124.407,519.348 " />
<polygon stroke="black" stroke-width="1" fill="rgb(204, 204, 204)" fill-opacity="0.25" points="439.450,511.152 385.575,447.744 347.638,435.253 427.327,530.680 " />
<polygon stroke="black" stroke-width="1" fill="rgb(204, 204, 204)" fill-opacity="0.25" points="1173.078,285.729 1137.654,355.631 1163.567,435.472 1200.939,421.935 " />
<polygon stroke="black" stroke-width="1" fill="rgb(204, 204, 204)" fill-opacity="0.25" points="385.575,447.744 409.293,366.819 371.683,297.589 347.638,435.253 " />
<polygon stroke="black" stroke-width="1" fill="rgb(204, 204, 204)" fill-opacity="0.25" points="1005.687,242.250 1026.521,318.759 1137.654,355.631 1173.078,285.729 " />
<polygon stroke="black" stroke-width="1" fill="rgb(204, 204, 204)" fill-opacity="0.25" points="409.293,366.819 519.877,326.652 538.690,249.199 371.683,297.589 " />
<polygon stroke="black" stroke-width="1" fill="rgb(204, 204, 204)" fill-opacity="0.25" points="1005.687,242.250 898.656,265.771 937.640,327.598 1026.521,318.759 " />
<polygon stroke="black" stroke-width="1" fill="rgb(204, 204, 204)" fill-opacity="0.25" points="609.407,333.091 646.896,269.908 538.690,249.199 519.877,326.652 " />
<polygon stroke="black" stroke-width="1" fill="rgb(204, 204, 204)" fill-opacity="0.25" points="1556.920,1652.236 1608.675,1736.028 1630.251,1685.567 1603.979,1664.104 " />
<polygon stroke="black" stroke-width="1" fill="rgb(204, 204, 204)" fill-opacity="0.25" points="478.464,1688.330 503.745,1738.748 556.141,1650.952 505.764,1664.870 " />
<polygon stroke="black" stroke-width="1" fill="rgb(204, 204, 204)" fill-opacity="0.25" points="800.848,794.847 890.477,698.610 898.337,653.961 808.481,642.816 " />
<polygon stroke="black" stroke-width="1" fill="rgb(204, 204, 204)" fill-opacity="0.25" points="657.330,659.540 666.251,704.053 757.582,798.319 747.188,646.257 " />
<polygon stroke="black" stroke-width="1" fill="rgb(204, 204, 204)" fill-opacity="0.25" points="1615.966,1570.155 1556.920,1652.236 1603.979,1664.104 1658.124,1568.999 " />
<polygon stroke="black" stroke-width="1" fill="rgb(204, 204, 204)" fill-opacity="0.25" points="505.764,1664.870 556.141,1650.952 494.090,1562.671 448.856,1561.829 " />
<polygon stroke="black" stroke-width="1" fill="rgb(204, 204, 204)" fill-opacity="0.25" points="802.298,282.425 822.487,324.690 898.656,265.771 885.531,215.157 " />
<polygon stroke="black" stroke-width="1" fill="rgb(204, 204, 204)" fill-opacity="0.25" points="646.896,269.908 725.045,327.072 744.196,284.041 658.713,218.675 " />
<polygon stroke="black" stroke-width="1" fill="rgb(204, 204, 204)" fill-opacity="0.25" points="898.337,653.961 927.652,614.353 890.917,576.963 808.481,642.816 " />
<polygon stroke="black" stroke-width="1" fill="rgb(204, 204, 204)" fill-opacity="0.25" points="662.852,582.183 626.967,620.593 657.330,659.540 747.188,646.257 " />
<polygon stroke="black" stroke-width="1" fill="rgb(204, 204, 204)" fill-opacity="0.25" points="888.154,553.654 787.780,593.308 808.481,642.816 890.917,576.963 " />
<polygon stroke="black" stroke-width="1" fill="rgb(204, 204, 204)" fill-opacity="0.25" points="747.188,646.257 766.771,596.031 665.039,558.741 662.852,582.183 " />
<polygon stroke="black" stroke-width="1" fill="rgb(204, 204, 204)" fill-opacity="0.25" points="841.718,516.788 787.780,593.308 888.154,553.654 876.159,526.688 " />
<polygon stroke="black" stroke-width="1" fill="rgb(204, 204, 204)" fill-opacity="0.25" points="665.039,558.741 766.771,596.031 710.713,520.569 676.393,531.382 " />
<polygon stroke="black" stroke-width="1" fill="rgb(204, 204, 204)" fill-opacity="0.25" points="856.240,440.431 787.778,418.974 787.780,593.308 841.718,516.788 " />
<polygon stroke="black" stroke-width="1" fill="rgb(204, 204, 204)" fill-opacity="0.25" points="766.771,596.031 762.409,420.921 694.174,444.266 710.713,520.569 " />
<polygon stroke="black" stroke-width="1" fill="rgb(204, 204, 204)" fill-opacity="0.25" points="822.487,324.690 787.778,418.974 856.240,440.431 883.370,373.688 " />
<polygon stroke="black" stroke-width="1" fill="rgb(204, 204, 204)" fill-opacity="0.25" points="694.174,444.266 762.409,420.921 725.045,327.072 665.170,377.938 " />
<polygon stroke="black" stroke-width="1" fill="rgb(204, 204, 204)" fill-opacity="0.25" points="898.656,265.771 822.487,324.690 883.370,373.688 937.640,327.598 " />
<polygon stroke="black" stroke-width="1" fill="rgb(204, 204, 204)" fill-opacity="0.25" points="665.170,377.938 725.045,327.072 646.896,269.908 609.407,333.091 " />
<polygon stroke="black" stroke-width="1" fill="rgb(204, 204, 204)" fill-opacity="0.25" points="1658.124,1568.999 1671.713,1632.080 1689.819,1618.407 1698.380,1598.337 " />
<polygon stroke="black" stroke-width="1" fill="rgb(204, 204, 204)" fill-opacity="0.25" points="409.123,1608.034 429.728,1625.782 448.856,1561.829 407.689,1592.394 " />
<polygon stroke="black" stroke-width="1" fill="rgb(204, 204, 204)" fill-opacity="0.25" points="1658.124,1568.999 1603.979,1664.104 1642.889,1669.921 1671.713,1632.080 " />
<polygon stroke="black" stroke-width="1" fill="rgb(204, 204, 204)" fill-opacity="0.25" points="463.841,1673.040 505.764,1664.870 448.856,1561.829 429.728,1625.782 " />
<polygon stroke="black" stroke-width="1" fill="rgb(204, 204, 204)" fill-opacity="0.25" points="1603.979,1664.104 1630.251,1685.567 1642.889,1669.921 " />
<polygon stroke="black" stroke-width="1" fill="rgb(204, 204, 204)" fill-opacity="0.25" points="463.841,1673.040 478.464,1688.330 505.764,1664.870 " />
<polygon stroke="black" stroke-width="1" fill="rgb(204, 204, 204)" fill-opacity="0.25" points="937.640,327.598 883.370,373.688 918.538,400.136 969.495,359.014 " />
<polygon stroke="black" stroke-width="1" fill="rgb(204, 204, 204)" fill-opacity="0.25" points="630.551,405.441 665.170,377.938 609.407,333.091 578.267,365.517 " />
<polygon stroke="black" stroke-width="1" fill="rgb(204, 204, 204)" fill-opacity="0.25" points="883.370,373.688 856.240,440.431 892.658,451.443 918.538,400.136 " />
<polygon stroke="black" stroke-width="1" fill="rgb(204, 204, 204)" fill-opacity="0.25" points="657.893,456.278 694.174,444.266 665.170,377.938 630.551,405.441 " />
<polygon stroke="black" stroke-width="1" fill="rgb(204, 204, 204)" fill-opacity="0.25" points="856.240,440.431 841.718,516.788 867.774,503.417 892.658,451.443 " />
<polygon stroke="black" stroke-width="1" fill="rgb(204, 204, 204)" fill-opacity="0.25" points="684.214,507.812 710.713,520.569 694.174,444.266 657.893,456.278 " />
<polygon stroke="black" stroke-width="1" fill="rgb(204, 204, 204)" fill-opacity="0.25" points="841.718,516.788 876.159,526.688 896.922,512.457 867.774,503.417 " />
<polygon stroke="black" stroke-width="1" fill="rgb(204, 204, 204)" fill-opacity="0.25" points="655.194,517.632 676.393,531.382 710.713,520.569 684.214,507.812 " />
<polygon stroke="black" stroke-width="1" fill="rgb(204, 204, 204)" fill-opacity="0.25" points="876.159,526.688 888.154,553.654 912.163,548.870 896.922,512.457 " />
<polygon stroke="black" stroke-width="1" fill="rgb(204, 204, 204)" fill-opacity="0.25" points="640.834,554.553 665.039,558.741 676.393,531.382 655.194,517.632 " />
<polygon stroke="black" stroke-width="1" fill="rgb(204, 204, 204)" fill-opacity="0.25" points="888.154,553.654 890.917,576.963 903.158,564.464 912.163,548.870 " />
<polygon stroke="black" stroke-width="1" fill="rgb(204, 204, 204)" fill-opacity="0.25" points="650.260,569.965 662.852,582.183 665.039,558.741 640.834,554.553 " />
<polygon stroke="black" stroke-width="1" fill="rgb(204, 204, 204)" fill-opacity="0.25" points="890.917,576.963 927.652,614.353 932.407,586.279 903.158,564.464 " />
<polygon stroke="black" stroke-width="1" fill="rgb(204, 204, 204)" fill-opacity="0.25" points="621.486,592.574 626.967,620.593 662.852,582.183 650.260,569.965 " />
<polygon stroke="black" stroke-width="1" fill="rgb(204, 204, 204)" fill-opacity="0.25" points="1026.521,318.759 937.640,327.598 969.495,359.014 1049.569,350.595 " />
<polygon stroke="black" stroke-width="1" fill="rgb(204, 204, 204)" fill-opacity="0.25" points="578.267,365.517 609.407,333.091 519.877,326.652 497.613,359.272 " />
<polygon stroke="black" stroke-width="1" fill="rgb(204, 204, 204)" fill-opacity="0.25" points="1137.654,355.631 1026.521,318.759 1049.569,350.595 1128.329,385.405 " />
<polygon stroke="black" stroke-width="1" fill="rgb(204, 204, 204)" fill-opacity="0.25" points="497.613,359.272 519.877,326.652 409.293,366.819 419.510,396.458 " />
<polygon stroke="black" stroke-width="1" fill="rgb(204, 204, 204)" fill-opacity="0.25" points="1163.567,435.472 1137.654,355.631 1128.329,385.405 1130.781,434.827 " />
<polygon stroke="black" stroke-width="1" fill="rgb(204, 204, 204)" fill-opacity="0.25" points="419.510,396.458 409.293,366.819 385.575,447.744 418.470,446.145 " />
<polygon stroke="black" stroke-width="1" fill="rgb(204, 204, 204)" fill-opacity="0.25" points="1111.757,500.218 1163.567,435.472 1130.781,434.827 1104.706,482.224 " />
<polygon stroke="black" stroke-width="1" fill="rgb(204, 204, 204)" fill-opacity="0.25" points="418.470,446.145 385.575,447.744 439.450,511.152 446.001,492.915 " />
<polygon stroke="black" stroke-width="1" fill="rgb(204, 204, 204)" fill-opacity="0.25" points="1035.604,551.027 1111.757,500.218 1104.706,482.224 1041.283,526.060 " />
<polygon stroke="black" stroke-width="1" fill="rgb(204, 204, 204)" fill-opacity="0.25" points="446.001,492.915 439.450,511.152 517.169,559.940 510.810,535.077 " />
<polygon stroke="black" stroke-width="1" fill="rgb(204, 204, 204)" fill-opacity="0.25" points="927.652,614.353 1035.604,551.027 1041.283,526.060 932.407,586.279 " />
<polygon stroke="black" stroke-width="1" fill="rgb(204, 204, 204)" fill-opacity="0.25" points="510.810,535.077 517.169,559.940 626.967,620.593 621.486,592.574 " />
<polygon stroke="black" stroke-width="1" fill="rgb(204, 204, 204)" fill-opacity="0.25" points="896.922,512.457 912.163,548.870 964.282,515.260 931.381,488.110 " />
<polygon stroke="black" stroke-width="1" fill="rgb(204, 204, 204)" fill-opacity="0.25" points="587.694,522.199 640.834,554.553 655.194,517.632 619.989,494.096 " />
<polygon stroke="black" stroke-width="1" fill="rgb(204, 204, 204)" fill-opacity="0.25" points="931.381,488.110 964.282,515.260 1001.206,470.090 973.625,442.565 " />
<polygon stroke="black" stroke-width="1" fill="rgb(204, 204, 204)" fill-opacity="0.25" points="549.460,477.878 587.694,522.199 619.989,494.096 576.387,449.513 " />
<polygon stroke="black" stroke-width="1" fill="rgb(204, 204, 204)" fill-opacity="0.25" points="973.625,442.565 1001.206,470.090 1031.522,435.073 1012.687,404.541 " />
<polygon stroke="black" stroke-width="1" fill="rgb(204, 204, 204)" fill-opacity="0.25" points="518.087,443.576 549.460,477.878 576.387,449.513 536.146,412.414 " />
<polygon stroke="black" stroke-width="1" fill="rgb(204, 204, 204)" fill-opacity="0.25" points="1012.687,404.541 1031.522,435.073 1062.015,426.799 1058.411,394.570 " />
<polygon stroke="black" stroke-width="1" fill="rgb(204, 204, 204)" fill-opacity="0.25" points="487.260,436.132 518.087,443.576 536.146,412.414 489.970,403.679 " />
<polygon stroke="black" stroke-width="1" fill="rgb(204, 204, 204)" fill-opacity="0.25" points="1049.569,350.595 969.495,359.014 1012.687,404.541 1058.411,394.570 " />
<polygon stroke="black" stroke-width="1" fill="rgb(204, 204, 204)" fill-opacity="0.25" points="536.146,412.414 578.267,365.517 497.613,359.272 489.970,403.679 " />
<polygon stroke="black" stroke-width="1" fill="rgb(204, 204, 204)" fill-opacity="0.25" points="918.538,400.136 973.625,442.565 1012.687,404.541 969.495,359.014 " />
<polygon stroke="black" stroke-width="1" fill="rgb(204, 204, 204)" fill-opacity="0.25" points="536.146,412.414 576.387,449.513 630.551,405.441 578.267,365.517 " />
<polygon stroke="black" stroke-width="1" fill="rgb(204, 204, 204)" fill-opacity="0.25" points="918.538,400.136 892.658,451.443 931.381,488.110 973.625,442.565 " />
<polygon stroke="black" stroke-width="1" fill="rgb(204, 204, 204)" fill-opacity="0.25" points="619.989,494.096 657.893,456.278 630.551,405.441 576.387,449.513 " />
<polygon stroke="black" stroke-width="1" fill="rgb(204, 204, 204)" fill-opacity="0.25" points="896.922,512.457 931.381,488.110 892.658,451.443 867.774,503.417 " />
<polygon stroke="black" stroke-width="1" fill="rgb(204, 204, 204)" fill-opacity="0.25" points="657.893,456.278 619.989,494.096 655.194,517.632 684.214,507.812 " />
<polygon stroke="black" stroke-width="1" fill="rgb(204, 204, 204)" fill-opacity="0.25" points="903.158,564.464 932.407,586.279 964.282,515.260 912.163,548.870 " />
<polygon stroke="black" stroke-width="1" fill="rgb(204, 204, 204)" fill-opacity="0.25" points="587.694,522.199 621.486,592.574 650.260,569.965 640.834,554.553 " />
<polygon stroke="black" stroke-width="1" fill="rgb(204, 204, 204)" fill-opacity="0.25" points="1041.283,526.060 1001.206,470.090 964.282,515.260 932.407,586.279 " />
<polygon stroke="black" stroke-width="1" fill="rgb(204, 204, 204)" fill-opacity="0.25" points="587.694,522.199 549.460,477.878 510.810,535.077 621.486,592.574 " />
<polygon stroke="black" stroke-width="1" fill="rgb(204, 204, 204)" fill-opacity="0.25" points="1104.706,482.224 1031.522,435.073 1001.206,470.090 1041.283,526.060 " />
<polygon stroke="black" stroke-width="1" fill="rgb(204, 204, 204)" fill-opacity="0.25" points="549.460,477.878 518.087,443.576 446.001,492.915 510.810,535.077 " />
<polygon stroke="black" stroke-width="1" fill="rgb(204, 204, 204)" fill-opacity="0.25" points="1130.781,434.827 1062.015,426.799 1031.522,435.073 1104.706,482.224 " />
<polygon stroke="black" stroke-width="1" fill="rgb(204, 204, 204)" fill-opacity="0.25" points="518.087,443.576 487.260,436.132 418.470,446.145 446.001,492.915 " />
<polygon stroke="black" stroke-width="1" fill="rgb(204, 204, 204)" fill-opacity="0.25" points="1128.329,385.405 1058.411,394.570 1062.015,426.799 1130.781,434.827 " />
<polygon stroke="black" stroke-width="1" fill="rgb(204, 204, 204)" fill-opacity="0.25" points="487.260,436.132 489.970,403.679 419.510,396.458 418.470,446.145 " />
<polygon stroke="black" stroke-width="1" fill="rgb(204, 204, 204)" fill-opacity="0.25" points="1049.569,350.595 1058.411,394.570 1128.329,385.405 " />
<polygon stroke="black" stroke-width="1" fill="rgb(204, 204, 204)" fill-opacity="0.25" points="419.510,396.458 489.970,403.679 497.613,359.272 " />
<polygon stroke="black" stroke-width="1" fill="rgb(204, 204, 204)" fill-opacity="0.25" points="1040.937,619.125 890.477,698.610 991.371,760.267 1112.853,648.114 " />
<polygon stroke="black" stroke-width="1" fill="rgb(204, 204, 204)" fill-opacity="0.25" points="567.165,767.863 666.251,704.053 513.661,628.226 442.620,659.210 " />
<polygon stroke="black" stroke-width="1" fill="rgb(204, 204, 204)" fill-opacity="0.25" points="1154.634,534.096 1040.937,619.125 1112.853,648.114 1189.995,559.241 " />
<polygon stroke="black" stroke-width="1" fill="rgb(204, 204, 204)" fill-opacity="0.25" points="442.620,659.210 513.661,628.226 397.488,546.322 362.856,572.568 " />
<polygon stroke="black" stroke-width="1" fill="rgb(204, 204, 204)" fill-opacity="0.25" points="1269.682,426.772 1154.634,534.096 1189.995,559.241 1263.004,491.592 " />
<polygon stroke="black" stroke-width="1" fill="rgb(204, 204, 204)" fill-opacity="0.25" points="362.856,572.568 397.488,546.322 278.657,442.177 287.496,507.132 " />
<polygon stroke="black" stroke-width="1" fill="rgb(204, 204, 204)" fill-opacity="0.25" points="1448.944,491.758 1269.682,426.772 1263.004,491.592 1353.005,530.090 " />
<polygon stroke="black" stroke-width="1" fill="rgb(204, 204, 204)" fill-opacity="0.25" points="287.496,507.132 278.657,442.177 101.429,514.408 198.734,548.757 " />
<polygon stroke="black" stroke-width="1" fill="rgb(204, 204, 204)" fill-opacity="0.25" points="1526.807,712.499 1448.944,491.758 1353.005,530.090 1387.020,674.947 " />
<polygon stroke="black" stroke-width="1" fill="rgb(204, 204, 204)" fill-opacity="0.25" points="198.734,548.757 101.429,514.408 39.750,737.794 171.139,692.146 " />
<polygon stroke="black" stroke-width="1" fill="rgb(204, 204, 204)" fill-opacity="0.25" points="1517.246,875.667 1526.807,712.499 1387.020,674.947 1375.033,834.240 " />
<polygon stroke="black" stroke-width="1" fill="rgb(204, 204, 204)" fill-opacity="0.25" points="171.139,692.146 39.750,737.794 68.944,892.103 190.095,839.963 " />
<polygon stroke="black" stroke-width="1" fill="rgb(204, 204, 204)" fill-opacity="0.25" points="1387.020,674.947 1112.853,648.114 991.371,760.267 1375.033,834.240 " />
<polygon stroke="black" stroke-width="1" fill="rgb(204, 204, 204)" fill-opacity="0.25" points="567.165,767.863 442.620,659.210 171.139,692.146 190.095,839.963 " />
<polygon stroke="black" stroke-width="1" fill="rgb(204, 204, 204)" fill-opacity="0.25" points="1387.020,674.947 1353.005,530.090 1189.995,559.241 1112.853,648.114 " />
<polygon stroke="black" stroke-width="1" fill="rgb(204, 204, 204)" fill-opacity="0.25" points="362.856,572.568 198.734,548.757 171.139,692.146 442.620,659.210 " />
<polygon stroke="black" stroke-width="1" fill="rgb(204, 204, 204)" fill-opacity="0.25" points="1353.005,530.090 1263.004,491.592 1189.995,559.241 " />
<polygon stroke="black" stroke-width="1" fill="rgb(204, 204, 204)" fill-opacity="0.25" points="362.856,572.568 287.496,507.132 198.734,548.757 " />
<polygon stroke="black" stroke-width="1" fill="rgb(204, 204, 204)" fill-opacity="0.25" points="1725.143,1648.312 1698.380,1598.337 1709.216,1624.312 1709.476,1624.148 " />
<polygon stroke="black" stroke-width="1" fill="rgb(204, 204, 204)" fill-opacity="0.25" points="68.944,892.103 104.890,977.594 297.044,895.805 190.095,839.963 " />
<polygon stroke="black" stroke-width="1" fill="rgb(204, 204, 204)" fill-opacity="0.25" points="1270.620,889.498 1375.033,834.240 991.371,760.267 1020.051,916.859 " />
<polygon stroke="black" stroke-width="1" fill="rgb(204, 204, 204)" fill-opacity="0.25" points="567.165,767.863 190.095,839.963 297.044,895.805 541.118,921.313 " />
<polygon stroke="black" stroke-width="1" fill="rgb(204, 204, 204)" fill-opacity="0.25" points="800.848,794.847 1020.051,916.859 991.371,760.267 890.477,698.610 " />
<polygon stroke="black" stroke-width="1" fill="rgb(204, 204, 204)" fill-opacity="0.25" points="567.165,767.863 541.118,921.313 757.582,798.319 666.251,704.053 " />

</svg>
