<?xml version="1.0" standalone="no"?>
<!DOCTYPE svg PUBLIC "-//W3C//DTD SVG 1.1//EN" 
  "http://www.w3.org/Graphics/SVG/1.1/DTD/svg11.dtd">
<svg width="2048" height="2048" viewBox="0 0 2048 2048"
     xmlns="http://www.w3.org/2000/svg" version="1.1">
<desc>test.blend, (Blender 3.5.0)</desc>
<polygon stroke="black" stroke-width="1" fill="rgb(204, 204, 204)" fill-opacity="0.25" points="1678.359,620.983 1615.054,602.262 1584.881,641.450 1725.842,690.088 " />
<polygon stroke="black" stroke-width="1" fill="rgb(204, 204, 204)" fill-opacity="0.25" points="1652.562,187.074 1667.978,237.443 1716.297,241.996 1750.777,187.718 " />
<polygon stroke="black" stroke-width="1" fill="rgb(204, 204, 204)" fill-opacity="0.25" points="1725.842,690.088 1584.881,641.450 1572.309,700.753 1784.715,777.031 " />
<polygon stroke="black" stroke-width="1" fill="rgb(204, 204, 204)" fill-opacity="0.25" points="1646.433,120.600 1652.562,187.074 1750.777,187.718 1786.084,122.892 " />
<polygon stroke="black" stroke-width="1" fill="rgb(204, 204, 204)" fill-opacity="0.25" points="1584.881,641.450 1485.212,575.843 1392.143,602.904 1572.309,700.753 " />
<polygon stroke="black" stroke-width="1" fill="rgb(204, 204, 204)" fill-opacity="0.25" points="1506.055,204.161 1566.950,235.048 1652.562,187.074 1646.433,120.600 " />
<polygon stroke="black" stroke-width="1" fill="rgb(204, 204, 204)" fill-opacity="0.25" points="1615.054,602.262 1564.596,566.617 1485.212,575.843 1584.881,641.450 " />
<polygon stroke="black" stroke-width="1" fill="rgb(204, 204, 204)" fill-opacity="0.25" points="1566.950,235.048 1623.108,259.084 1667.978,237.443 1652.562,187.074 " />
<polygon stroke="black" stroke-width="1" fill="rgb(204, 204, 204)" fill-opacity="0.25" points="1564.596,566.617 1565.556,534.857 1489.062,513.063 1485.212,575.843 " />
<polygon stroke="black" stroke-width="1" fill="rgb(204, 204, 204)" fill-opacity="0.25" points="1544.949,300.439 1614.307,291.512 1623.108,259.084 1566.950,235.048 " />
<polygon stroke="black" stroke-width="1" fill="rgb(204, 204, 204)" fill-opacity="0.25" points="1485.212,575.843 1489.062,513.063 1384.243,496.165 1392.143,602.904 " />
<polygon stroke="black" stroke-width="1" fill="rgb(204, 204, 204)" fill-opacity="0.25" points="1445.056,322.716 1544.949,300.439 1566.950,235.048 1506.055,204.161 " />
<polygon stroke="black" stroke-width="1" fill="rgb(204, 204, 204)" fill-opacity="0.25" points="1489.062,513.063 1576.823,470.324 1550.620,414.389 1384.243,496.165 " />
<polygon stroke="black" stroke-width="1" fill="rgb(204, 204, 204)" fill-opacity="0.25" points="1558.967,407.382 1602.243,358.411 1544.949,300.439 1445.056,322.716 " />
<polygon stroke="black" stroke-width="1" fill="rgb(204, 204, 204)" fill-opacity="0.25" points="1565.556,534.857 1607.983,517.225 1576.823,470.324 1489.062,513.063 " />
<polygon stroke="black" stroke-width="1" fill="rgb(204, 204, 204)" fill-opacity="0.25" points="1602.243,358.411 1642.934,321.313 1614.307,291.512 1544.949,300.439 " />
<polygon stroke="black" stroke-width="1" fill="rgb(204, 204, 204)" fill-opacity="0.25" points="1607.983,517.225 1675.631,535.165 1705.409,502.489 1576.823,470.324 " />
<polygon stroke="black" stroke-width="1" fill="rgb(204, 204, 204)" fill-opacity="0.25" points="1723.956,375.514 1702.907,329.276 1642.934,321.313 1602.243,358.411 " />
<polygon stroke="black" stroke-width="1" fill="rgb(204, 204, 204)" fill-opacity="0.25" points="1576.823,470.324 1705.409,502.489 1761.911,464.308 1550.620,414.389 " />
<polygon stroke="black" stroke-width="1" fill="rgb(204, 204, 204)" fill-opacity="0.25" points="1770.567,442.634 1723.956,375.514 1602.243,358.411 1558.967,407.382 " />
<polygon stroke="black" stroke-width="1" fill="rgb(204, 204, 204)" fill-opacity="0.25" points="1705.409,502.489 1795.163,584.515 1897.484,609.464 1761.911,464.308 " />
<polygon stroke="black" stroke-width="1" fill="rgb(204, 204, 204)" fill-opacity="0.25" points="1897.292,367.484 1809.299,338.469 1723.956,375.514 1770.567,442.634 " />
<polygon stroke="black" stroke-width="1" fill="rgb(204, 204, 204)" fill-opacity="0.25" points="1675.631,535.165 1720.679,572.625 1795.163,584.515 1705.409,502.489 " />
<polygon stroke="black" stroke-width="1" fill="rgb(204, 204, 204)" fill-opacity="0.25" points="1809.299,338.469 1745.318,311.985 1702.907,329.276 1723.956,375.514 " />
<polygon stroke="black" stroke-width="1" fill="rgb(204, 204, 204)" fill-opacity="0.25" points="1720.679,572.625 1723.364,610.772 1805.869,665.500 1795.163,584.515 " />
<polygon stroke="black" stroke-width="1" fill="rgb(204, 204, 204)" fill-opacity="0.25" points="1814.315,254.905 1749.887,273.215 1745.318,311.985 1809.299,338.469 " />
<polygon stroke="black" stroke-width="1" fill="rgb(204, 204, 204)" fill-opacity="0.25" points="1795.163,584.515 1805.869,665.500 1908.151,747.074 1897.484,609.464 " />
<polygon stroke="black" stroke-width="1" fill="rgb(204, 204, 204)" fill-opacity="0.25" points="1890.703,221.074 1814.315,254.905 1809.299,338.469 1897.292,367.484 " />
<polygon stroke="black" stroke-width="1" fill="rgb(204, 204, 204)" fill-opacity="0.25" points="1805.869,665.500 1725.842,690.088 1784.715,777.031 1908.151,747.074 " />
<polygon stroke="black" stroke-width="1" fill="rgb(204, 204, 204)" fill-opacity="0.25" points="1786.084,122.892 1750.777,187.718 1814.315,254.905 1890.703,221.074 " />
<polygon stroke="black" stroke-width="1" fill="rgb(204, 204, 204)" fill-opacity="0.25" points="1723.364,610.772 1678.359,620.983 1725.842,690.088 1805.869,665.500 " />
<polygon stroke="black" stroke-width="1" fill="rgb(204, 204, 204)" fill-opacity="0.25" points="1750.777,187.718 1716.297,241.996 1749.887,273.215 1814.315,254.905 " />
<polygon stroke="black" stroke-width="1" fill="rgb(204, 204, 204)" fill-opacity="0.25" points="1678.359,620.983 1723.364,610.772 1711.565,602.909 1673.842,614.187 " />
<polygon stroke="black" stroke-width="1" fill="rgb(204, 204, 204)" fill-opacity="0.25" points="1740.159,275.944 1749.887,273.215 1716.297,241.996 1712.363,247.272 " />
<polygon stroke="black" stroke-width="1" fill="rgb(204, 204, 204)" fill-opacity="0.25" points="1723.364,610.772 1720.679,572.625 1702.883,569.408 1711.565,602.909 " />
<polygon stroke="black" stroke-width="1" fill="rgb(204, 204, 204)" fill-opacity="0.25" points="1730.244,306.807 1745.318,311.985 1749.887,273.215 1740.159,275.944 " />
<polygon stroke="black" stroke-width="1" fill="rgb(204, 204, 204)" fill-opacity="0.25" points="1720.679,572.625 1675.631,535.165 1667.711,541.666 1702.883,569.408 " />
<polygon stroke="black" stroke-width="1" fill="rgb(204, 204, 204)" fill-opacity="0.25" points="1697.389,319.350 1702.907,329.276 1745.318,311.985 1730.244,306.807 " />
<polygon stroke="black" stroke-width="1" fill="rgb(204, 204, 204)" fill-opacity="0.25" points="1675.631,535.165 1607.983,517.225 1617.294,530.470 1667.711,541.666 " />
<polygon stroke="black" stroke-width="1" fill="rgb(204, 204, 204)" fill-opacity="0.25" points="1653.976,311.233 1642.934,321.313 1702.907,329.276 1697.389,319.350 " />
<polygon stroke="black" stroke-width="1" fill="rgb(204, 204, 204)" fill-opacity="0.25" points="1607.983,517.225 1565.556,534.857 1582.885,540.572 1617.294,530.470 " />
<polygon stroke="black" stroke-width="1" fill="rgb(204, 204, 204)" fill-opacity="0.25" points="1629.557,290.375 1614.307,291.512 1642.934,321.313 1653.976,311.233 " />
<polygon stroke="black" stroke-width="1" fill="rgb(204, 204, 204)" fill-opacity="0.25" points="1565.556,534.857 1564.596,566.617 1580.997,564.693 1582.885,540.572 " />
<polygon stroke="black" stroke-width="1" fill="rgb(204, 204, 204)" fill-opacity="0.25" points="1634.822,265.435 1623.108,259.084 1614.307,291.512 1629.557,290.375 " />
<polygon stroke="black" stroke-width="1" fill="rgb(204, 204, 204)" fill-opacity="0.25" points="1564.596,566.617 1615.054,602.262 1618.115,596.210 1580.997,564.693 " />
<polygon stroke="black" stroke-width="1" fill="rgb(204, 204, 204)" fill-opacity="0.25" points="1669.133,244.744 1667.978,237.443 1623.108,259.084 1634.822,265.435 " />
<polygon stroke="black" stroke-width="1" fill="rgb(204, 204, 204)" fill-opacity="0.25" points="1615.054,602.262 1678.359,620.983 1673.842,614.187 1618.115,596.210 " />
<polygon stroke="black" stroke-width="1" fill="rgb(204, 204, 204)" fill-opacity="0.25" points="1712.363,247.272 1716.297,241.996 1667.978,237.443 1669.133,244.744 " />
<polygon stroke="black" stroke-width="1" fill="rgb(204, 204, 204)" fill-opacity="0.25" points="1641.795,566.657 1618.115,596.210 1673.842,614.187 " />
<polygon stroke="black" stroke-width="1" fill="rgb(204, 204, 204)" fill-opacity="0.25" points="1712.363,247.272 1669.133,244.744 1681.320,283.625 " />
<polygon stroke="black" stroke-width="1" fill="rgb(204, 204, 204)" fill-opacity="0.25" points="1580.997,564.693 1618.115,596.210 1641.795,566.657 " />
<polygon stroke="black" stroke-width="1" fill="rgb(204, 204, 204)" fill-opacity="0.25" points="1681.320,283.625 1669.133,244.744 1634.822,265.435 " />
<polygon stroke="black" stroke-width="1" fill="rgb(204, 204, 204)" fill-opacity="0.25" points="1641.795,566.657 1582.885,540.572 1580.997,564.693 " />
<polygon stroke="black" stroke-width="1" fill="rgb(204, 204, 204)" fill-opacity="0.25" points="1634.822,265.435 1629.557,290.375 1681.320,283.625 " />
<polygon stroke="black" stroke-width="1" fill="rgb(204, 204, 204)" fill-opacity="0.25" points="1641.795,566.657 1617.294,530.470 1582.885,540.572 " />
<polygon stroke="black" stroke-width="1" fill="rgb(204, 204, 204)" fill-opacity="0.25" points="1629.557,290.375 1653.976,311.233 1681.320,283.625 " />
<polygon stroke="black" stroke-width="1" fill="rgb(204, 204, 204)" fill-opacity="0.25" points="1641.795,566.657 1667.711,541.666 1617.294,530.470 " />
<polygon stroke="black" stroke-width="1" fill="rgb(204, 204, 204)" fill-opacity="0.25" points="1653.976,311.233 1697.389,319.350 1681.320,283.625 " />
<polygon stroke="black" stroke-width="1" fill="rgb(204, 204, 204)" fill-opacity="0.25" points="1641.795,566.657 1702.883,569.408 1667.711,541.666 " />
<polygon stroke="black" stroke-width="1" fill="rgb(204, 204, 204)" fill-opacity="0.25" points="1697.389,319.350 1730.244,306.807 1681.320,283.625 " />
<polygon stroke="black" stroke-width="1" fill="rgb(204, 204, 204)" fill-opacity="0.25" points="1641.795,566.657 1711.565,602.909 1702.883,569.408 " />
<polygon stroke="black" stroke-width="1" fill="rgb(204, 204, 204)" fill-opacity="0.25" points="1730.244,306.807 1740.159,275.944 1681.320,283.625 " />
<polygon stroke="black" stroke-width="1" fill="rgb(204, 204, 204)" fill-opacity="0.25" points="1641.795,566.657 1673.842,614.187 1711.565,602.909 " />
<polygon stroke="black" stroke-width="1" fill="rgb(204, 204, 204)" fill-opacity="0.25" points="1740.159,275.944 1712.363,247.272 1681.320,283.625 " />
<polygon stroke="black" stroke-width="1" fill="rgb(204, 204, 204)" fill-opacity="0.25" points="1244.535,1898.541 1240.497,1877.586 1205.731,1892.512 1201.414,1917.356 " />
<polygon stroke="black" stroke-width="1" fill="rgb(204, 204, 204)" fill-opacity="0.25" points="1205.731,1892.512 1172.222,1895.263 1160.775,1918.514 1201.414,1917.356 " />
<polygon stroke="black" stroke-width="1" fill="rgb(204, 204, 204)" fill-opacity="0.25" points="1268.619,1881.120 1253.345,1869.038 1240.497,1877.586 1244.535,1898.541 " />
<polygon stroke="black" stroke-width="1" fill="rgb(204, 204, 204)" fill-opacity="0.25" points="1172.222,1895.263 1160.313,1893.508 1139.338,1913.109 1160.775,1918.514 " />
<polygon stroke="black" stroke-width="1" fill="rgb(204, 204, 204)" fill-opacity="0.25" points="1275.837,1869.805 1262.388,1843.200 1253.345,1869.038 1268.619,1881.120 " />
<polygon stroke="black" stroke-width="1" fill="rgb(204, 204, 204)" fill-opacity="0.25" points="1160.313,1893.508 1156.349,1873.279 1134.562,1905.875 1139.338,1913.109 " />
<polygon stroke="black" stroke-width="1" fill="rgb(204, 204, 204)" fill-opacity="0.25" points="1295.938,1823.816 1268.205,1807.011 1262.388,1843.200 1275.837,1869.805 " />
<polygon stroke="black" stroke-width="1" fill="rgb(204, 204, 204)" fill-opacity="0.25" points="1156.349,1873.279 1155.337,1842.481 1122.227,1874.025 1134.562,1905.875 " />
<polygon stroke="black" stroke-width="1" fill="rgb(204, 204, 204)" fill-opacity="0.25" points="1330.891,1718.862 1277.125,1693.122 1268.205,1807.011 1295.938,1823.816 " />
<polygon stroke="black" stroke-width="1" fill="rgb(204, 204, 204)" fill-opacity="0.25" points="1155.337,1842.481 1140.800,1749.121 1088.115,1807.002 1122.227,1874.025 " />
<polygon stroke="black" stroke-width="1" fill="rgb(204, 204, 204)" fill-opacity="0.25" points="1341.966,1529.900 1386.344,1403.697 1302.113,1329.670 1201.583,1432.190 " />
<polygon stroke="black" stroke-width="1" fill="rgb(204, 204, 204)" fill-opacity="0.25" points="955.941,1554.723 931.661,1650.969 1030.521,1685.558 1087.683,1507.563 " />
<polygon stroke="black" stroke-width="1" fill="rgb(204, 204, 204)" fill-opacity="0.25" points="1386.344,1403.697 1406.002,1299.876 1354.359,1242.471 1302.113,1329.670 " />
<polygon stroke="black" stroke-width="1" fill="rgb(204, 204, 204)" fill-opacity="0.25" points="859.332,1560.245 855.102,1615.885 931.661,1650.969 955.941,1554.723 " />
<polygon stroke="black" stroke-width="1" fill="rgb(204, 204, 204)" fill-opacity="0.25" points="1406.002,1299.876 1449.130,1208.936 1356.193,1164.763 1354.359,1242.471 " />
<polygon stroke="black" stroke-width="1" fill="rgb(204, 204, 204)" fill-opacity="0.25" points="802.202,1536.115 758.336,1599.573 855.102,1615.885 859.332,1560.245 " />
<polygon stroke="black" stroke-width="1" fill="rgb(204, 204, 204)" fill-opacity="0.25" points="1449.130,1208.936 1363.863,1083.366 1314.991,1081.190 1356.193,1164.763 " />
<polygon stroke="black" stroke-width="1" fill="rgb(204, 204, 204)" fill-opacity="0.25" points="765.317,1488.450 735.537,1515.886 758.336,1599.573 802.202,1536.115 " />
<polygon stroke="black" stroke-width="1" fill="rgb(204, 204, 204)" fill-opacity="0.25" points="1363.863,1083.366 1305.446,1028.263 1270.656,1053.840 1314.991,1081.190 " />
<polygon stroke="black" stroke-width="1" fill="rgb(204, 204, 204)" fill-opacity="0.25" points="767.952,1454.499 728.910,1469.695 735.537,1515.886 765.317,1488.450 " />
<polygon stroke="black" stroke-width="1" fill="rgb(204, 204, 204)" fill-opacity="0.25" points="1305.446,1028.263 1163.631,959.638 1133.302,1003.669 1270.656,1053.840 " />
<polygon stroke="black" stroke-width="1" fill="rgb(204, 204, 204)" fill-opacity="0.25" points="777.098,1348.952 730.793,1366.915 728.910,1469.695 767.952,1454.499 " />
<polygon stroke="black" stroke-width="1" fill="rgb(204, 204, 204)" fill-opacity="0.25" points="1163.631,959.638 1049.992,951.318 1061.723,990.996 1133.302,1003.669 " />
<polygon stroke="black" stroke-width="1" fill="rgb(204, 204, 204)" fill-opacity="0.25" points="777.909,1291.784 743.005,1281.932 730.793,1366.915 777.098,1348.952 " />
<polygon stroke="black" stroke-width="1" fill="rgb(204, 204, 204)" fill-opacity="0.25" points="1049.992,951.318 1000.844,973.355 1021.809,1005.791 1061.723,990.996 " />
<polygon stroke="black" stroke-width="1" fill="rgb(204, 204, 204)" fill-opacity="0.25" points="793.578,1258.364 763.680,1242.433 743.005,1281.932 777.909,1291.784 " />
<polygon stroke="black" stroke-width="1" fill="rgb(204, 204, 204)" fill-opacity="0.25" points="1000.844,973.355 917.323,1055.198 979.740,1089.835 1021.809,1005.791 " />
<polygon stroke="black" stroke-width="1" fill="rgb(204, 204, 204)" fill-opacity="0.25" points="870.481,1212.876 830.932,1159.775 763.680,1242.433 793.578,1258.364 " />
<polygon stroke="black" stroke-width="1" fill="rgb(204, 204, 204)" fill-opacity="0.25" points="917.323,1055.198 877.895,1111.658 942.430,1168.226 979.740,1089.835 " />
<polygon stroke="black" stroke-width="1" fill="rgb(204, 204, 204)" fill-opacity="0.25" points="942.430,1168.226 877.895,1111.658 830.932,1159.775 870.481,1212.876 " />
<polygon stroke="black" stroke-width="1" fill="rgb(204, 204, 204)" fill-opacity="0.25" points="1037.870,1093.922 1072.346,1060.588 1021.809,1005.791 979.740,1089.835 " />
<polygon stroke="black" stroke-width="1" fill="rgb(204, 204, 204)" fill-opacity="0.25" points="793.578,1258.364 839.698,1299.471 873.628,1267.100 870.481,1212.876 " />
<polygon stroke="black" stroke-width="1" fill="rgb(204, 204, 204)" fill-opacity="0.25" points="1072.346,1060.588 1108.404,1051.277 1061.723,990.996 1021.809,1005.791 " />
<polygon stroke="black" stroke-width="1" fill="rgb(204, 204, 204)" fill-opacity="0.25" points="777.909,1291.784 824.860,1330.456 839.698,1299.471 793.578,1258.364 " />
<polygon stroke="black" stroke-width="1" fill="rgb(204, 204, 204)" fill-opacity="0.25" points="1163.679,1056.652 1133.302,1003.669 1061.723,990.996 1108.404,1051.277 " />
<polygon stroke="black" stroke-width="1" fill="rgb(204, 204, 204)" fill-opacity="0.25" points="777.909,1291.784 777.098,1348.952 814.428,1376.268 824.860,1330.456 " />
<polygon stroke="black" stroke-width="1" fill="rgb(204, 204, 204)" fill-opacity="0.25" points="1256.074,1085.379 1270.656,1053.840 1133.302,1003.669 1163.679,1056.652 " />
<polygon stroke="black" stroke-width="1" fill="rgb(204, 204, 204)" fill-opacity="0.25" points="777.098,1348.952 767.952,1454.499 800.873,1450.382 814.428,1376.268 " />
<polygon stroke="black" stroke-width="1" fill="rgb(204, 204, 204)" fill-opacity="0.25" points="1293.438,1119.999 1314.991,1081.190 1270.656,1053.840 1256.074,1085.379 " />
<polygon stroke="black" stroke-width="1" fill="rgb(204, 204, 204)" fill-opacity="0.25" points="767.952,1454.499 765.317,1488.450 808.547,1483.558 800.873,1450.382 " />
<polygon stroke="black" stroke-width="1" fill="rgb(204, 204, 204)" fill-opacity="0.25" points="1315.859,1173.979 1356.193,1164.763 1314.991,1081.190 1293.438,1119.999 " />
<polygon stroke="black" stroke-width="1" fill="rgb(204, 204, 204)" fill-opacity="0.25" points="765.317,1488.450 802.202,1536.115 836.464,1512.355 808.547,1483.558 " />
<polygon stroke="black" stroke-width="1" fill="rgb(204, 204, 204)" fill-opacity="0.25" points="1301.306,1249.774 1354.359,1242.471 1356.193,1164.763 1315.859,1173.979 " />
<polygon stroke="black" stroke-width="1" fill="rgb(204, 204, 204)" fill-opacity="0.25" points="802.202,1536.115 859.332,1560.245 901.710,1524.359 836.464,1512.355 " />
<polygon stroke="black" stroke-width="1" fill="rgb(204, 204, 204)" fill-opacity="0.25" points="1266.607,1290.926 1302.113,1329.670 1354.359,1242.471 1301.306,1249.774 " />
<polygon stroke="black" stroke-width="1" fill="rgb(204, 204, 204)" fill-opacity="0.25" points="859.332,1560.245 955.941,1554.723 953.133,1509.954 901.710,1524.359 " />
<polygon stroke="black" stroke-width="1" fill="rgb(204, 204, 204)" fill-opacity="0.25" points="1166.599,1279.038 1201.583,1432.190 1302.113,1329.670 1266.607,1290.926 " />
<polygon stroke="black" stroke-width="1" fill="rgb(204, 204, 204)" fill-opacity="0.25" points="955.941,1554.723 1087.683,1507.563 997.055,1412.570 953.133,1509.954 " />
<polygon stroke="black" stroke-width="1" fill="rgb(204, 204, 204)" fill-opacity="0.25" points="1166.599,1279.038 1129.381,1253.935 1092.993,1363.361 1201.583,1432.190 " />
<polygon stroke="black" stroke-width="1" fill="rgb(204, 204, 204)" fill-opacity="0.25" points="1092.993,1363.361 991.968,1368.774 997.055,1412.570 1087.683,1507.563 " />
<polygon stroke="black" stroke-width="1" fill="rgb(204, 204, 204)" fill-opacity="0.25" points="1037.870,1093.922 979.740,1089.835 942.430,1168.226 1045.442,1160.598 " />
<polygon stroke="black" stroke-width="1" fill="rgb(204, 204, 204)" fill-opacity="0.25" points="942.430,1168.226 870.481,1212.876 873.628,1267.100 933.151,1273.057 " />
<polygon stroke="black" stroke-width="1" fill="rgb(204, 204, 204)" fill-opacity="0.25" points="1045.442,1160.598 942.430,1168.226 1022.212,1256.313 1085.766,1215.919 " />
<polygon stroke="black" stroke-width="1" fill="rgb(204, 204, 204)" fill-opacity="0.25" points="1022.212,1256.313 942.430,1168.226 933.151,1273.057 973.919,1317.813 " />
<polygon stroke="black" stroke-width="1" fill="rgb(204, 204, 204)" fill-opacity="0.25" points="1092.993,1363.361 1129.381,1253.935 1085.766,1215.919 1022.212,1256.313 " />
<polygon stroke="black" stroke-width="1" fill="rgb(204, 204, 204)" fill-opacity="0.25" points="973.919,1317.813 991.968,1368.774 1092.993,1363.361 1022.212,1256.313 " />
<polygon stroke="black" stroke-width="1" fill="rgb(204, 204, 204)" fill-opacity="0.25" points="1221.746,1864.028 1208.729,1870.393 1205.731,1892.512 1240.497,1877.586 " />
<polygon stroke="black" stroke-width="1" fill="rgb(204, 204, 204)" fill-opacity="0.25" points="1205.731,1892.512 1208.729,1870.393 1196.294,1871.076 1172.222,1895.263 " />
<polygon stroke="black" stroke-width="1" fill="rgb(204, 204, 204)" fill-opacity="0.25" points="1234.080,1847.549 1221.746,1864.028 1240.497,1877.586 1253.345,1869.038 " />
<polygon stroke="black" stroke-width="1" fill="rgb(204, 204, 204)" fill-opacity="0.25" points="1172.222,1895.263 1196.294,1871.076 1186.480,1861.288 1160.313,1893.508 " />
<polygon stroke="black" stroke-width="1" fill="rgb(204, 204, 204)" fill-opacity="0.25" points="1235.866,1809.316 1234.080,1847.549 1253.345,1869.038 1262.388,1843.200 " />
<polygon stroke="black" stroke-width="1" fill="rgb(204, 204, 204)" fill-opacity="0.25" points="1160.313,1893.508 1186.480,1861.288 1189.591,1824.296 1156.349,1873.279 " />
<polygon stroke="black" stroke-width="1" fill="rgb(204, 204, 204)" fill-opacity="0.25" points="1277.125,1693.122 1231.900,1691.609 1239.204,1798.377 1268.205,1807.011 " />
<polygon stroke="black" stroke-width="1" fill="rgb(204, 204, 204)" fill-opacity="0.25" points="1186.773,1815.811 1183.630,1712.506 1140.800,1749.121 1155.337,1842.481 " />
<polygon stroke="black" stroke-width="1" fill="rgb(204, 204, 204)" fill-opacity="0.25" points="1235.866,1809.316 1262.388,1843.200 1268.205,1807.011 1239.204,1798.377 " />
<polygon stroke="black" stroke-width="1" fill="rgb(204, 204, 204)" fill-opacity="0.25" points="1155.337,1842.481 1156.349,1873.279 1189.591,1824.296 1186.773,1815.811 " />
<polygon stroke="black" stroke-width="1" fill="rgb(204, 204, 204)" fill-opacity="0.25" points="1225.953,1595.863 1196.248,1632.146 1207.627,1699.925 1231.900,1691.609 " />
<polygon stroke="black" stroke-width="1" fill="rgb(204, 204, 204)" fill-opacity="0.25" points="1207.627,1699.925 1196.248,1632.146 1157.798,1631.358 1183.630,1712.506 " />
<polygon stroke="black" stroke-width="1" fill="rgb(204, 204, 204)" fill-opacity="0.25" points="1239.204,1798.377 1231.900,1691.609 1207.627,1699.925 1213.293,1798.319 " />
<polygon stroke="black" stroke-width="1" fill="rgb(204, 204, 204)" fill-opacity="0.25" points="1207.627,1699.925 1183.630,1712.506 1186.773,1815.811 1213.293,1798.319 " />
<polygon stroke="black" stroke-width="1" fill="rgb(204, 204, 204)" fill-opacity="0.25" points="1212.605,1822.884 1235.866,1809.316 1239.204,1798.377 1213.293,1798.319 " />
<polygon stroke="black" stroke-width="1" fill="rgb(204, 204, 204)" fill-opacity="0.25" points="1186.773,1815.811 1189.591,1824.296 1212.605,1822.884 1213.293,1798.319 " />
<polygon stroke="black" stroke-width="1" fill="rgb(204, 204, 204)" fill-opacity="0.25" points="1231.823,1541.971 1211.365,1544.073 1214.370,1573.485 1225.953,1595.863 " />
<polygon stroke="black" stroke-width="1" fill="rgb(204, 204, 204)" fill-opacity="0.25" points="1157.208,1604.724 1145.317,1581.943 1129.010,1599.772 1157.798,1631.358 " />
<polygon stroke="black" stroke-width="1" fill="rgb(204, 204, 204)" fill-opacity="0.25" points="1205.095,1487.362 1198.977,1510.874 1211.365,1544.073 1231.823,1541.971 " />
<polygon stroke="black" stroke-width="1" fill="rgb(204, 204, 204)" fill-opacity="0.25" points="1145.317,1581.943 1136.529,1549.151 1119.226,1541.119 1129.010,1599.772 " />
<polygon stroke="black" stroke-width="1" fill="rgb(204, 204, 204)" fill-opacity="0.25" points="1155.123,1491.185 1180.009,1507.224 1198.977,1510.874 1205.095,1487.362 " />
<polygon stroke="black" stroke-width="1" fill="rgb(204, 204, 204)" fill-opacity="0.25" points="1136.529,1549.151 1146.809,1528.597 1155.123,1491.185 1119.226,1541.119 " />
<polygon stroke="black" stroke-width="1" fill="rgb(204, 204, 204)" fill-opacity="0.25" points="1162.074,1522.298 1169.876,1535.405 1180.009,1507.224 1155.123,1491.185 " />
<polygon stroke="black" stroke-width="1" fill="rgb(204, 204, 204)" fill-opacity="0.25" points="1146.809,1528.597 1169.876,1535.405 1162.074,1522.298 1155.123,1491.185 " />
<polygon stroke="black" stroke-width="1" fill="rgb(204, 204, 204)" fill-opacity="0.25" points="1196.248,1632.146 1225.953,1595.863 1214.370,1573.485 1191.503,1611.075 " />
<polygon stroke="black" stroke-width="1" fill="rgb(204, 204, 204)" fill-opacity="0.25" points="1157.208,1604.724 1157.798,1631.358 1196.248,1632.146 1191.503,1611.075 " />
<polygon stroke="black" stroke-width="1" fill="rgb(204, 204, 204)" fill-opacity="0.25" points="1191.503,1611.075 1214.370,1573.485 1203.190,1563.088 1186.744,1592.101 " />
<polygon stroke="black" stroke-width="1" fill="rgb(204, 204, 204)" fill-opacity="0.25" points="1160.737,1586.942 1157.208,1604.724 1191.503,1611.075 1186.744,1592.101 " />
<polygon stroke="black" stroke-width="1" fill="rgb(204, 204, 204)" fill-opacity="0.25" points="1169.876,1535.405 1175.338,1552.288 1184.632,1523.409 1180.009,1507.224 " />
<polygon stroke="black" stroke-width="1" fill="rgb(204, 204, 204)" fill-opacity="0.25" points="1152.988,1542.915 1175.338,1552.288 1169.876,1535.405 1146.809,1528.597 " />
<polygon stroke="black" stroke-width="1" fill="rgb(204, 204, 204)" fill-opacity="0.25" points="1180.009,1507.224 1184.632,1523.409 1195.877,1524.214 1198.977,1510.874 " />
<polygon stroke="black" stroke-width="1" fill="rgb(204, 204, 204)" fill-opacity="0.25" points="1145.906,1554.379 1152.988,1542.915 1146.809,1528.597 1136.529,1549.151 " />
<polygon stroke="black" stroke-width="1" fill="rgb(204, 204, 204)" fill-opacity="0.25" points="1198.977,1510.874 1195.877,1524.214 1202.773,1546.010 1211.365,1544.073 " />
<polygon stroke="black" stroke-width="1" fill="rgb(204, 204, 204)" fill-opacity="0.25" points="1152.516,1574.987 1145.906,1554.379 1136.529,1549.151 1145.317,1581.943 " />
<polygon stroke="black" stroke-width="1" fill="rgb(204, 204, 204)" fill-opacity="0.25" points="1211.365,1544.073 1202.773,1546.010 1203.190,1563.088 1214.370,1573.485 " />
<polygon stroke="black" stroke-width="1" fill="rgb(204, 204, 204)" fill-opacity="0.25" points="1160.737,1586.942 1152.516,1574.987 1145.317,1581.943 1157.208,1604.724 " />
<polygon stroke="black" stroke-width="1" fill="rgb(204, 204, 204)" fill-opacity="0.25" points="1175.338,1552.288 1202.773,1546.010 1195.877,1524.214 1184.632,1523.409 " />
<polygon stroke="black" stroke-width="1" fill="rgb(204, 204, 204)" fill-opacity="0.25" points="1145.906,1554.379 1152.516,1574.987 1175.338,1552.288 1152.988,1542.915 " />
<polygon stroke="black" stroke-width="1" fill="rgb(204, 204, 204)" fill-opacity="0.25" points="1175.338,1552.288 1186.744,1592.101 1203.190,1563.088 1202.773,1546.010 " />
<polygon stroke="black" stroke-width="1" fill="rgb(204, 204, 204)" fill-opacity="0.25" points="1160.737,1586.942 1186.744,1592.101 1175.338,1552.288 1152.516,1574.987 " />
<polygon stroke="black" stroke-width="1" fill="rgb(204, 204, 204)" fill-opacity="0.25" points="1155.123,1491.185 1205.095,1487.362 1201.583,1432.190 1092.993,1363.361 " />
<polygon stroke="black" stroke-width="1" fill="rgb(204, 204, 204)" fill-opacity="0.25" points="1087.683,1507.563 1119.226,1541.119 1155.123,1491.185 1092.993,1363.361 " />
<polygon stroke="black" stroke-width="1" fill="rgb(204, 204, 204)" fill-opacity="0.25" points="1205.095,1487.362 1231.823,1541.971 1260.306,1548.717 1201.583,1432.190 " />
<polygon stroke="black" stroke-width="1" fill="rgb(204, 204, 204)" fill-opacity="0.25" points="1109.640,1629.916 1129.010,1599.772 1119.226,1541.119 1087.683,1507.563 " />
<polygon stroke="black" stroke-width="1" fill="rgb(204, 204, 204)" fill-opacity="0.25" points="1231.823,1541.971 1225.953,1595.863 1270.424,1606.518 1260.306,1548.717 " />
<polygon stroke="black" stroke-width="1" fill="rgb(204, 204, 204)" fill-opacity="0.25" points="1124.072,1677.767 1157.798,1631.358 1129.010,1599.772 1109.640,1629.916 " />
<polygon stroke="black" stroke-width="1" fill="rgb(204, 204, 204)" fill-opacity="0.25" points="1225.953,1595.863 1231.900,1691.609 1277.125,1693.122 1270.424,1606.518 " />
<polygon stroke="black" stroke-width="1" fill="rgb(204, 204, 204)" fill-opacity="0.25" points="1140.800,1749.121 1183.630,1712.506 1157.798,1631.358 1124.072,1677.767 " />
<polygon stroke="black" stroke-width="1" fill="rgb(204, 204, 204)" fill-opacity="0.25" points="1330.891,1718.862 1345.852,1634.804 1270.424,1606.518 1277.125,1693.122 " />
<polygon stroke="black" stroke-width="1" fill="rgb(204, 204, 204)" fill-opacity="0.25" points="1124.072,1677.767 1059.721,1755.341 1088.115,1807.002 1140.800,1749.121 " />
<polygon stroke="black" stroke-width="1" fill="rgb(204, 204, 204)" fill-opacity="0.25" points="1345.852,1634.804 1346.779,1586.643 1260.306,1548.717 1270.424,1606.518 " />
<polygon stroke="black" stroke-width="1" fill="rgb(204, 204, 204)" fill-opacity="0.25" points="1109.640,1629.916 1045.943,1723.979 1059.721,1755.341 1124.072,1677.767 " />
<polygon stroke="black" stroke-width="1" fill="rgb(204, 204, 204)" fill-opacity="0.25" points="1341.966,1529.900 1201.583,1432.190 1260.306,1548.717 1346.779,1586.643 " />
<polygon stroke="black" stroke-width="1" fill="rgb(204, 204, 204)" fill-opacity="0.25" points="1109.640,1629.916 1087.683,1507.563 1030.521,1685.558 1045.943,1723.979 " />
<polygon stroke="black" stroke-width="1" fill="rgb(204, 204, 204)" fill-opacity="0.25" points="1235.866,1809.316 1212.605,1822.884 1212.423,1826.544 1231.664,1817.553 " />
<polygon stroke="black" stroke-width="1" fill="rgb(204, 204, 204)" fill-opacity="0.25" points="1212.423,1826.544 1212.605,1822.884 1189.591,1824.296 1193.295,1829.730 " />
<polygon stroke="black" stroke-width="1" fill="rgb(204, 204, 204)" fill-opacity="0.25" points="1234.080,1847.549 1235.866,1809.316 1231.664,1817.553 1230.251,1844.258 " />
<polygon stroke="black" stroke-width="1" fill="rgb(204, 204, 204)" fill-opacity="0.25" points="1193.295,1829.730 1189.591,1824.296 1186.480,1861.288 1191.195,1855.695 " />
<polygon stroke="black" stroke-width="1" fill="rgb(204, 204, 204)" fill-opacity="0.25" points="1221.746,1864.028 1234.080,1847.549 1230.251,1844.258 1218.854,1860.711 " />
<polygon stroke="black" stroke-width="1" fill="rgb(204, 204, 204)" fill-opacity="0.25" points="1191.195,1855.695 1186.480,1861.288 1196.294,1871.076 1200.149,1865.962 " />
<polygon stroke="black" stroke-width="1" fill="rgb(204, 204, 204)" fill-opacity="0.25" points="1208.729,1870.393 1221.746,1864.028 1218.854,1860.711 1209.219,1866.133 " />
<polygon stroke="black" stroke-width="1" fill="rgb(204, 204, 204)" fill-opacity="0.25" points="1200.149,1865.962 1196.294,1871.076 1208.729,1870.393 1209.219,1866.133 " />
<polygon stroke="black" stroke-width="1" fill="rgb(204, 204, 204)" fill-opacity="0.25" points="1209.219,1866.133 1218.854,1860.711 1215.794,1849.635 1210.540,1853.057 " />
<polygon stroke="black" stroke-width="1" fill="rgb(204, 204, 204)" fill-opacity="0.25" points="1205.624,1852.606 1200.149,1865.962 1209.219,1866.133 1210.540,1853.057 " />
<polygon stroke="black" stroke-width="1" fill="rgb(204, 204, 204)" fill-opacity="0.25" points="1218.854,1860.711 1230.251,1844.258 1221.331,1843.386 1215.794,1849.635 " />
<polygon stroke="black" stroke-width="1" fill="rgb(204, 204, 204)" fill-opacity="0.25" points="1200.842,1849.456 1191.195,1855.695 1200.149,1865.962 1205.624,1852.606 " />
<polygon stroke="black" stroke-width="1" fill="rgb(204, 204, 204)" fill-opacity="0.25" points="1230.251,1844.258 1231.664,1817.553 1222.659,1834.293 1221.331,1843.386 " />
<polygon stroke="black" stroke-width="1" fill="rgb(204, 204, 204)" fill-opacity="0.25" points="1200.815,1840.943 1193.295,1829.730 1191.195,1855.695 1200.842,1849.456 " />
<polygon stroke="black" stroke-width="1" fill="rgb(204, 204, 204)" fill-opacity="0.25" points="1231.664,1817.553 1212.423,1826.544 1211.661,1839.106 1222.659,1834.293 " />
<polygon stroke="black" stroke-width="1" fill="rgb(204, 204, 204)" fill-opacity="0.25" points="1211.661,1839.106 1212.423,1826.544 1193.295,1829.730 1200.815,1840.943 " />
<polygon stroke="black" stroke-width="1" fill="rgb(204, 204, 204)" fill-opacity="0.25" points="1211.661,1839.106 1210.540,1853.057 1215.794,1849.635 1222.659,1834.293 " />
<polygon stroke="black" stroke-width="1" fill="rgb(204, 204, 204)" fill-opacity="0.25" points="1205.624,1852.606 1210.540,1853.057 1211.661,1839.106 1200.815,1840.943 " />
<polygon stroke="black" stroke-width="1" fill="rgb(204, 204, 204)" fill-opacity="0.25" points="1222.659,1834.293 1215.794,1849.635 1221.331,1843.386 " />
<polygon stroke="black" stroke-width="1" fill="rgb(204, 204, 204)" fill-opacity="0.25" points="1200.842,1849.456 1205.624,1852.606 1200.815,1840.943 " />
<polygon stroke="black" stroke-width="1" fill="rgb(204, 204, 204)" fill-opacity="0.25" points="1085.766,1215.919 1129.381,1253.935 1134.387,1232.881 1102.347,1199.359 " />
<polygon stroke="black" stroke-width="1" fill="rgb(204, 204, 204)" fill-opacity="0.25" points="973.026,1369.549 991.968,1368.774 973.919,1317.813 955.359,1332.520 " />
<polygon stroke="black" stroke-width="1" fill="rgb(204, 204, 204)" fill-opacity="0.25" points="1045.442,1160.598 1085.766,1215.919 1102.347,1199.359 1079.196,1153.764 " />
<polygon stroke="black" stroke-width="1" fill="rgb(204, 204, 204)" fill-opacity="0.25" points="955.359,1332.520 973.919,1317.813 933.151,1273.057 921.586,1306.131 " />
<polygon stroke="black" stroke-width="1" fill="rgb(204, 204, 204)" fill-opacity="0.25" points="1037.870,1093.922 1045.442,1160.598 1079.196,1153.764 1072.556,1108.155 " />
<polygon stroke="black" stroke-width="1" fill="rgb(204, 204, 204)" fill-opacity="0.25" points="921.586,1306.131 933.151,1273.057 873.628,1267.100 882.392,1299.015 " />
<polygon stroke="black" stroke-width="1" fill="rgb(204, 204, 204)" fill-opacity="0.25" points="1129.381,1253.935 1166.599,1279.038 1167.643,1251.073 1134.387,1232.881 " />
<polygon stroke="black" stroke-width="1" fill="rgb(204, 204, 204)" fill-opacity="0.25" points="974.704,1406.295 997.055,1412.570 991.968,1368.774 973.026,1369.549 " />
<polygon stroke="black" stroke-width="1" fill="rgb(204, 204, 204)" fill-opacity="0.25" points="1166.599,1279.038 1266.607,1290.926 1242.594,1256.146 1167.643,1251.073 " />
<polygon stroke="black" stroke-width="1" fill="rgb(204, 204, 204)" fill-opacity="0.25" points="941.986,1477.541 953.133,1509.954 997.055,1412.570 974.704,1406.295 " />
<polygon stroke="black" stroke-width="1" fill="rgb(204, 204, 204)" fill-opacity="0.25" points="1266.607,1290.926 1301.306,1249.774 1272.767,1225.637 1242.594,1256.146 " />
<polygon stroke="black" stroke-width="1" fill="rgb(204, 204, 204)" fill-opacity="0.25" points="901.874,1494.157 901.710,1524.359 953.133,1509.954 941.986,1477.541 " />
<polygon stroke="black" stroke-width="1" fill="rgb(204, 204, 204)" fill-opacity="0.25" points="1301.306,1249.774 1315.859,1173.979 1290.125,1171.501 1272.767,1225.637 " />
<polygon stroke="black" stroke-width="1" fill="rgb(204, 204, 204)" fill-opacity="0.25" points="850.522,1493.128 836.464,1512.355 901.710,1524.359 901.874,1494.157 " />
<polygon stroke="black" stroke-width="1" fill="rgb(204, 204, 204)" fill-opacity="0.25" points="1315.859,1173.979 1293.438,1119.999 1266.874,1125.055 1290.125,1171.501 " />
<polygon stroke="black" stroke-width="1" fill="rgb(204, 204, 204)" fill-opacity="0.25" points="827.290,1465.607 808.547,1483.558 836.464,1512.355 850.522,1493.128 " />
<polygon stroke="black" stroke-width="1" fill="rgb(204, 204, 204)" fill-opacity="0.25" points="1293.438,1119.999 1256.074,1085.379 1239.207,1095.796 1266.874,1125.055 " />
<polygon stroke="black" stroke-width="1" fill="rgb(204, 204, 204)" fill-opacity="0.25" points="817.500,1439.745 800.873,1450.382 808.547,1483.558 827.290,1465.607 " />
<polygon stroke="black" stroke-width="1" fill="rgb(204, 204, 204)" fill-opacity="0.25" points="1256.074,1085.379 1163.679,1056.652 1166.234,1078.362 1239.207,1095.796 " />
<polygon stroke="black" stroke-width="1" fill="rgb(204, 204, 204)" fill-opacity="0.25" points="832.184,1380.001 814.428,1376.268 800.873,1450.382 817.500,1439.745 " />
<polygon stroke="black" stroke-width="1" fill="rgb(204, 204, 204)" fill-opacity="0.25" points="1163.679,1056.652 1108.404,1051.277 1122.685,1072.090 1166.234,1078.362 " />
<polygon stroke="black" stroke-width="1" fill="rgb(204, 204, 204)" fill-opacity="0.25" points="839.786,1343.115 824.860,1330.456 814.428,1376.268 832.184,1380.001 " />
<polygon stroke="black" stroke-width="1" fill="rgb(204, 204, 204)" fill-opacity="0.25" points="1108.404,1051.277 1072.346,1060.588 1093.256,1080.381 1122.685,1072.090 " />
<polygon stroke="black" stroke-width="1" fill="rgb(204, 204, 204)" fill-opacity="0.25" points="853.914,1317.749 839.698,1299.471 824.860,1330.456 839.786,1343.115 " />
<polygon stroke="black" stroke-width="1" fill="rgb(204, 204, 204)" fill-opacity="0.25" points="1072.346,1060.588 1037.870,1093.922 1072.556,1108.155 1093.256,1080.381 " />
<polygon stroke="black" stroke-width="1" fill="rgb(204, 204, 204)" fill-opacity="0.25" points="882.392,1299.015 873.628,1267.100 839.698,1299.471 853.914,1317.749 " />
<polygon stroke="black" stroke-width="1" fill="rgb(204, 204, 204)" fill-opacity="0.25" points="1093.256,1080.381 1072.556,1108.155 1093.794,1114.474 1103.426,1089.895 " />
<polygon stroke="black" stroke-width="1" fill="rgb(204, 204, 204)" fill-opacity="0.25" points="884.010,1318.725 882.392,1299.015 853.914,1317.749 860.197,1326.896 " />
<polygon stroke="black" stroke-width="1" fill="rgb(204, 204, 204)" fill-opacity="0.25" points="1122.685,1072.090 1093.256,1080.381 1103.426,1089.895 1128.680,1083.040 " />
<polygon stroke="black" stroke-width="1" fill="rgb(204, 204, 204)" fill-opacity="0.25" points="860.197,1326.896 853.914,1317.749 839.786,1343.115 847.736,1348.697 " />
<polygon stroke="black" stroke-width="1" fill="rgb(204, 204, 204)" fill-opacity="0.25" points="1166.234,1078.362 1122.685,1072.090 1128.680,1083.040 1167.268,1087.160 " />
<polygon stroke="black" stroke-width="1" fill="rgb(204, 204, 204)" fill-opacity="0.25" points="847.736,1348.697 839.786,1343.115 832.184,1380.001 839.341,1381.593 " />
<polygon stroke="black" stroke-width="1" fill="rgb(204, 204, 204)" fill-opacity="0.25" points="1239.207,1095.796 1166.234,1078.362 1167.268,1087.160 1231.404,1107.920 " />
<polygon stroke="black" stroke-width="1" fill="rgb(204, 204, 204)" fill-opacity="0.25" points="839.341,1381.593 832.184,1380.001 817.500,1439.745 831.057,1435.680 " />
<polygon stroke="black" stroke-width="1" fill="rgb(204, 204, 204)" fill-opacity="0.25" points="1266.874,1125.055 1239.207,1095.796 1231.404,1107.920 1255.154,1131.296 " />
<polygon stroke="black" stroke-width="1" fill="rgb(204, 204, 204)" fill-opacity="0.25" points="831.057,1435.680 817.500,1439.745 827.290,1465.607 838.416,1457.984 " />
<polygon stroke="black" stroke-width="1" fill="rgb(204, 204, 204)" fill-opacity="0.25" points="1290.125,1171.501 1266.874,1125.055 1255.154,1131.296 1272.058,1164.492 " />
<polygon stroke="black" stroke-width="1" fill="rgb(204, 204, 204)" fill-opacity="0.25" points="838.416,1457.984 827.290,1465.607 850.522,1493.128 855.542,1477.800 " />
<polygon stroke="black" stroke-width="1" fill="rgb(204, 204, 204)" fill-opacity="0.25" points="1272.767,1225.637 1290.125,1171.501 1272.058,1164.492 1260.521,1215.072 " />
<polygon stroke="black" stroke-width="1" fill="rgb(204, 204, 204)" fill-opacity="0.25" points="855.542,1477.800 850.522,1493.128 901.874,1494.157 900.975,1481.202 " />
<polygon stroke="black" stroke-width="1" fill="rgb(204, 204, 204)" fill-opacity="0.25" points="1242.594,1256.146 1272.767,1225.637 1260.521,1215.072 1235.324,1239.862 " />
<polygon stroke="black" stroke-width="1" fill="rgb(204, 204, 204)" fill-opacity="0.25" points="900.975,1481.202 901.874,1494.157 941.986,1477.541 933.689,1466.482 " />
<polygon stroke="black" stroke-width="1" fill="rgb(204, 204, 204)" fill-opacity="0.25" points="1167.643,1251.073 1242.594,1256.146 1235.324,1239.862 1168.587,1236.015 " />
<polygon stroke="black" stroke-width="1" fill="rgb(204, 204, 204)" fill-opacity="0.25" points="933.689,1466.482 941.986,1477.541 974.704,1406.295 962.367,1403.765 " />
<polygon stroke="black" stroke-width="1" fill="rgb(204, 204, 204)" fill-opacity="0.25" points="1134.387,1232.881 1167.643,1251.073 1168.587,1236.015 1137.972,1215.475 " />
<polygon stroke="black" stroke-width="1" fill="rgb(204, 204, 204)" fill-opacity="0.25" points="962.367,1403.765 974.704,1406.295 973.026,1369.549 957.483,1369.995 " />
<polygon stroke="black" stroke-width="1" fill="rgb(204, 204, 204)" fill-opacity="0.25" points="1072.556,1108.155 1079.196,1153.764 1094.166,1151.135 1093.794,1114.474 " />
<polygon stroke="black" stroke-width="1" fill="rgb(204, 204, 204)" fill-opacity="0.25" points="916.037,1320.451 921.586,1306.131 882.392,1299.015 884.010,1318.725 " />
<polygon stroke="black" stroke-width="1" fill="rgb(204, 204, 204)" fill-opacity="0.25" points="1079.196,1153.764 1102.347,1199.359 1116.992,1187.935 1094.166,1151.135 " />
<polygon stroke="black" stroke-width="1" fill="rgb(204, 204, 204)" fill-opacity="0.25" points="941.400,1345.613 955.359,1332.520 921.586,1306.131 916.037,1320.451 " />
<polygon stroke="black" stroke-width="1" fill="rgb(204, 204, 204)" fill-opacity="0.25" points="1102.347,1199.359 1134.387,1232.881 1137.972,1215.475 1116.992,1187.935 " />
<polygon stroke="black" stroke-width="1" fill="rgb(204, 204, 204)" fill-opacity="0.25" points="957.483,1369.995 973.026,1369.549 955.359,1332.520 941.400,1345.613 " />
<polygon stroke="black" stroke-width="1" fill="rgb(204, 204, 204)" fill-opacity="0.25" points="877.895,1111.658 917.323,1055.198 862.367,1006.851 817.214,1059.284 " />
<polygon stroke="black" stroke-width="1" fill="rgb(204, 204, 204)" fill-opacity="0.25" points="778.684,1113.638 830.932,1159.775 877.895,1111.658 817.214,1059.284 " />
<polygon stroke="black" stroke-width="1" fill="rgb(204, 204, 204)" fill-opacity="0.25" points="917.323,1055.198 1000.844,973.355 968.885,923.464 862.367,1006.851 " />
<polygon stroke="black" stroke-width="1" fill="rgb(204, 204, 204)" fill-opacity="0.25" points="719.339,1214.710 763.680,1242.433 830.932,1159.775 778.684,1113.638 " />
<polygon stroke="black" stroke-width="1" fill="rgb(204, 204, 204)" fill-opacity="0.25" points="1000.844,973.355 1049.992,951.318 1067.318,896.797 968.885,923.464 " />
<polygon stroke="black" stroke-width="1" fill="rgb(204, 204, 204)" fill-opacity="0.25" points="693.969,1289.449 743.005,1281.932 763.680,1242.433 719.339,1214.710 " />
<polygon stroke="black" stroke-width="1" fill="rgb(204, 204, 204)" fill-opacity="0.25" points="1049.992,951.318 1163.631,959.638 1211.914,915.240 1067.318,896.797 " />
<polygon stroke="black" stroke-width="1" fill="rgb(204, 204, 204)" fill-opacity="0.25" points="678.219,1388.184 730.793,1366.915 743.005,1281.932 693.969,1289.449 " />
<polygon stroke="black" stroke-width="1" fill="rgb(204, 204, 204)" fill-opacity="0.25" points="1163.631,959.638 1305.446,1028.263 1363.470,1005.325 1211.914,915.240 " />
<polygon stroke="black" stroke-width="1" fill="rgb(204, 204, 204)" fill-opacity="0.25" points="676.190,1490.136 728.910,1469.695 730.793,1366.915 678.219,1388.184 " />
<polygon stroke="black" stroke-width="1" fill="rgb(204, 204, 204)" fill-opacity="0.25" points="1305.446,1028.263 1363.863,1083.366 1431.102,1082.418 1363.470,1005.325 " />
<polygon stroke="black" stroke-width="1" fill="rgb(204, 204, 204)" fill-opacity="0.25" points="684.752,1542.948 735.537,1515.886 728.910,1469.695 676.190,1490.136 " />
<polygon stroke="black" stroke-width="1" fill="rgb(204, 204, 204)" fill-opacity="0.25" points="1363.863,1083.366 1449.130,1208.936 1494.697,1240.480 1431.102,1082.418 " />
<polygon stroke="black" stroke-width="1" fill="rgb(204, 204, 204)" fill-opacity="0.25" points="735.612,1629.684 758.336,1599.573 735.537,1515.886 684.752,1542.948 " />
<polygon stroke="black" stroke-width="1" fill="rgb(204, 204, 204)" fill-opacity="0.25" points="1449.130,1208.936 1406.002,1299.876 1471.233,1351.566 1494.697,1240.480 " />
<polygon stroke="black" stroke-width="1" fill="rgb(204, 204, 204)" fill-opacity="0.25" points="822.829,1673.562 855.102,1615.885 758.336,1599.573 735.612,1629.684 " />
<polygon stroke="black" stroke-width="1" fill="rgb(204, 204, 204)" fill-opacity="0.25" points="1406.002,1299.876 1386.344,1403.697 1427.390,1432.489 1471.233,1351.566 " />
<polygon stroke="black" stroke-width="1" fill="rgb(204, 204, 204)" fill-opacity="0.25" points="906.730,1690.959 931.661,1650.969 855.102,1615.885 822.829,1673.562 " />
<polygon stroke="black" stroke-width="1" fill="rgb(204, 204, 204)" fill-opacity="0.25" points="1380.944,1981.115 1425.225,1961.196 1469.344,1802.783 1391.620,1890.648 " />
<polygon stroke="black" stroke-width="1" fill="rgb(204, 204, 204)" fill-opacity="0.25" points="909.655,1931.224 896.233,2029.746 943.485,2037.353 983.449,1970.927 " />
<polygon stroke="black" stroke-width="1" fill="rgb(204, 204, 204)" fill-opacity="0.25" points="1259.116,2030.112 1380.944,1981.115 1391.620,1890.648 1303.031,1943.192 " />
<polygon stroke="black" stroke-width="1" fill="rgb(204, 204, 204)" fill-opacity="0.25" points="983.449,1970.927 943.485,2037.353 1062.424,2053.393 1070.491,1985.660 " />
<polygon stroke="black" stroke-width="1" fill="rgb(204, 204, 204)" fill-opacity="0.25" points="1185.292,1982.072 1259.116,2030.112 1303.031,1943.192 1252.154,1928.414 " />
<polygon stroke="black" stroke-width="1" fill="rgb(204, 204, 204)" fill-opacity="0.25" points="1070.491,1985.660 1062.424,2053.393 1185.292,1982.072 1139.392,1952.028 " />
<polygon stroke="black" stroke-width="1" fill="rgb(204, 204, 204)" fill-opacity="0.25" points="1244.535,1898.541 1201.414,1917.356 1185.292,1982.072 1252.154,1928.414 " />
<polygon stroke="black" stroke-width="1" fill="rgb(204, 204, 204)" fill-opacity="0.25" points="1185.292,1982.072 1201.414,1917.356 1160.775,1918.514 1139.392,1952.028 " />
<polygon stroke="black" stroke-width="1" fill="rgb(204, 204, 204)" fill-opacity="0.25" points="1268.619,1881.120 1244.535,1898.541 1252.154,1928.414 1278.367,1891.172 " />
<polygon stroke="black" stroke-width="1" fill="rgb(204, 204, 204)" fill-opacity="0.25" points="1139.392,1952.028 1160.775,1918.514 1139.338,1913.109 1124.538,1927.400 " />
<polygon stroke="black" stroke-width="1" fill="rgb(204, 204, 204)" fill-opacity="0.25" points="1275.837,1869.805 1268.619,1881.120 1278.367,1891.172 1315.209,1872.714 " />
<polygon stroke="black" stroke-width="1" fill="rgb(204, 204, 204)" fill-opacity="0.25" points="1124.538,1927.400 1139.338,1913.109 1134.562,1905.875 1087.256,1927.342 " />
<polygon stroke="black" stroke-width="1" fill="rgb(204, 204, 204)" fill-opacity="0.25" points="1295.938,1823.816 1275.837,1869.805 1315.209,1872.714 1383.496,1802.279 " />
<polygon stroke="black" stroke-width="1" fill="rgb(204, 204, 204)" fill-opacity="0.25" points="1087.256,1927.342 1134.562,1905.875 1122.227,1874.025 1021.909,1900.191 " />
<polygon stroke="black" stroke-width="1" fill="rgb(204, 204, 204)" fill-opacity="0.25" points="1315.209,1872.714 1303.031,1943.192 1391.620,1890.648 1383.496,1802.279 " />
<polygon stroke="black" stroke-width="1" fill="rgb(204, 204, 204)" fill-opacity="0.25" points="983.449,1970.927 1070.491,1985.660 1087.256,1927.342 1021.909,1900.191 " />
<polygon stroke="black" stroke-width="1" fill="rgb(204, 204, 204)" fill-opacity="0.25" points="1315.209,1872.714 1278.367,1891.172 1252.154,1928.414 1303.031,1943.192 " />
<polygon stroke="black" stroke-width="1" fill="rgb(204, 204, 204)" fill-opacity="0.25" points="1139.392,1952.028 1124.538,1927.400 1087.256,1927.342 1070.491,1985.660 " />
<polygon stroke="black" stroke-width="1" fill="rgb(204, 204, 204)" fill-opacity="0.25" points="1409.048,1694.958 1383.496,1802.279 1391.620,1890.648 1469.344,1802.783 " />
<polygon stroke="black" stroke-width="1" fill="rgb(204, 204, 204)" fill-opacity="0.25" points="983.449,1970.927 1021.909,1900.191 997.934,1834.911 909.655,1931.224 " />
<polygon stroke="black" stroke-width="1" fill="rgb(204, 204, 204)" fill-opacity="0.25" points="1330.891,1718.862 1295.938,1823.816 1383.496,1802.279 1409.048,1694.958 " />
<polygon stroke="black" stroke-width="1" fill="rgb(204, 204, 204)" fill-opacity="0.25" points="1021.909,1900.191 1122.227,1874.025 1088.115,1807.002 997.934,1834.911 " />
<polygon stroke="black" stroke-width="1" fill="rgb(204, 204, 204)" fill-opacity="0.25" points="1345.852,1634.804 1407.866,1632.830 1388.294,1581.649 1346.779,1586.643 " />
<polygon stroke="black" stroke-width="1" fill="rgb(204, 204, 204)" fill-opacity="0.25" points="1002.180,1749.051 992.347,1793.095 1059.721,1755.341 1045.943,1723.979 " />
<polygon stroke="black" stroke-width="1" fill="rgb(204, 204, 204)" fill-opacity="0.25" points="1330.891,1718.862 1409.048,1694.958 1407.866,1632.830 1345.852,1634.804 " />
<polygon stroke="black" stroke-width="1" fill="rgb(204, 204, 204)" fill-opacity="0.25" points="992.347,1793.095 997.934,1834.911 1088.115,1807.002 1059.721,1755.341 " />
<polygon stroke="black" stroke-width="1" fill="rgb(204, 204, 204)" fill-opacity="0.25" points="1341.966,1529.900 1346.779,1586.643 1388.294,1581.649 1371.551,1541.082 " />
<polygon stroke="black" stroke-width="1" fill="rgb(204, 204, 204)" fill-opacity="0.25" points="1002.180,1749.051 1045.943,1723.979 1030.521,1685.558 1006.389,1713.504 " />
<polygon stroke="black" stroke-width="1" fill="rgb(204, 204, 204)" fill-opacity="0.25" points="1341.966,1529.900 1371.551,1541.082 1427.390,1432.489 1386.344,1403.697 " />
<polygon stroke="black" stroke-width="1" fill="rgb(204, 204, 204)" fill-opacity="0.25" points="906.730,1690.959 1006.389,1713.504 1030.521,1685.558 931.661,1650.969 " />
<polygon stroke="black" stroke-width="1" fill="rgb(204, 204, 204)" fill-opacity="0.25" points="1938.170,1883.886 1848.058,1757.987 1783.996,1796.510 1829.694,1969.289 " />
<polygon stroke="black" stroke-width="1" fill="rgb(204, 204, 204)" fill-opacity="0.25" points="410.695,1893.108 310.933,1842.451 161.712,1923.648 291.460,2004.106 " />
<polygon stroke="black" stroke-width="1" fill="rgb(204, 204, 204)" fill-opacity="0.25" points="1829.694,1969.289 1783.996,1796.510 1683.301,1819.867 1670.106,2012.017 " />
<polygon stroke="black" stroke-width="1" fill="rgb(204, 204, 204)" fill-opacity="0.25" points="571.777,1938.775 410.695,1893.108 291.460,2004.106 490.475,2050.163 " />
<polygon stroke="black" stroke-width="1" fill="rgb(204, 204, 204)" fill-opacity="0.25" points="1670.106,2012.017 1683.301,1819.867 1515.432,1800.579 1464.071,1961.635 " />
<polygon stroke="black" stroke-width="1" fill="rgb(204, 204, 204)" fill-opacity="0.25" points="845.374,1939.721 571.777,1938.775 490.475,2050.163 839.324,2033.912 " />
<polygon stroke="black" stroke-width="1" fill="rgb(204, 204, 204)" fill-opacity="0.25" points="1464.071,1961.635 1515.432,1800.579 1469.344,1802.783 1425.225,1961.196 " />
<polygon stroke="black" stroke-width="1" fill="rgb(204, 204, 204)" fill-opacity="0.25" points="909.655,1931.224 845.374,1939.721 839.324,2033.912 896.233,2029.746 " />
<polygon stroke="black" stroke-width="1" fill="rgb(204, 204, 204)" fill-opacity="0.25" points="1409.048,1694.958 1469.344,1802.783 1515.432,1800.579 1407.866,1632.830 " />
<polygon stroke="black" stroke-width="1" fill="rgb(204, 204, 204)" fill-opacity="0.25" points="845.374,1939.721 909.655,1931.224 997.934,1834.911 992.347,1793.095 " />
<polygon stroke="black" stroke-width="1" fill="rgb(204, 204, 204)" fill-opacity="0.25" points="1494.697,1240.480 1471.233,1351.566 1620.751,1452.279 1653.368,1348.862 " />
<polygon stroke="black" stroke-width="1" fill="rgb(204, 204, 204)" fill-opacity="0.25" points="686.476,1761.092 822.829,1673.562 735.612,1629.684 608.787,1700.833 " />
<polygon stroke="black" stroke-width="1" fill="rgb(204, 204, 204)" fill-opacity="0.25" points="2039.074,1700.465 1898.582,1610.035 1848.058,1757.987 1938.170,1883.886 " />
<polygon stroke="black" stroke-width="1" fill="rgb(204, 204, 204)" fill-opacity="0.25" points="310.933,1842.451 245.394,1726.040 24.454,1733.179 161.712,1923.648 " />
<polygon stroke="black" stroke-width="1" fill="rgb(204, 204, 204)" fill-opacity="0.25" points="1826.332,1033.128 1740.664,1124.568 1847.586,1270.924 1982.648,1254.664 " />
<polygon stroke="black" stroke-width="1" fill="rgb(204, 204, 204)" fill-opacity="0.25" points="300.130,1557.547 383.838,1526.425 233.025,1370.162 102.240,1410.367 " />
<polygon stroke="black" stroke-width="1" fill="rgb(204, 204, 204)" fill-opacity="0.25" points="1982.648,1254.664 1847.586,1270.924 1906.872,1410.505 2055.872,1503.956 " />
<polygon stroke="black" stroke-width="1" fill="rgb(204, 204, 204)" fill-opacity="0.25" points="236.113,1601.589 300.130,1557.547 102.240,1410.367 2.694,1546.863 " />
<polygon stroke="black" stroke-width="1" fill="rgb(204, 204, 204)" fill-opacity="0.25" points="2055.872,1503.956 1906.872,1410.505 1898.582,1610.035 2039.074,1700.465 " />
<polygon stroke="black" stroke-width="1" fill="rgb(204, 204, 204)" fill-opacity="0.25" points="245.394,1726.040 236.113,1601.589 2.694,1546.863 24.454,1733.179 " />
<polygon stroke="black" stroke-width="1" fill="rgb(204, 204, 204)" fill-opacity="0.25" points="1433.775,1027.793 1431.102,1082.418 1524.411,1128.469 1567.207,1108.790 " />
<polygon stroke="black" stroke-width="1" fill="rgb(204, 204, 204)" fill-opacity="0.25" points="632.546,1584.179 684.752,1542.948 641.693,1519.080 575.597,1574.761 " />
<polygon stroke="black" stroke-width="1" fill="rgb(204, 204, 204)" fill-opacity="0.25" points="1567.207,1108.790 1524.411,1128.469 1676.690,1244.102 1737.518,1230.242 " />
<polygon stroke="black" stroke-width="1" fill="rgb(204, 204, 204)" fill-opacity="0.25" points="530.106,1635.360 632.546,1584.179 575.597,1574.761 442.436,1603.113 " />
<polygon stroke="black" stroke-width="1" fill="rgb(204, 204, 204)" fill-opacity="0.25" points="1737.518,1230.242 1676.690,1244.102 1762.031,1336.722 1819.646,1343.475 " />
<polygon stroke="black" stroke-width="1" fill="rgb(204, 204, 204)" fill-opacity="0.25" points="452.263,1658.213 530.106,1635.360 442.436,1603.113 364.877,1627.504 " />
<polygon stroke="black" stroke-width="1" fill="rgb(204, 204, 204)" fill-opacity="0.25" points="1819.646,1343.475 1762.031,1336.722 1804.498,1433.765 1857.723,1448.868 " />
<polygon stroke="black" stroke-width="1" fill="rgb(204, 204, 204)" fill-opacity="0.25" points="405.407,1691.075 452.263,1658.213 364.877,1627.504 319.475,1663.791 " />
<polygon stroke="black" stroke-width="1" fill="rgb(204, 204, 204)" fill-opacity="0.25" points="1781.774,1513.869 1842.070,1575.675 1857.723,1448.868 1804.498,1433.765 " />
<polygon stroke="black" stroke-width="1" fill="rgb(204, 204, 204)" fill-opacity="0.25" points="319.475,1663.791 345.029,1743.955 437.213,1744.380 405.407,1691.075 " />
<polygon stroke="black" stroke-width="1" fill="rgb(204, 204, 204)" fill-opacity="0.25" points="1898.582,1610.035 1906.872,1410.505 1857.723,1448.868 1842.070,1575.675 " />
<polygon stroke="black" stroke-width="1" fill="rgb(204, 204, 204)" fill-opacity="0.25" points="319.475,1663.791 236.113,1601.589 245.394,1726.040 345.029,1743.955 " />
<polygon stroke="black" stroke-width="1" fill="rgb(204, 204, 204)" fill-opacity="0.25" points="1906.872,1410.505 1847.586,1270.924 1819.646,1343.475 1857.723,1448.868 " />
<polygon stroke="black" stroke-width="1" fill="rgb(204, 204, 204)" fill-opacity="0.25" points="364.877,1627.504 300.130,1557.547 236.113,1601.589 319.475,1663.791 " />
<polygon stroke="black" stroke-width="1" fill="rgb(204, 204, 204)" fill-opacity="0.25" points="1847.586,1270.924 1740.664,1124.568 1737.518,1230.242 1819.646,1343.475 " />
<polygon stroke="black" stroke-width="1" fill="rgb(204, 204, 204)" fill-opacity="0.25" points="442.436,1603.113 383.838,1526.425 300.130,1557.547 364.877,1627.504 " />
<polygon stroke="black" stroke-width="1" fill="rgb(204, 204, 204)" fill-opacity="0.25" points="1740.664,1124.568 1518.091,978.651 1567.207,1108.790 1737.518,1230.242 " />
<polygon stroke="black" stroke-width="1" fill="rgb(204, 204, 204)" fill-opacity="0.25" points="575.597,1574.761 531.901,1499.109 383.838,1526.425 442.436,1603.113 " />
<polygon stroke="black" stroke-width="1" fill="rgb(204, 204, 204)" fill-opacity="0.25" points="1430.564,928.012 1433.775,1027.793 1567.207,1108.790 1518.091,978.651 " />
<polygon stroke="black" stroke-width="1" fill="rgb(204, 204, 204)" fill-opacity="0.25" points="575.597,1574.761 641.693,1519.080 566.256,1464.979 531.901,1499.109 " />
<polygon stroke="black" stroke-width="1" fill="rgb(204, 204, 204)" fill-opacity="0.25" points="1588.070,829.692 1518.091,978.651 1740.664,1124.568 1826.332,1033.128 " />
<polygon stroke="black" stroke-width="1" fill="rgb(204, 204, 204)" fill-opacity="0.25" points="383.838,1526.425 531.901,1499.109 374.574,1336.737 233.025,1370.162 " />
<polygon stroke="black" stroke-width="1" fill="rgb(204, 204, 204)" fill-opacity="0.25" points="1498.708,813.440 1363.179,798.857 1344.947,844.726 1430.564,928.012 " />
<polygon stroke="black" stroke-width="1" fill="rgb(204, 204, 204)" fill-opacity="0.25" points="556.119,1395.132 511.552,1359.007 434.478,1360.326 566.256,1464.979 " />
<polygon stroke="black" stroke-width="1" fill="rgb(204, 204, 204)" fill-opacity="0.25" points="1498.708,813.440 1430.564,928.012 1518.091,978.651 1588.070,829.692 " />
<polygon stroke="black" stroke-width="1" fill="rgb(204, 204, 204)" fill-opacity="0.25" points="531.901,1499.109 566.256,1464.979 434.478,1360.326 374.574,1336.737 " />
<polygon stroke="black" stroke-width="1" fill="rgb(204, 204, 204)" fill-opacity="0.25" points="1494.230,772.422 1498.708,813.440 1588.070,829.692 " />
<polygon stroke="black" stroke-width="1" fill="rgb(204, 204, 204)" fill-opacity="0.25" points="374.574,1336.737 434.478,1360.326 414.417,1307.807 " />
<polygon stroke="black" stroke-width="1" fill="rgb(204, 204, 204)" fill-opacity="0.25" points="1431.102,1082.418 1494.697,1240.480 1653.368,1348.862 1524.411,1128.469 " />
<polygon stroke="black" stroke-width="1" fill="rgb(204, 204, 204)" fill-opacity="0.25" points="608.787,1700.833 735.612,1629.684 684.752,1542.948 632.546,1584.179 " />
<polygon stroke="black" stroke-width="1" fill="rgb(204, 204, 204)" fill-opacity="0.25" points="1653.368,1348.862 1698.088,1365.626 1676.690,1244.102 1524.411,1128.469 " />
<polygon stroke="black" stroke-width="1" fill="rgb(204, 204, 204)" fill-opacity="0.25" points="530.106,1635.360 555.050,1701.500 608.787,1700.833 632.546,1584.179 " />
<polygon stroke="black" stroke-width="1" fill="rgb(204, 204, 204)" fill-opacity="0.25" points="1698.088,1365.626 1747.558,1427.819 1762.031,1336.722 1676.690,1244.102 " />
<polygon stroke="black" stroke-width="1" fill="rgb(204, 204, 204)" fill-opacity="0.25" points="452.263,1658.213 503.610,1718.698 555.050,1701.500 530.106,1635.360 " />
<polygon stroke="black" stroke-width="1" fill="rgb(204, 204, 204)" fill-opacity="0.25" points="1781.774,1513.869 1804.498,1433.765 1762.031,1336.722 1747.558,1427.819 " />
<polygon stroke="black" stroke-width="1" fill="rgb(204, 204, 204)" fill-opacity="0.25" points="452.263,1658.213 405.407,1691.075 437.213,1744.380 503.610,1718.698 " />
<polygon stroke="black" stroke-width="1" fill="rgb(204, 204, 204)" fill-opacity="0.25" points="1515.432,1800.579 1683.301,1819.867 1689.597,1708.533 1561.687,1605.290 " />
<polygon stroke="black" stroke-width="1" fill="rgb(204, 204, 204)" fill-opacity="0.25" points="599.077,1883.640 571.777,1938.775 845.374,1939.721 797.760,1835.999 " />
<polygon stroke="black" stroke-width="1" fill="rgb(204, 204, 204)" fill-opacity="0.25" points="1620.751,1452.279 1561.687,1605.290 1689.597,1708.533 1686.319,1599.248 " />
<polygon stroke="black" stroke-width="1" fill="rgb(204, 204, 204)" fill-opacity="0.25" points="599.077,1883.640 797.760,1835.999 686.476,1761.092 614.694,1830.458 " />
<polygon stroke="black" stroke-width="1" fill="rgb(204, 204, 204)" fill-opacity="0.25" points="1471.233,1351.566 1427.390,1432.489 1561.687,1605.290 1620.751,1452.279 " />
<polygon stroke="black" stroke-width="1" fill="rgb(204, 204, 204)" fill-opacity="0.25" points="797.760,1835.999 906.730,1690.959 822.829,1673.562 686.476,1761.092 " />
<polygon stroke="black" stroke-width="1" fill="rgb(204, 204, 204)" fill-opacity="0.25" points="1427.390,1432.489 1388.294,1581.649 1407.866,1632.830 1561.687,1605.290 " />
<polygon stroke="black" stroke-width="1" fill="rgb(204, 204, 204)" fill-opacity="0.25" points="992.347,1793.095 1002.180,1749.051 906.730,1690.959 797.760,1835.999 " />
<polygon stroke="black" stroke-width="1" fill="rgb(204, 204, 204)" fill-opacity="0.25" points="1407.866,1632.830 1515.432,1800.579 1561.687,1605.290 " />
<polygon stroke="black" stroke-width="1" fill="rgb(204, 204, 204)" fill-opacity="0.25" points="797.760,1835.999 845.374,1939.721 992.347,1793.095 " />
<polygon stroke="black" stroke-width="1" fill="rgb(204, 204, 204)" fill-opacity="0.25" points="1427.390,1432.489 1371.551,1541.082 1388.294,1581.649 " />
<polygon stroke="black" stroke-width="1" fill="rgb(204, 204, 204)" fill-opacity="0.25" points="1002.180,1749.051 1006.389,1713.504 906.730,1690.959 " />
<polygon stroke="black" stroke-width="1" fill="rgb(204, 204, 204)" fill-opacity="0.25" points="1781.774,1513.869 1777.605,1625.745 1809.925,1695.973 1842.070,1575.675 " />
<polygon stroke="black" stroke-width="1" fill="rgb(204, 204, 204)" fill-opacity="0.25" points="398.733,1828.270 478.711,1808.856 437.213,1744.380 345.029,1743.955 " />
<polygon stroke="black" stroke-width="1" fill="rgb(204, 204, 204)" fill-opacity="0.25" points="1898.582,1610.035 1842.070,1575.675 1809.925,1695.973 1848.058,1757.987 " />
<polygon stroke="black" stroke-width="1" fill="rgb(204, 204, 204)" fill-opacity="0.25" points="398.733,1828.270 345.029,1743.955 245.394,1726.040 310.933,1842.451 " />
<polygon stroke="black" stroke-width="1" fill="rgb(204, 204, 204)" fill-opacity="0.25" points="1686.319,1599.248 1689.597,1708.533 1809.925,1695.973 1777.605,1625.745 " />
<polygon stroke="black" stroke-width="1" fill="rgb(204, 204, 204)" fill-opacity="0.25" points="398.733,1828.270 599.077,1883.640 614.694,1830.458 478.711,1808.856 " />
<polygon stroke="black" stroke-width="1" fill="rgb(204, 204, 204)" fill-opacity="0.25" points="1683.301,1819.867 1783.996,1796.510 1809.925,1695.973 1689.597,1708.533 " />
<polygon stroke="black" stroke-width="1" fill="rgb(204, 204, 204)" fill-opacity="0.25" points="398.733,1828.270 410.695,1893.108 571.777,1938.775 599.077,1883.640 " />
<polygon stroke="black" stroke-width="1" fill="rgb(204, 204, 204)" fill-opacity="0.25" points="1848.058,1757.987 1809.925,1695.973 1783.996,1796.510 " />
<polygon stroke="black" stroke-width="1" fill="rgb(204, 204, 204)" fill-opacity="0.25" points="410.695,1893.108 398.733,1828.270 310.933,1842.451 " />
<polygon stroke="black" stroke-width="1" fill="rgb(204, 204, 204)" fill-opacity="0.25" points="972.732,120.286 824.437,106.720 809.285,146.080 918.937,148.399 " />
<polygon stroke="black" stroke-width="1" fill="rgb(204, 204, 204)" fill-opacity="0.25" points="601.085,117.251 629.775,76.684 501.393,59.132 520.366,94.720 " />
<polygon stroke="black" stroke-width="1" fill="rgb(204, 204, 204)" fill-opacity="0.25" points="972.732,120.286 918.937,148.399 1051.342,200.528 1135.659,175.153 " />
<polygon stroke="black" stroke-width="1" fill="rgb(204, 204, 204)" fill-opacity="0.25" points="366.885,146.113 520.366,94.720 501.393,59.132 303.399,130.780 " />
<polygon stroke="black" stroke-width="1" fill="rgb(204, 204, 204)" fill-opacity="0.25" points="1135.659,175.153 1051.342,200.528 1007.934,304.519 1075.311,309.888 " />
<polygon stroke="black" stroke-width="1" fill="rgb(204, 204, 204)" fill-opacity="0.25" points="324.699,299.207 366.885,146.113 303.399,130.780 268.329,314.533 " />
<polygon stroke="black" stroke-width="1" fill="rgb(204, 204, 204)" fill-opacity="0.25" points="1075.311,309.888 1007.934,304.519 894.077,394.084 918.122,406.520 " />
<polygon stroke="black" stroke-width="1" fill="rgb(204, 204, 204)" fill-opacity="0.25" points="364.045,455.254 324.699,299.207 268.329,314.533 340.911,480.036 " />
<polygon stroke="black" stroke-width="1" fill="rgb(204, 204, 204)" fill-opacity="0.25" points="918.122,406.520 894.077,394.084 784.234,503.079 790.409,538.313 " />
<polygon stroke="black" stroke-width="1" fill="rgb(204, 204, 204)" fill-opacity="0.25" points="424.755,608.705 364.045,455.254 340.911,480.036 412.826,669.262 " />
<polygon stroke="black" stroke-width="1" fill="rgb(204, 204, 204)" fill-opacity="0.25" points="790.409,538.313 784.234,503.079 673.088,660.975 658.194,742.509 " />
<polygon stroke="black" stroke-width="1" fill="rgb(204, 204, 204)" fill-opacity="0.25" points="512.871,747.354 424.755,608.705 412.826,669.262 517.734,837.999 " />
<polygon stroke="black" stroke-width="1" fill="rgb(204, 204, 204)" fill-opacity="0.25" points="784.234,503.079 803.337,444.814 702.262,578.548 673.088,660.975 " />
<polygon stroke="black" stroke-width="1" fill="rgb(204, 204, 204)" fill-opacity="0.25" points="491.035,663.679 420.489,524.805 424.755,608.705 512.871,747.354 " />
<polygon stroke="black" stroke-width="1" fill="rgb(204, 204, 204)" fill-opacity="0.25" points="894.077,394.084 888.395,375.017 803.337,444.814 784.234,503.079 " />
<polygon stroke="black" stroke-width="1" fill="rgb(204, 204, 204)" fill-opacity="0.25" points="420.489,524.805 375.905,421.188 364.045,455.254 424.755,608.705 " />
<polygon stroke="black" stroke-width="1" fill="rgb(204, 204, 204)" fill-opacity="0.25" points="1007.934,304.519 964.747,314.458 888.395,375.017 894.077,394.084 " />
<polygon stroke="black" stroke-width="1" fill="rgb(204, 204, 204)" fill-opacity="0.25" points="375.905,421.188 350.842,315.686 324.699,299.207 364.045,455.254 " />
<polygon stroke="black" stroke-width="1" fill="rgb(204, 204, 204)" fill-opacity="0.25" points="1051.342,200.528 979.307,248.796 964.747,314.458 1007.934,304.519 " />
<polygon stroke="black" stroke-width="1" fill="rgb(204, 204, 204)" fill-opacity="0.25" points="350.842,315.686 386.587,210.702 366.885,146.113 324.699,299.207 " />
<polygon stroke="black" stroke-width="1" fill="rgb(204, 204, 204)" fill-opacity="0.25" points="918.937,148.399 894.971,207.723 979.307,248.796 1051.342,200.528 " />
<polygon stroke="black" stroke-width="1" fill="rgb(204, 204, 204)" fill-opacity="0.25" points="386.587,210.702 482.720,164.639 520.366,94.720 366.885,146.113 " />
<polygon stroke="black" stroke-width="1" fill="rgb(204, 204, 204)" fill-opacity="0.25" points="918.937,148.399 809.285,146.080 809.496,201.408 894.971,207.723 " />
<polygon stroke="black" stroke-width="1" fill="rgb(204, 204, 204)" fill-opacity="0.25" points="547.708,174.156 601.085,117.251 520.366,94.720 482.720,164.639 " />
<polygon stroke="black" stroke-width="1" fill="rgb(204, 204, 204)" fill-opacity="0.25" points="1620.751,1452.279 1686.319,1599.248 1699.238,1529.160 1670.029,1486.407 " />
<polygon stroke="black" stroke-width="1" fill="rgb(204, 204, 204)" fill-opacity="0.25" points="588.859,1792.195 614.694,1830.458 686.476,1761.092 625.445,1775.686 " />
<polygon stroke="black" stroke-width="1" fill="rgb(204, 204, 204)" fill-opacity="0.25" points="587.736,949.460 658.194,742.509 673.088,660.975 613.655,678.467 " />
<polygon stroke="black" stroke-width="1" fill="rgb(204, 204, 204)" fill-opacity="0.25" points="512.871,747.354 517.734,837.999 563.919,976.406 572.666,704.148 " />
<polygon stroke="black" stroke-width="1" fill="rgb(204, 204, 204)" fill-opacity="0.25" points="1653.368,1348.862 1620.751,1452.279 1670.029,1486.407 1698.088,1365.626 " />
<polygon stroke="black" stroke-width="1" fill="rgb(204, 204, 204)" fill-opacity="0.25" points="625.445,1775.686 686.476,1761.092 608.787,1700.833 555.050,1701.500 " />
<polygon stroke="black" stroke-width="1" fill="rgb(204, 204, 204)" fill-opacity="0.25" points="719.267,144.666 714.305,184.104 809.285,146.080 824.437,106.720 " />
<polygon stroke="black" stroke-width="1" fill="rgb(204, 204, 204)" fill-opacity="0.25" points="601.085,117.251 636.932,176.451 671.765,138.892 629.775,76.684 " />
<polygon stroke="black" stroke-width="1" fill="rgb(204, 204, 204)" fill-opacity="0.25" points="673.088,660.975 702.262,578.548 680.792,525.849 613.655,678.467 " />
<polygon stroke="black" stroke-width="1" fill="rgb(204, 204, 204)" fill-opacity="0.25" points="517.017,579.799 491.035,663.679 512.871,747.354 572.666,704.148 " />
<polygon stroke="black" stroke-width="1" fill="rgb(204, 204, 204)" fill-opacity="0.25" points="681.747,485.053 603.829,585.869 613.655,678.467 680.792,525.849 " />
<polygon stroke="black" stroke-width="1" fill="rgb(204, 204, 204)" fill-opacity="0.25" points="572.666,704.148 588.771,596.101 520.722,530.360 517.017,579.799 " />
<polygon stroke="black" stroke-width="1" fill="rgb(204, 204, 204)" fill-opacity="0.25" points="653.466,430.164 603.829,585.869 681.747,485.053 677.474,441.224 " />
<polygon stroke="black" stroke-width="1" fill="rgb(204, 204, 204)" fill-opacity="0.25" points="520.722,530.360 588.771,596.101 558.207,451.679 532.487,474.415 " />
<polygon stroke="black" stroke-width="1" fill="rgb(204, 204, 204)" fill-opacity="0.25" points="688.124,312.687 644.101,284.064 603.829,585.869 653.466,430.164 " />
<polygon stroke="black" stroke-width="1" fill="rgb(204, 204, 204)" fill-opacity="0.25" points="588.771,596.101 624.475,286.174 566.999,319.214 558.207,451.679 " />
<polygon stroke="black" stroke-width="1" fill="rgb(204, 204, 204)" fill-opacity="0.25" points="714.305,184.104 644.101,284.064 688.124,312.687 739.342,237.261 " />
<polygon stroke="black" stroke-width="1" fill="rgb(204, 204, 204)" fill-opacity="0.25" points="566.999,319.214 624.475,286.174 636.932,176.451 570.766,227.297 " />
<polygon stroke="black" stroke-width="1" fill="rgb(204, 204, 204)" fill-opacity="0.25" points="809.285,146.080 714.305,184.104 739.342,237.261 809.496,201.408 " />
<polygon stroke="black" stroke-width="1" fill="rgb(204, 204, 204)" fill-opacity="0.25" points="570.766,227.297 636.932,176.451 601.085,117.251 547.708,174.156 " />
<polygon stroke="black" stroke-width="1" fill="rgb(204, 204, 204)" fill-opacity="0.25" points="1698.088,1365.626 1728.554,1465.246 1743.402,1453.232 1747.558,1427.819 " />
<polygon stroke="black" stroke-width="1" fill="rgb(204, 204, 204)" fill-opacity="0.25" points="504.827,1729.249 530.744,1743.823 555.050,1701.500 503.610,1718.698 " />
<polygon stroke="black" stroke-width="1" fill="rgb(204, 204, 204)" fill-opacity="0.25" points="1698.088,1365.626 1670.029,1486.407 1708.340,1510.160 1728.554,1465.246 " />
<polygon stroke="black" stroke-width="1" fill="rgb(204, 204, 204)" fill-opacity="0.25" points="571.445,1780.043 625.445,1775.686 555.050,1701.500 530.744,1743.823 " />
<polygon stroke="black" stroke-width="1" fill="rgb(204, 204, 204)" fill-opacity="0.25" points="1670.029,1486.407 1699.238,1529.160 1708.340,1510.160 " />
<polygon stroke="black" stroke-width="1" fill="rgb(204, 204, 204)" fill-opacity="0.25" points="571.445,1780.043 588.859,1792.195 625.445,1775.686 " />
<polygon stroke="black" stroke-width="1" fill="rgb(204, 204, 204)" fill-opacity="0.25" points="809.496,201.408 739.342,237.261 755.904,266.934 820.768,232.593 " />
<polygon stroke="black" stroke-width="1" fill="rgb(204, 204, 204)" fill-opacity="0.25" points="535.739,261.224 570.766,227.297 547.708,174.156 512.904,208.625 " />
<polygon stroke="black" stroke-width="1" fill="rgb(204, 204, 204)" fill-opacity="0.25" points="739.342,237.261 688.124,312.687 712.818,326.430 755.904,266.934 " />
<polygon stroke="black" stroke-width="1" fill="rgb(204, 204, 204)" fill-opacity="0.25" points="537.873,337.987 566.999,319.214 570.766,227.297 535.739,261.224 " />
<polygon stroke="black" stroke-width="1" fill="rgb(204, 204, 204)" fill-opacity="0.25" points="688.124,312.687 653.466,430.164 676.561,404.250 712.818,326.430 " />
<polygon stroke="black" stroke-width="1" fill="rgb(204, 204, 204)" fill-opacity="0.25" points="542.491,428.624 558.207,451.679 566.999,319.214 537.873,337.987 " />
<polygon stroke="black" stroke-width="1" fill="rgb(204, 204, 204)" fill-opacity="0.25" points="653.466,430.164 677.474,441.224 696.930,414.425 676.561,404.250 " />
<polygon stroke="black" stroke-width="1" fill="rgb(204, 204, 204)" fill-opacity="0.25" points="520.526,447.910 532.487,474.415 558.207,451.679 542.491,428.624 " />
<polygon stroke="black" stroke-width="1" fill="rgb(204, 204, 204)" fill-opacity="0.25" points="677.474,441.224 681.747,485.053 701.172,470.916 696.930,414.425 " />
<polygon stroke="black" stroke-width="1" fill="rgb(204, 204, 204)" fill-opacity="0.25" points="504.710,522.099 520.722,530.360 532.487,474.415 520.526,447.910 " />
<polygon stroke="black" stroke-width="1" fill="rgb(204, 204, 204)" fill-opacity="0.25" points="681.747,485.053 680.792,525.849 691.776,500.070 701.172,470.916 " />
<polygon stroke="black" stroke-width="1" fill="rgb(204, 204, 204)" fill-opacity="0.25" points="509.408,554.241 517.017,579.799 520.722,530.360 504.710,522.099 " />
<polygon stroke="black" stroke-width="1" fill="rgb(204, 204, 204)" fill-opacity="0.25" points="680.792,525.849 702.262,578.548 711.060,528.664 691.776,500.070 " />
<polygon stroke="black" stroke-width="1" fill="rgb(204, 204, 204)" fill-opacity="0.25" points="488.036,602.579 491.035,663.679 517.017,579.799 509.408,554.241 " />
<polygon stroke="black" stroke-width="1" fill="rgb(204, 204, 204)" fill-opacity="0.25" points="894.971,207.723 809.496,201.408 820.768,232.593 898.695,235.736 " />
<polygon stroke="black" stroke-width="1" fill="rgb(204, 204, 204)" fill-opacity="0.25" points="512.904,208.625 547.708,174.156 482.720,164.639 455.962,199.739 " />
<polygon stroke="black" stroke-width="1" fill="rgb(204, 204, 204)" fill-opacity="0.25" points="979.307,248.796 894.971,207.723 898.695,235.736 954.764,271.319 " />
<polygon stroke="black" stroke-width="1" fill="rgb(204, 204, 204)" fill-opacity="0.25" points="455.962,199.739 482.720,164.639 386.587,210.702 387.601,245.655 " />
<polygon stroke="black" stroke-width="1" fill="rgb(204, 204, 204)" fill-opacity="0.25" points="964.747,314.458 979.307,248.796 954.764,271.319 933.150,312.872 " />
<polygon stroke="black" stroke-width="1" fill="rgb(204, 204, 204)" fill-opacity="0.25" points="387.601,245.655 386.587,210.702 350.842,315.686 375.127,313.659 " />
<polygon stroke="black" stroke-width="1" fill="rgb(204, 204, 204)" fill-opacity="0.25" points="888.395,375.017 964.747,314.458 933.150,312.872 888.266,357.018 " />
<polygon stroke="black" stroke-width="1" fill="rgb(204, 204, 204)" fill-opacity="0.25" points="375.127,313.659 350.842,315.686 375.905,421.188 384.077,389.826 " />
<polygon stroke="black" stroke-width="1" fill="rgb(204, 204, 204)" fill-opacity="0.25" points="803.337,444.814 888.395,375.017 888.266,357.018 814.772,410.930 " />
<polygon stroke="black" stroke-width="1" fill="rgb(204, 204, 204)" fill-opacity="0.25" points="384.077,389.826 375.905,421.188 420.489,524.805 419.947,474.174 " />
<polygon stroke="black" stroke-width="1" fill="rgb(204, 204, 204)" fill-opacity="0.25" points="702.262,578.548 803.337,444.814 814.772,410.930 711.060,528.664 " />
<polygon stroke="black" stroke-width="1" fill="rgb(204, 204, 204)" fill-opacity="0.25" points="419.947,474.174 420.489,524.805 491.035,663.679 488.036,602.579 " />
<polygon stroke="black" stroke-width="1" fill="rgb(204, 204, 204)" fill-opacity="0.25" points="696.930,414.425 701.172,470.916 750.826,407.933 731.532,373.694 " />
<polygon stroke="black" stroke-width="1" fill="rgb(204, 204, 204)" fill-opacity="0.25" points="473.920,455.315 504.710,522.099 520.526,447.910 501.711,403.144 " />
<polygon stroke="black" stroke-width="1" fill="rgb(204, 204, 204)" fill-opacity="0.25" points="731.532,373.694 750.826,407.933 797.348,345.944 784.115,314.844 " />
<polygon stroke="black" stroke-width="1" fill="rgb(204, 204, 204)" fill-opacity="0.25" points="457.960,371.140 473.920,455.315 501.711,403.144 483.935,324.905 " />
<polygon stroke="black" stroke-width="1" fill="rgb(204, 204, 204)" fill-opacity="0.25" points="784.115,314.844 797.348,345.944 839.446,309.109 836.524,278.466 " />
<polygon stroke="black" stroke-width="1" fill="rgb(204, 204, 204)" fill-opacity="0.25" points="445.657,313.162 457.960,371.140 483.935,324.905 467.342,267.796 " />
<polygon stroke="black" stroke-width="1" fill="rgb(204, 204, 204)" fill-opacity="0.25" points="836.524,278.466 839.446,309.109 871.534,302.689 883.808,273.375 " />
<polygon stroke="black" stroke-width="1" fill="rgb(204, 204, 204)" fill-opacity="0.25" points="426.314,300.656 445.657,313.162 467.342,267.796 437.296,254.750 " />
<polygon stroke="black" stroke-width="1" fill="rgb(204, 204, 204)" fill-opacity="0.25" points="898.695,235.736 820.768,232.593 836.524,278.466 883.808,273.375 " />
<polygon stroke="black" stroke-width="1" fill="rgb(204, 204, 204)" fill-opacity="0.25" points="467.342,267.796 512.904,208.625 455.962,199.739 437.296,254.750 " />
<polygon stroke="black" stroke-width="1" fill="rgb(204, 204, 204)" fill-opacity="0.25" points="755.904,266.934 784.115,314.844 836.524,278.466 820.768,232.593 " />
<polygon stroke="black" stroke-width="1" fill="rgb(204, 204, 204)" fill-opacity="0.25" points="467.342,267.796 483.935,324.905 535.739,261.224 512.904,208.625 " />
<polygon stroke="black" stroke-width="1" fill="rgb(204, 204, 204)" fill-opacity="0.25" points="755.904,266.934 712.818,326.430 731.532,373.694 784.115,314.844 " />
<polygon stroke="black" stroke-width="1" fill="rgb(204, 204, 204)" fill-opacity="0.25" points="501.711,403.144 537.873,337.987 535.739,261.224 483.935,324.905 " />
<polygon stroke="black" stroke-width="1" fill="rgb(204, 204, 204)" fill-opacity="0.25" points="696.930,414.425 731.532,373.694 712.818,326.430 676.561,404.250 " />
<polygon stroke="black" stroke-width="1" fill="rgb(204, 204, 204)" fill-opacity="0.25" points="537.873,337.987 501.711,403.144 520.526,447.910 542.491,428.624 " />
<polygon stroke="black" stroke-width="1" fill="rgb(204, 204, 204)" fill-opacity="0.25" points="691.776,500.070 711.060,528.664 750.826,407.933 701.172,470.916 " />
<polygon stroke="black" stroke-width="1" fill="rgb(204, 204, 204)" fill-opacity="0.25" points="473.920,455.315 488.036,602.579 509.408,554.241 504.710,522.099 " />
<polygon stroke="black" stroke-width="1" fill="rgb(204, 204, 204)" fill-opacity="0.25" points="814.772,410.930 797.348,345.944 750.826,407.933 711.060,528.664 " />
<polygon stroke="black" stroke-width="1" fill="rgb(204, 204, 204)" fill-opacity="0.25" points="473.920,455.315 457.960,371.140 419.947,474.174 488.036,602.579 " />
<polygon stroke="black" stroke-width="1" fill="rgb(204, 204, 204)" fill-opacity="0.25" points="888.266,357.018 839.446,309.109 797.348,345.944 814.772,410.930 " />
<polygon stroke="black" stroke-width="1" fill="rgb(204, 204, 204)" fill-opacity="0.25" points="457.960,371.140 445.657,313.162 384.077,389.826 419.947,474.174 " />
<polygon stroke="black" stroke-width="1" fill="rgb(204, 204, 204)" fill-opacity="0.25" points="933.150,312.872 871.534,302.689 839.446,309.109 888.266,357.018 " />
<polygon stroke="black" stroke-width="1" fill="rgb(204, 204, 204)" fill-opacity="0.25" points="445.657,313.162 426.314,300.656 375.127,313.659 384.077,389.826 " />
<polygon stroke="black" stroke-width="1" fill="rgb(204, 204, 204)" fill-opacity="0.25" points="954.764,271.319 883.808,273.375 871.534,302.689 933.150,312.872 " />
<polygon stroke="black" stroke-width="1" fill="rgb(204, 204, 204)" fill-opacity="0.25" points="426.314,300.656 437.296,254.750 387.601,245.655 375.127,313.659 " />
<polygon stroke="black" stroke-width="1" fill="rgb(204, 204, 204)" fill-opacity="0.25" points="898.695,235.736 883.808,273.375 954.764,271.319 " />
<polygon stroke="black" stroke-width="1" fill="rgb(204, 204, 204)" fill-opacity="0.25" points="387.601,245.655 437.296,254.750 455.962,199.739 " />
<polygon stroke="black" stroke-width="1" fill="rgb(204, 204, 204)" fill-opacity="0.25" points="790.409,538.313 658.194,742.509 713.818,772.110 844.144,547.241 " />
<polygon stroke="black" stroke-width="1" fill="rgb(204, 204, 204)" fill-opacity="0.25" points="456.936,967.365 517.734,837.999 412.826,669.262 362.867,719.243 " />
<polygon stroke="black" stroke-width="1" fill="rgb(204, 204, 204)" fill-opacity="0.25" points="918.122,406.520 790.409,538.313 844.144,547.241 943.581,427.255 " />
<polygon stroke="black" stroke-width="1" fill="rgb(204, 204, 204)" fill-opacity="0.25" points="362.867,719.243 412.826,669.262 340.911,480.036 313.045,523.295 " />
<polygon stroke="black" stroke-width="1" fill="rgb(204, 204, 204)" fill-opacity="0.25" points="1075.311,309.888 918.122,406.520 943.581,427.255 1041.190,361.427 " />
<polygon stroke="black" stroke-width="1" fill="rgb(204, 204, 204)" fill-opacity="0.25" points="313.045,523.295 340.911,480.036 268.329,314.533 266.752,404.542 " />
<polygon stroke="black" stroke-width="1" fill="rgb(204, 204, 204)" fill-opacity="0.25" points="1241.343,352.007 1075.311,309.888 1041.190,361.427 1119.935,387.433 " />
<polygon stroke="black" stroke-width="1" fill="rgb(204, 204, 204)" fill-opacity="0.25" points="266.752,404.542 268.329,314.533 102.494,448.341 190.807,470.099 " />
<polygon stroke="black" stroke-width="1" fill="rgb(204, 204, 204)" fill-opacity="0.25" points="1261.388,501.101 1241.343,352.007 1119.935,387.433 1105.686,494.747 " />
<polygon stroke="black" stroke-width="1" fill="rgb(204, 204, 204)" fill-opacity="0.25" points="190.807,470.099 102.494,448.341 42.632,754.010 158.981,697.228 " />
<polygon stroke="black" stroke-width="1" fill="rgb(204, 204, 204)" fill-opacity="0.25" points="1225.426,616.018 1261.388,501.101 1105.686,494.747 1056.108,620.430 " />
<polygon stroke="black" stroke-width="1" fill="rgb(204, 204, 204)" fill-opacity="0.25" points="158.981,697.228 42.632,754.010 68.811,978.945 173.854,955.421 " />
<polygon stroke="black" stroke-width="1" fill="rgb(204, 204, 204)" fill-opacity="0.25" points="1105.686,494.747 844.144,547.241 713.818,772.110 1056.108,620.430 " />
<polygon stroke="black" stroke-width="1" fill="rgb(204, 204, 204)" fill-opacity="0.25" points="456.936,967.365 362.867,719.243 158.981,697.228 173.854,955.421 " />
<polygon stroke="black" stroke-width="1" fill="rgb(204, 204, 204)" fill-opacity="0.25" points="1105.686,494.747 1119.935,387.433 943.581,427.255 844.144,547.241 " />
<polygon stroke="black" stroke-width="1" fill="rgb(204, 204, 204)" fill-opacity="0.25" points="313.045,523.295 190.807,470.099 158.981,697.228 362.867,719.243 " />
<polygon stroke="black" stroke-width="1" fill="rgb(204, 204, 204)" fill-opacity="0.25" points="1119.935,387.433 1041.190,361.427 943.581,427.255 " />
<polygon stroke="black" stroke-width="1" fill="rgb(204, 204, 204)" fill-opacity="0.25" points="313.045,523.295 266.752,404.542 190.807,470.099 " />
<polygon stroke="black" stroke-width="1" fill="rgb(204, 204, 204)" fill-opacity="0.25" points="1781.774,1513.869 1747.558,1427.819 1763.333,1471.145 1763.555,1471.029 " />
<polygon stroke="black" stroke-width="1" fill="rgb(204, 204, 204)" fill-opacity="0.25" points="68.811,978.945 103.761,1110.715 270.127,1104.147 173.854,955.421 " />
<polygon stroke="black" stroke-width="1" fill="rgb(204, 204, 204)" fill-opacity="0.25" points="937.043,711.905 1056.108,620.430 713.818,772.110 713.582,934.039 " />
<polygon stroke="black" stroke-width="1" fill="rgb(204, 204, 204)" fill-opacity="0.25" points="456.936,967.365 173.854,955.421 270.127,1104.147 457.821,1203.432 " />
<polygon stroke="black" stroke-width="1" fill="rgb(204, 204, 204)" fill-opacity="0.25" points="587.736,949.460 713.582,934.039 713.818,772.110 658.194,742.509 " />
<polygon stroke="black" stroke-width="1" fill="rgb(204, 204, 204)" fill-opacity="0.25" points="456.936,967.365 457.821,1203.432 563.919,976.406 517.734,837.999 " />

</svg>
